CommonSans-Bold.ufo
<glyph name="ampersand" format="2">
	<unicode hex="0026"/>
	<advance width="699"/>
	<outline>
		<contour>
			<point x="120" y="193" type="curve" smooth="yes"/>
			<point x="120" y="113"/>
			<point x="201" y="55"/>
			<point x="257" y="55" type="curve" smooth="yes"/>
			<point x="320" y="55"/>
			<point x="394" y="82"/>
			<point x="442" y="137" type="curve"/>
			<point x="247" y="373" type="line"/>
			<point x="171" y="330"/>
			<point x="120" y="278"/>
		</contour>
		<contour>
			<point x="220" y="565" type="curve" smooth="yes"/>
			<point x="220" y="538"/>
			<point x="239" y="504"/>
			<point x="277" y="463" type="curve"/>
			<point x="320" y="482"/>
			<point x="380" y="512"/>
			<point x="380" y="565" type="curve" smooth="yes"/>
			<point x="380" y="611"/>
			<point x="346" y="645"/>
			<point x="294" y="645" type="curve" smooth="yes"/>
			<point x="253" y="645"/>
			<point x="220" y="613"/>
		</contour>
		<contour>
			<point x="40" y="192" type="curve" smooth="yes"/>
			<point x="40" y="319"/>
			<point x="112" y="373"/>
			<point x="199" y="431" type="curve"/>
			<point x="163" y="481"/>
			<point x="140" y="503"/>
			<point x="140" y="566" type="curve" smooth="yes"/>
			<point x="140" y="652"/>
			<point x="212" y="710"/>
			<point x="298" y="710" type="curve" smooth="yes"/>
			<point x="382" y="710"/>
			<point x="460" y="652"/>
			<point x="460" y="569" type="curve" smooth="yes"/>
			<point x="460" y="487"/>
			<point x="402" y="451"/>
			<point x="325" y="406" type="curve"/>
			<point x="485" y="218" type="line"/>
			<point x="501" y="254"/>
			<point x="507" y="284"/>
			<point x="510" y="330" type="curve"/>
			<point x="590" y="330" type="line"/>
			<point x="586" y="261"/>
			<point x="570" y="222"/>
			<point x="540" y="165" type="curve"/>
			<point x="679" y="0" type="line"/>
			<point x="566" y="0" type="line"/>
			<point x="491" y="90" type="line"/>
			<point x="434" y="37"/>
			<point x="360" y="-10"/>
			<point x="254" y="-10" type="curve" smooth="yes"/>
			<point x="142" y="-10"/>
			<point x="40" y="68"/>
		</contour>
	</outline>
</glyph>
<glyph name="period" format="2">
	<unicode hex="002E"/>
	<advance width="170"/>
	<outline>
		<contour>
			<point x="117.5" y="0" type="line"/>
			<point x="52.5" y="0" type="line"/>
			<point x="52.5" y="80" type="line"/>
			<point x="117.5" y="80" type="line"/>
		</contour>
	</outline>
</glyph>
<glyph name="slash" format="2">
	<unicode hex="002F"/>
	<advance width="419"/>
	<outline>
		<contour>
			<point x="121" y="0" type="line"/>
			<point x="30" y="0" type="line"/>
			<point x="301" y="700" type="line"/>
			<point x="388" y="700" type="line"/>
		</contour>
	</outline>
</glyph>
<glyph name="at" format="2">
	<unicode hex="0040"/>
	<advance width="1020"/>
	<outline>
		<contour>
			<point x="396" y="289" type="curve" smooth="yes"/>
			<point x="396" y="245"/>
			<point x="412" y="219"/>
			<point x="459" y="219" type="curve" smooth="yes"/>
			<point x="498" y="219"/>
			<point x="538" y="242"/>
			<point x="545" y="261" type="curve" smooth="yes"/>
			<point x="573" y="339" type="line" smooth="yes"/>
			<point x="578" y="353"/>
			<point x="581" y="366"/>
			<point x="581" y="378" type="curve" smooth="yes"/>
			<point x="581" y="411"/>
			<point x="561" y="436"/>
			<point x="515" y="436" type="curve" smooth="yes"/>
			<point x="472" y="436"/>
			<point x="439" y="408"/>
			<point x="408" y="349" type="curve" smooth="yes"/>
			<point x="400" y="334"/>
			<point x="396" y="311"/>
		</contour>
		<contour>
			<point x="181" y="312" type="curve" smooth="yes"/>
			<point x="181" y="543"/>
			<point x="360" y="648"/>
			<point x="508" y="648" type="curve" smooth="yes"/>
			<point x="651" y="648"/>
			<point x="839" y="579"/>
			<point x="839" y="367" type="curve" smooth="yes"/>
			<point x="839" y="248"/>
			<point x="773" y="175"/>
			<point x="697" y="143" type="curve" smooth="yes"/>
			<point x="673" y="133"/>
			<point x="650" y="128"/>
			<point name=".hr01" x="631" y="128" type="curve" smooth="yes"/>
			<point x="581" y="128"/>
			<point x="548" y="158"/>
			<point name=".hr02" x="548" y="203" type="curve" smooth="yes"/>
			<point x="548" y="207"/>
			<point x="549" y="211"/>
			<point x="549" y="216" type="curve"/>
			<point x="522" y="191"/>
			<point x="469" y="158"/>
			<point x="420" y="158" type="curve" smooth="yes"/>
			<point x="354" y="158"/>
			<point x="325" y="218"/>
			<point x="325" y="276" type="curve" smooth="yes"/>
			<point x="325" y="385"/>
			<point x="407" y="491"/>
			<point x="522" y="491" type="curve" smooth="yes"/>
			<point x="575" y="491"/>
			<point x="602" y="458"/>
			<point name=".hr03" x="602" y="426" type="curve" smooth="yes"/>
			<point x="602" y="421" type="line"/>
			<point x="617" y="465" type="line"/>
			<point x="677" y="465" type="line"/>
			<point x="612" y="283" type="line" smooth="yes"/>
			<point x="606" y="265"/>
			<point x="600" y="243"/>
			<point name=".hr04" x="600" y="224" type="curve" smooth="yes"/>
			<point x="600" y="199"/>
			<point x="610" y="179"/>
			<point x="643" y="179" type="curve" smooth="yes"/>
			<point x="660" y="179"/>
			<point x="681" y="185"/>
			<point x="699" y="193" type="curve"/>
			<point x="756" y="216"/>
			<point x="775" y="304"/>
			<point x="775" y="366" type="curve" smooth="yes"/>
			<point x="775" y="546"/>
			<point x="594" y="580"/>
			<point x="508" y="580" type="curve" smooth="yes"/>
			<point x="404" y="580"/>
			<point x="253" y="502"/>
			<point x="253" y="313" type="curve" smooth="yes"/>
			<point x="253" y="173"/>
			<point x="357" y="57"/>
			<point x="514" y="57" type="curve" smooth="yes"/>
			<point x="566" y="57"/>
			<point x="609" y="68"/>
			<point x="663" y="96" type="curve"/>
			<point x="663" y="44" type="line"/>
			<point x="614" y="15"/>
			<point x="554" y="-2"/>
			<point x="485" y="-2" type="curve" smooth="yes"/>
			<point x="313" y="-2"/>
			<point x="181" y="136"/>
		</contour>
	</outline>
</glyph>
<glyph name="A" format="2">
	<unicode hex="0041"/>
	<advance width="608"/>
	<outline>
		<contour>
			<point x="368" y="288.75" type="line"/>
			<point x="303.75" y="493.25" type="line"/>
			<point x="239.5" y="288.75" type="line"/>
		</contour>
		<contour>
			<point x="457" y="0" type="line"/>
			<point x="410.75" y="148.75" type="line"/>
			<point x="196.75" y="148.75" type="line"/>
			<point x="150.5" y="0" type="line"/>
			<point x="10" y="0" type="line"/>
			<point x="220.75" y="680" type="line"/>
			<point x="385.25" y="680" type="line"/>
			<point x="597.5" y="0" type="line"/>
		</contour>
	</outline>
	<anchor name="top" x="294" y="740"/>
</glyph>
<glyph name="B" format="2">
	<unicode hex="0042"/>
	<advance width="614"/>
	<outline>
		<contour>
			<point x="287.25" y="305.25" type="curve" smooth="yes"/>
			<point x="203" y="305.25" type="line"/>
			<point x="203" y="125" type="line"/>
			<point x="278.75" y="125" type="line" smooth="yes"/>
			<point x="351.75" y="125"/>
			<point x="393.75" y="156.5"/>
			<point x="393.75" y="221.5" type="curve" smooth="yes"/>
			<point x="393.75" y="276.75"/>
			<point x="360.5" y="305.25"/>
		</contour>
		<contour>
			<point x="282" y="555" type="curve" smooth="yes"/>
			<point x="203" y="555" type="line"/>
			<point x="203" y="430.25" type="line"/>
			<point x="287.25" y="430.25" type="line" smooth="yes"/>
			<point x="322.5" y="430.25"/>
			<point x="347.5" y="452.5"/>
			<point name=".hr01" x="347.5" y="489.75" type="curve" smooth="yes"/>
			<point x="347.5" y="527"/>
			<point x="330.75" y="555"/>
		</contour>
		<contour>
			<point x="278.75" y="0" type="curve" smooth="yes"/>
			<point x="62.5" y="0" type="line"/>
			<point x="62.5" y="680" type="line"/>
			<point x="282" y="680" type="line" smooth="yes"/>
			<point x="421.25" y="680"/>
			<point x="488" y="613.5"/>
			<point x="488" y="510.75" type="curve" smooth="yes"/>
			<point x="488" y="458.5"/>
			<point x="459.5" y="399.5"/>
			<point x="393.5" y="373.75" type="curve"/>
			<point x="471.5" y="359.75"/>
			<point name=".hr02" x="534.25" y="301.75"/>
			<point x="534.25" y="212.5" type="curve" smooth="yes"/>
			<point x="534.25" y="89.5"/>
			<point x="466.25" y="0"/>
		</contour>
	</outline>
	<anchor name="top" x="271.5" y="740"/>
</glyph>
<glyph name="C" format="2">
	<unicode hex="0043"/>
	<advance width="660"/>
	<outline>
		<contour>
			<point x="350.5" y="565" type="curve" smooth="yes"/>
			<point x="247.75" y="565"/>
			<point x="183" y="477.25"/>
			<point x="183" y="340" type="curve" smooth="yes"/>
			<point x="183" y="202.75"/>
			<point x="247.75" y="115"/>
			<point x="350.5" y="115" type="curve" smooth="yes"/>
			<point x="418" y="115"/>
			<point x="475" y="154.5"/>
			<point x="488.75" y="214" type="curve"/>
			<point x="613.75" y="214" type="line"/>
			<point x="591.5" y="78.25"/>
			<point x="488.75" y="-10"/>
			<point x="350.5" y="-10" type="curve" smooth="yes"/>
			<point x="154.5" y="-10"/>
			<point x="42.5" y="117.25"/>
			<point x="42.5" y="340" type="curve" smooth="yes"/>
			<point x="42.5" y="562.75"/>
			<point x="154.5" y="690"/>
			<point x="350.5" y="690" type="curve" smooth="yes"/>
			<point x="494.5" y="690"/>
			<point x="593.75" y="597"/>
			<point x="617.5" y="446.5" type="curve"/>
			<point x="492.5" y="446.5" type="line"/>
			<point x="476.5" y="523.75"/>
			<point x="423.25" y="565"/>
		</contour>
	</outline>
	<anchor name="top" x="346.5" y="740"/>
</glyph>
<glyph name="D" format="2">
	<unicode hex="0044"/>
	<advance width="638"/>
	<outline>
		<contour>
			<point x="203" y="555" type="line"/>
			<point x="203" y="125" type="line"/>
			<point x="303" y="125" type="line" smooth="yes"/>
			<point x="395" y="125"/>
			<point x="454.75" y="214"/>
			<point x="454.75" y="340" type="curve" smooth="yes"/>
			<point x="454.75" y="493"/>
			<point x="397" y="555"/>
			<point x="303" y="555" type="curve" smooth="yes"/>
		</contour>
		<contour>
			<point x="62.5" y="680" type="line"/>
			<point x="303" y="680" type="line" smooth="yes"/>
			<point x="493" y="680"/>
			<point x="595" y="556.5"/>
			<point x="595" y="340" type="curve" smooth="yes"/>
			<point x="595" y="121.25"/>
			<point x="493.75" y="0"/>
			<point x="303" y="0" type="curve" smooth="yes"/>
			<point x="62.5" y="0" type="line"/>
		</contour>
	</outline>
	<anchor name="top" x="291.5" y="740"/>
</glyph>
<glyph name="E" format="2">
	<unicode hex="0045"/>
	<advance width="510"/>
	<outline>
		<contour>
			<point x="420" y="287.5" type="line"/>
			<point x="203" y="287.5" type="line"/>
			<point x="203" y="117.5" type="line"/>
			<point x="460" y="117.5" type="line"/>
			<point x="460" y="0" type="line"/>
			<point x="62.5" y="0" type="line"/>
			<point x="62.5" y="680" type="line"/>
			<point x="460" y="680" type="line"/>
			<point x="460" y="562.5" type="line"/>
			<point x="203" y="562.5" type="line"/>
			<point x="203" y="405" type="line"/>
			<point x="420" y="405" type="line"/>
		</contour>
	</outline>
	<anchor name="top" x="264" y="740"/>
</glyph>
<glyph name="F" format="2">
	<unicode hex="0046"/>
	<advance width="510"/>
	<outline>
		<contour>
			<point x="420" y="287.5" type="line"/>
			<point x="203" y="287.5" type="line"/>
			<point x="203" y="0" type="line"/>
			<point x="62.5" y="0" type="line"/>
			<point x="62.5" y="680" type="line"/>
			<point x="460" y="680" type="line"/>
			<point x="460" y="562.5" type="line"/>
			<point x="203" y="562.5" type="line"/>
			<point x="203" y="405" type="line"/>
			<point x="420" y="405" type="line"/>
		</contour>
	</outline>
	<anchor name="top" x="264" y="740"/>
</glyph>
<glyph name="G" format="2">
	<unicode hex="0047"/>
	<advance width="662"/>
	<outline>
		<contour>
			<point x="350.5" y="565" type="curve" smooth="yes"/>
			<point x="247.75" y="565"/>
			<point x="183" y="477.25"/>
			<point x="183" y="340" type="curve" smooth="yes"/>
			<point x="183" y="202.75"/>
			<point x="247.75" y="115"/>
			<point x="350.5" y="115" type="curve" smooth="yes"/>
			<point x="411" y="115"/>
			<point x="464.75" y="147.25"/>
			<point x="491.5" y="196.75" type="curve"/>
			<point x="491.5" y="242.5" type="line"/>
			<point x="357.25" y="242.5" type="line"/>
			<point x="357.25" y="337.5" type="line"/>
			<point x="609.5" y="337.5" type="line"/>
			<point x="609.5" y="0" type="line"/>
			<point x="491.5" y="0" type="line"/>
			<point x="491.5" y="45.5" type="line"/>
			<point x="461.25" y="14"/>
			<point x="401.25" y="-10"/>
			<point x="350.5" y="-10" type="curve" smooth="yes"/>
			<point x="154.5" y="-10"/>
			<point x="42.5" y="117.25"/>
			<point x="42.5" y="340" type="curve" smooth="yes"/>
			<point x="42.5" y="562.75"/>
			<point x="154.5" y="690"/>
			<point x="350.5" y="690" type="curve" smooth="yes"/>
			<point x="494.5" y="690"/>
			<point x="593.75" y="597"/>
			<point x="617.5" y="446.5" type="curve"/>
			<point x="492.5" y="446.5" type="line"/>
			<point x="476.5" y="523.75"/>
			<point x="423.25" y="565"/>
		</contour>
	</outline>
	<anchor name="top" x="344" y="740"/>
</glyph>
<glyph name="H" format="2">
	<unicode hex="0048"/>
	<advance width="646"/>
	<outline>
		<contour>
			<point x="583" y="680" type="line"/>
			<point x="583" y="0" type="line"/>
			<point x="442.5" y="0" type="line"/>
			<point x="442.5" y="277" type="line"/>
			<point x="203" y="277" type="line"/>
			<point x="203" y="0" type="line"/>
			<point x="62.5" y="0" type="line"/>
			<point x="62.5" y="680" type="line"/>
			<point x="203" y="680" type="line"/>
			<point x="203" y="402" type="line"/>
			<point x="442.5" y="402" type="line"/>
			<point x="442.5" y="680" type="line"/>
		</contour>
	</outline>
	<anchor name="top" x="324.75" y="740"/>
</glyph>
<glyph name="I" format="2">
	<unicode hex="0049"/>
	<advance width="266"/>
	<outline>
		<contour>
			<point x="203" y="0" type="line"/>
			<point x="62.5" y="0" type="line"/>
			<point x="62.5" y="680" type="line"/>
			<point x="203" y="680" type="line"/>
		</contour>
	</outline>
	<anchor name="top" x="131.75" y="740"/>
</glyph>
<glyph name="J" format="2">
	<unicode hex="004A"/>
	<advance width="351"/>
	<outline>
		<contour>
			<point x="111.5" y="0" type="curve" smooth="yes"/>
			<point x="50" y="0" type="line"/>
			<point x="50" y="125" type="line"/>
			<point x="76" y="125" type="line" smooth="yes"/>
			<point x="116" y="125"/>
			<point x="148" y="153.5"/>
			<point x="148" y="217.5" type="curve" smooth="yes"/>
			<point x="148" y="680" type="line"/>
			<point x="288.5" y="680" type="line"/>
			<point x="288.5" y="224" type="line" smooth="yes"/>
			<point x="288.5" y="97.5"/>
			<point x="254" y="0"/>
		</contour>
	</outline>
	<anchor name="top" x="212.75" y="740"/>
</glyph>
<glyph name="K" format="2">
	<unicode hex="004B"/>
	<advance width="657"/>
	<outline>
		<contour>
			<point x="203" y="253.25" type="line"/>
			<point x="203" y="0" type="line"/>
			<point x="62.5" y="0" type="line"/>
			<point x="62.5" y="680" type="line"/>
			<point x="203" y="680" type="line"/>
			<point x="203" y="369.25" type="line"/>
			<point x="273.75" y="386.25" type="line"/>
			<point x="450" y="680" type="line"/>
			<point x="606.5" y="680" type="line"/>
			<point x="406.5" y="350" type="line"/>
			<point x="646.5" y="0" type="line"/>
			<point x="475" y="0" type="line"/>
			<point x="288.5" y="277.75" type="line"/>
		</contour>
	</outline>
	<anchor name="top" x="295.75" y="740"/>
</glyph>
<glyph name="L" format="2">
	<unicode hex="004C"/>
	<advance width="523"/>
	<outline>
		<contour>
			<point x="203" y="680" type="line"/>
			<point x="203" y="125" type="line"/>
			<point x="487.75" y="125" type="line"/>
			<point x="487.75" y="0" type="line"/>
			<point x="62.5" y="0" type="line"/>
			<point x="62.5" y="680" type="line"/>
		</contour>
	</outline>
	<anchor name="top" x="133.25" y="740"/>
</glyph>
<glyph name="M" format="2">
	<unicode hex="004D"/>
	<advance width="854"/>
	<outline>
		<contour>
			<point x="791" y="680" type="line"/>
			<point x="791" y="0" type="line"/>
			<point x="650.5" y="0" type="line"/>
			<point x="650.5" y="364.5" type="line"/>
			<point x="508.25" y="0" type="line"/>
			<point x="343.75" y="0" type="line"/>
			<point x="203" y="362.25" type="line"/>
			<point x="203" y="0" type="line"/>
			<point x="62.5" y="0" type="line"/>
			<point x="62.5" y="680" type="line"/>
			<point x="218.5" y="680" type="line"/>
			<point x="386" y="271.25" type="line" smooth="yes"/>
			<point x="398.75" y="240.25"/>
			<point x="413.75" y="196.75"/>
			<point x="426.75" y="154" type="curve"/>
			<point x="439.75" y="196.75"/>
			<point x="454.75" y="240.25"/>
			<point x="467.5" y="271.25" type="curve" smooth="yes"/>
			<point x="635" y="680" type="line"/>
		</contour>
	</outline>
	<anchor name="top" x="435.25" y="740"/>
</glyph>
<glyph name="N" format="2">
	<unicode hex="004E"/>
	<advance width="690"/>
	<outline>
		<contour>
			<point x="203" y="385" type="curve" smooth="yes"/>
			<point x="203" y="0" type="line"/>
			<point x="62.5" y="0" type="line"/>
			<point x="62.5" y="680" type="line"/>
			<point x="218.5" y="680" type="line"/>
			<point x="489.75" y="228.25" type="line"/>
			<point x="487" y="253.75"/>
			<point x="487" y="277.25"/>
			<point x="487" y="295" type="curve" smooth="yes"/>
			<point x="487" y="680" type="line"/>
			<point x="627.5" y="680" type="line"/>
			<point x="627.5" y="0" type="line"/>
			<point x="471.5" y="0" type="line"/>
			<point x="200.25" y="451.75" type="line"/>
			<point x="203" y="426.25"/>
			<point x="203" y="402.75"/>
		</contour>
	</outline>
	<anchor name="top" x="340.25" y="740"/>
</glyph>
<glyph name="O" format="2">
	<unicode hex="004F"/>
	<advance width="701"/>
	<outline>
		<contour>
			<point x="350.5" y="565" type="curve" smooth="yes"/>
			<point x="247.75" y="565"/>
			<point x="183" y="477.25"/>
			<point x="183" y="340" type="curve" smooth="yes"/>
			<point x="183" y="202.75"/>
			<point x="247.75" y="115"/>
			<point x="350.5" y="115" type="curve" smooth="yes"/>
			<point x="453.25" y="115"/>
			<point x="518" y="202.75"/>
			<point x="518" y="340" type="curve" smooth="yes"/>
			<point x="518" y="477.25"/>
			<point x="453.25" y="565"/>
		</contour>
		<contour>
			<point x="350.5" y="-10" type="curve" smooth="yes"/>
			<point x="154.5" y="-10"/>
			<point x="42.5" y="117.25"/>
			<point x="42.5" y="340" type="curve" smooth="yes"/>
			<point x="42.5" y="562.75"/>
			<point x="154.5" y="690"/>
			<point x="350.5" y="690" type="curve" smooth="yes"/>
			<point x="546.5" y="690"/>
			<point x="658.5" y="562.75"/>
			<point x="658.5" y="340" type="curve" smooth="yes"/>
			<point x="658.5" y="117.25"/>
			<point x="546.5" y="-10"/>
		</contour>
	</outline>
	<anchor name="top" x="345.75" y="740"/>
</glyph>
<glyph name="P" format="2">
	<unicode hex="0050"/>
	<advance width="580"/>
	<outline>
		<contour>
			<point x="293.75" y="555" type="curve" smooth="yes"/>
			<point x="203" y="555" type="line"/>
			<point x="203" y="360" type="line"/>
			<point x="293.75" y="360" type="line" smooth="yes"/>
			<point x="358.75" y="360"/>
			<point x="402" y="397"/>
			<point x="402" y="464.5" type="curve" smooth="yes"/>
			<point x="402" y="523.5"/>
			<point x="355.75" y="555"/>
		</contour>
		<contour>
			<point x="286.25" y="235" type="curve" smooth="yes"/>
			<point x="203" y="235" type="line"/>
			<point x="203" y="0" type="line"/>
			<point x="62.5" y="0" type="line"/>
			<point x="62.5" y="680" type="line"/>
			<point x="286.25" y="680" type="line" smooth="yes"/>
			<point x="426.25" y="680"/>
			<point x="527.5" y="622"/>
			<point x="527.5" y="464.5" type="curve" smooth="yes"/>
			<point x="527.5" y="320.75"/>
			<point x="443.5" y="235"/>
		</contour>
	</outline>
	<anchor name="top" x="264" y="740"/>
</glyph>
<glyph name="Q" format="2">
	<unicode hex="0051"/>
	<advance width="701"/>
	<outline>
		<component base="O"/>
		<contour>
			<point x="640" y="-7" type="line"/>
			<point x="564.75" y="-70.5" type="line"/>
			<point x="341.25" y="165.75" type="line"/>
			<point x="416.5" y="229.25" type="line"/>
		</contour>
	</outline>
	<anchor name="top" x="346.5" y="740"/>
</glyph>
<glyph name="S" format="2">
	<unicode hex="0053"/>
	<advance width="596"/>
	<outline>
		<contour>
			<point x="42.5" y="215.5" type="curve"/>
			<point x="190.5" y="215.5" type="line"/>
			<point x="190.5" y="157.75"/>
			<point x="229.75" y="115"/>
			<point x="298.75" y="115" type="curve" smooth="yes"/>
			<point x="368.5" y="115"/>
			<point x="405.5" y="146.5"/>
			<point x="405.5" y="189.75" type="curve" smooth="yes"/>
			<point x="405.5" y="228.5"/>
			<point x="384.25" y="255.75"/>
			<point x="345.25" y="271" type="curve"/>
			<point x="159" y="361.25" type="line" smooth="yes"/>
			<point x="99.75" y="389"/>
			<point name=".hr01" x="60.75" y="436"/>
			<point x="60.75" y="501.25" type="curve" smooth="yes"/>
			<point x="60.75" y="615.75"/>
			<point x="149.75" y="690"/>
			<point x="301.75" y="690" type="curve" smooth="yes"/>
			<point x="446" y="690"/>
			<point x="551.5" y="595.5"/>
			<point x="551.5" y="486" type="curve"/>
			<point x="403.5" y="486" type="line"/>
			<point x="403.5" y="529.75"/>
			<point x="366.25" y="565"/>
			<point x="291.25" y="565" type="curve" smooth="yes"/>
			<point x="237.25" y="565"/>
			<point x="208.75" y="545.25"/>
			<point x="208.75" y="502" type="curve" smooth="yes"/>
			<point x="208.75" y="474.25"/>
			<point x="225.25" y="453.75"/>
			<point x="264.25" y="437.5" type="curve"/>
			<point x="443.25" y="353" type="line" smooth="yes"/>
			<point x="515.75" y="319.75"/>
			<point x="553.5" y="269.25"/>
			<point x="553.5" y="186.75" type="curve" smooth="yes"/>
			<point x="553.5" y="66.5"/>
			<point x="462" y="-10"/>
			<point x="294.25" y="-10" type="curve" smooth="yes"/>
			<point x="144.75" y="-10"/>
			<point name=".hr02" x="42.5" y="85"/>
		</contour>
	</outline>
	<anchor name="top" x="280.25" y="740"/>
</glyph>
<glyph name="T" format="2">
	<unicode hex="0054"/>
	<advance width="480"/>
	<outline>
		<contour>
			<point x="310.25" y="555" type="line"/>
			<point x="310.25" y="0" type="line"/>
			<point x="169.75" y="0" type="line"/>
			<point x="169.75" y="555" type="line"/>
			<point x="10" y="555" type="line"/>
			<point x="10" y="680" type="line"/>
			<point x="470" y="680" type="line"/>
			<point x="470" y="555" type="line"/>
		</contour>
	</outline>
	<anchor name="top" x="233.75" y="740"/>
</glyph>
<glyph name="U" format="2">
	<unicode hex="0055"/>
	<advance width="620"/>
	<outline>
		<contour>
			<point x="50" y="260" type="curve" smooth="yes"/>
			<point x="50" y="680" type="line"/>
			<point x="190" y="680" type="line"/>
			<point x="190" y="295" type="line" smooth="yes"/>
			<point x="190" y="178.25"/>
			<point x="225" y="122.5"/>
			<point x="310" y="122.5" type="curve" smooth="yes"/>
			<point x="395" y="122.5"/>
			<point x="430" y="178.25"/>
			<point x="430" y="295" type="curve" smooth="yes"/>
			<point x="430" y="680" type="line"/>
			<point x="570" y="680" type="line"/>
			<point x="570" y="260" type="line" smooth="yes"/>
			<point x="570" y="82"/>
			<point x="475" y="-10"/>
			<point x="310" y="-10" type="curve" smooth="yes"/>
			<point x="145" y="-10"/>
			<point x="50" y="82"/>
		</contour>
	</outline>
	<anchor name="top" x="312.25" y="740"/>
</glyph>
<glyph name="V" format="2">
	<unicode hex="0056"/>
	<advance width="608"/>
	<outline>
		<contour>
			<point x="329.5" y="271.25" type="curve" smooth="yes"/>
			<point x="457" y="680" type="line"/>
			<point x="597.5" y="680" type="line"/>
			<point x="385.25" y="0" type="line"/>
			<point x="220.75" y="0" type="line"/>
			<point x="10" y="680" type="line"/>
			<point x="150.5" y="680" type="line"/>
			<point x="278" y="271.25" type="line" smooth="yes"/>
			<point x="287" y="241.5"/>
			<point x="296" y="203"/>
			<point x="303.75" y="163.75" type="curve"/>
			<point x="311.5" y="203"/>
			<point x="320.5" y="241.5"/>
		</contour>
	</outline>
	<anchor name="top" x="307.75" y="740"/>
</glyph>
<glyph name="W" format="2">
	<unicode hex="0057"/>
	<advance width="1055"/>
	<outline>
		<contour>
			<point x="776.5" y="271.25" type="curve" smooth="yes"/>
			<point x="904" y="680" type="line"/>
			<point x="1044.5" y="680" type="line"/>
			<point x="832.25" y="0" type="line"/>
			<point x="667.75" y="0" type="line"/>
			<point x="527.25" y="451.75" type="line"/>
			<point x="385.25" y="0" type="line"/>
			<point x="220.75" y="0" type="line"/>
			<point x="10" y="680" type="line"/>
			<point x="150.5" y="680" type="line"/>
			<point x="278" y="271.25" type="line" smooth="yes"/>
			<point x="287" y="241.5"/>
			<point x="296" y="203"/>
			<point x="303.75" y="163.75" type="curve"/>
			<point x="311.5" y="203"/>
			<point x="320.5" y="241.5"/>
			<point x="329.5" y="271.25" type="curve" smooth="yes"/>
			<point x="457" y="680" type="line"/>
			<point x="597.5" y="680" type="line"/>
			<point x="725" y="271.25" type="line" smooth="yes"/>
			<point x="734" y="241.5"/>
			<point x="743" y="203"/>
			<point x="750.75" y="163.75" type="curve"/>
			<point x="758.5" y="203"/>
			<point x="767.5" y="241.5"/>
		</contour>
	</outline>
	<anchor name="top" x="529.25" y="740"/>
</glyph>
<glyph name="X" format="2">
	<unicode hex="0058"/>
	<advance width="661"/>
	<outline>
		<contour>
			<point x="611" y="680" type="line"/>
			<point x="412.5" y="340" type="line"/>
			<point x="612" y="0" type="line"/>
			<point x="442.5" y="0" type="line"/>
			<point x="328" y="196.25" type="line"/>
			<point x="212.75" y="0" type="line"/>
			<point x="45.5" y="0" type="line"/>
			<point x="244.5" y="339.25" type="line"/>
			<point x="45" y="680" type="line"/>
			<point x="213" y="680" type="line"/>
			<point x="328.75" y="482.25" type="line"/>
			<point x="445.25" y="680" type="line"/>
		</contour>
	</outline>
	<anchor name="top" x="331.25" y="740"/>
</glyph>
<glyph name="Y" format="2">
	<unicode hex="0059"/>
	<advance width="594"/>
	<outline>
		<contour>
			<point x="226.75" y="235" type="line"/>
			<point x="14.75" y="680" type="line"/>
			<point x="159" y="680" type="line"/>
			<point x="296" y="395.5" type="line"/>
			<point x="298" y="395.5" type="line"/>
			<point x="439" y="680" type="line"/>
			<point x="579.5" y="680" type="line"/>
			<point x="367.25" y="235" type="line"/>
			<point x="367.25" y="0" type="line"/>
			<point x="226.75" y="0" type="line"/>
		</contour>
	</outline>
	<anchor name="top" x="297.75" y="740"/>
</glyph>
<glyph name="Z" format="2">
	<unicode hex="005A"/>
	<advance width="589"/>
	<outline>
		<contour>
			<point x="552.5" y="125" type="line"/>
			<point x="552.5" y="0" type="line"/>
			<point x="39.75" y="0" type="line"/>
			<point x="39.75" y="63.5" type="line"/>
			<point x="342.5" y="555" type="line"/>
			<point x="57.5" y="555" type="line"/>
			<point x="57.5" y="680" type="line"/>
			<point x="548" y="680" type="line"/>
			<point x="548" y="616.5" type="line"/>
			<point x="245.5" y="125" type="line"/>
		</contour>
	</outline>
	<anchor name="top" x="289.75" y="740"/>
</glyph>
<glyph name="bracketleft" format="2">
	<unicode hex="005B"/>
	<advance width="435"/>
	<outline>
		<contour>
			<point x="70" y="855" type="line"/>
			<point x="365" y="855" type="line"/>
			<point x="365" y="730" type="line"/>
			<point x="210" y="730" type="line"/>
			<point x="210" y="-31" type="line"/>
			<point x="365" y="-31" type="line"/>
			<point x="365" y="-156" type="line"/>
			<point x="70" y="-156" type="line"/>
		</contour>
	</outline>
</glyph>
<glyph name="backslash" format="2">
	<unicode hex="005C"/>
	<advance width="571"/>
	<outline>
		<contour>
			<point x="377" y="0" type="line"/>
			<point x="30" y="700" type="line"/>
			<point x="191" y="700" type="line"/>
			<point x="541" y="0" type="line"/>
		</contour>
	</outline>
</glyph>
<glyph name="bracketright" format="2">
	<unicode hex="005D"/>
	<advance width="435"/>
	<outline>
		<contour>
			<point x="70" y="-156" type="line"/>
			<point x="70" y="-31" type="line"/>
			<point x="225" y="-31" type="line"/>
			<point x="225" y="730" type="line"/>
			<point x="70" y="730" type="line"/>
			<point x="70" y="855" type="line"/>
			<point x="365" y="855" type="line"/>
			<point x="365" y="-156" type="line"/>
		</contour>
	</outline>
</glyph>
<glyph name="asciicircum" format="2">
	<unicode hex="005E"/>
	<advance width="591"/>
	<outline>
		<contour>
			<point x="42.25" y="520" type="line"/>
			<point x="204.75" y="800" type="line"/>
			<point x="386.25" y="800" type="line"/>
			<point x="548.75" y="520" type="line"/>
			<point x="395.25" y="520" type="line"/>
			<point x="278.25" y="712" type="line"/>
			<point x="320.25" y="712" type="line"/>
			<point x="203.25" y="520" type="line"/>
		</contour>
	</outline>
</glyph>
<glyph name="underscore" format="2">
	<unicode hex="005F"/>
	<advance width="545"/>
	<outline>
		<contour>
			<point x="20" y="-175" type="line"/>
			<point x="20" y="-50" type="line"/>
			<point x="525" y="-50" type="line"/>
			<point x="525" y="-175" type="line"/>
		</contour>
	</outline>
</glyph>
<glyph name="grave" format="2">
	<unicode hex="0060"/>
	<advance width="301"/>
	<outline>
		<contour>
			<point x="126.5" y="520" type="line"/>
			<point x="35" y="715" type="line"/>
			<point x="203" y="715" type="line"/>
			<point x="253" y="520" type="line"/>
		</contour>
	</outline>
</glyph>
<glyph name="a" format="2">
	<unicode hex="0061"/>
	<advance width="532"/>
	<outline>
		<contour>
			<point x="52.5" y="123" type="curve" smooth="yes"/>
			<point x="52.5" y="208.75"/>
			<point x="123" y="260.25"/>
			<point x="258.75" y="276.75" type="curve"/>
			<point x="351.5" y="289.25" type="line"/>
			<point x="351.5" y="233.5" type="line"/>
			<point x="282.5" y="217.5" type="line" smooth="yes"/>
			<point name=".hr01" x="218" y="202.5"/>
			<point name=".hr02" x="200" y="181.25"/>
			<point x="200" y="139" type="curve" smooth="yes"/>
			<point x="200" y="108.75"/>
			<point x="224.5" y="85"/>
			<point x="257.75" y="85" type="curve" smooth="yes"/>
			<point x="284" y="85"/>
			<point x="318.5" y="101"/>
			<point x="342" y="126" type="curve"/>
			<point x="360.25" y="146.5" type="line"/>
			<point x="360.25" y="53" type="line"/>
			<point x="338.25" y="53" type="line"/>
			<point x="297.75" y="12.5"/>
			<point x="252.75" y="-13"/>
			<point x="189.5" y="-13" type="curve" smooth="yes"/>
			<point x="108.5" y="-13"/>
			<point x="52.5" y="44"/>
		</contour>
		<contour>
			<point x="358.5" y="0" type="line"/>
			<point x="342" y="54" type="line"/>
			<point x="342" y="320" type="line" smooth="yes"/>
			<point x="342" y="360.5"/>
			<point x="319.5" y="386.25"/>
			<point x="277" y="386.25" type="curve" smooth="yes"/>
			<point x="244.5" y="386.25"/>
			<point x="222" y="361.5"/>
			<point x="217.5" y="330" type="curve"/>
			<point name=".hr03" x="74.5" y="330" type="line"/>
			<point x="81.75" y="412.5"/>
			<point x="153.25" y="473"/>
			<point x="283" y="473" type="curve" smooth="yes"/>
			<point x="420.25" y="473"/>
			<point x="482" y="403.25"/>
			<point x="482" y="314" type="curve" smooth="yes"/>
			<point x="482" y="0" type="line"/>
		</contour>
	</outline>
	<anchor name="top" x="283" y="520"/>
</glyph>
<glyph name="b" format="2">
	<unicode hex="0062"/>
	<advance width="585"/>
	<outline>
		<contour>
			<point x="191.25" y="237" type="curve" smooth="yes"/>
			<point x="191.25" y="211" type="line" smooth="yes"/>
			<point x="191.25" y="119.5"/>
			<point x="238" y="85"/>
			<point x="283.75" y="85" type="curve" smooth="yes"/>
			<point x="339" y="85"/>
			<point x="378" y="129"/>
			<point x="378" y="232" type="curve" smooth="yes"/>
			<point x="378" y="339.25"/>
			<point x="339.5" y="375"/>
			<point x="280" y="375" type="curve" smooth="yes"/>
			<point x="223.25" y="375"/>
			<point x="191.25" y="320.75"/>
		</contour>
		<contour>
			<point x="181.5" y="85.75" type="line"/>
			<point x="179.25" y="370.75" type="line"/>
			<point x="191.25" y="389.75" type="line"/>
			<point x="222" y="442.25"/>
			<point x="263.25" y="473"/>
			<point x="333.25" y="473" type="curve" smooth="yes"/>
			<point x="444.25" y="473"/>
			<point x="525.5" y="395.75"/>
			<point x="525.5" y="232" type="curve" smooth="yes"/>
			<point x="525.5" y="85.5"/>
			<point x="434.25" y="-13"/>
			<point x="330.25" y="-13" type="curve" smooth="yes"/>
			<point x="265.25" y="-13"/>
			<point x="227.25" y="16"/>
			<point x="191.25" y="85.75" type="curve"/>
		</contour>
		<contour>
			<point x="51.25" y="0" type="line"/>
			<point x="51.25" y="700" type="line"/>
			<point x="191.25" y="700" type="line"/>
			<point x="191.25" y="85.75" type="line"/>
			<point x="189.25" y="85.75" type="line"/>
			<point x="172.75" y="0" type="line"/>
		</contour>
	</outline>
</glyph>
<glyph name="h" format="2">
	<unicode hex="0068"/>
	<advance width="571"/>
	<outline>
		<contour>
			<point x="180" y="278.25" type="line"/>
			<point x="180" y="377" type="line"/>
			<point x="200" y="377" type="line"/>
			<point x="242.25" y="441.25"/>
			<point x="295.5" y="473"/>
			<point x="358.25" y="473" type="curve" smooth="yes"/>
			<point x="461.5" y="473"/>
			<point x="510.75" y="418.25"/>
			<point x="510.75" y="303" type="curve" smooth="yes"/>
			<point x="510.75" y="0" type="line"/>
			<point x="370.75" y="0" type="line"/>
			<point x="370.75" y="260.25" type="line" smooth="yes"/>
			<point x="370.75" y="331.25"/>
			<point x="341.5" y="364"/>
			<point x="294.5" y="364" type="curve" smooth="yes"/>
			<point x="247.75" y="364"/>
			<point x="209" y="328"/>
			<point x="200" y="278.25" type="curve"/>
		</contour>
		<contour>
			<point x="60" y="0" type="line"/>
			<point x="60" y="700" type="line"/>
			<point x="200" y="700" type="line"/>
			<point x="200" y="0" type="line"/>
		</contour>
	</outline>
</glyph>
<glyph name="i" format="2">
	<unicode hex="0069"/>
	<advance width="280"/>
	<outline>
		<contour>
			<point x="210" y="0" type="line"/>
			<point x="70" y="0" type="line"/>
			<point x="70" y="460" type="line"/>
			<point x="210" y="460" type="line"/>
		</contour>
		<contour>
			<point x="210" y="520" type="line"/>
			<point x="70" y="520" type="line"/>
			<point x="70" y="667.5" type="line"/>
			<point x="210" y="667.5" type="line"/>
		</contour>
	</outline>
</glyph>
<glyph name="k" format="2">
	<unicode hex="006B"/>
	<advance width="605"/>
	<outline>
		<contour>
			<point x="185" y="162.75" type="line"/>
			<point x="185" y="304.5" type="line"/>
			<point x="221.75" y="314.75" type="line"/>
			<point x="324.5" y="460" type="line"/>
			<point x="499.75" y="460" type="line"/>
			<point x="352.75" y="263.25" type="line"/>
			<point x="508.5" y="0" type="line"/>
			<point x="337.25" y="0" type="line"/>
			<point x="235.25" y="176.75" type="line"/>
		</contour>
		<contour>
			<point x="45" y="0" type="line"/>
			<point x="45" y="700" type="line"/>
			<point x="185" y="700" type="line"/>
			<point x="185" y="0" type="line"/>
		</contour>
	</outline>
</glyph>
<glyph name="l" format="2">
	<unicode hex="006C"/>
	<advance width="260"/>
	<outline>
		<contour>
			<point x="200" y="0" type="line"/>
			<point x="60" y="0" type="line"/>
			<point x="60" y="700" type="line"/>
			<point x="200" y="700" type="line"/>
		</contour>
	</outline>
</glyph>
<glyph name="n" format="2">
	<unicode hex="006E"/>
	<advance width="571"/>
	<outline>
		<contour>
			<point x="180" y="278.25" type="line"/>
			<point x="180" y="377" type="line"/>
			<point x="200" y="377" type="line"/>
			<point x="242.25" y="441.25"/>
			<point x="295.5" y="473"/>
			<point x="358.25" y="473" type="curve" smooth="yes"/>
			<point x="461.5" y="473"/>
			<point x="510.75" y="418.25"/>
			<point x="510.75" y="303" type="curve" smooth="yes"/>
			<point x="510.75" y="0" type="line"/>
			<point x="370.75" y="0" type="line"/>
			<point x="370.75" y="260.25" type="line" smooth="yes"/>
			<point x="370.75" y="331.25"/>
			<point x="341.5" y="364"/>
			<point x="294.5" y="364" type="curve" smooth="yes"/>
			<point x="247.75" y="364"/>
			<point x="209" y="328"/>
			<point x="200" y="278.25" type="curve"/>
		</contour>
		<contour>
			<point x="60" y="0" type="line"/>
			<point x="60" y="460" type="line"/>
			<point x="184" y="460" type="line"/>
			<point x="196.75" y="377" type="line"/>
			<point x="200" y="377" type="line"/>
			<point x="200" y="0" type="line"/>
		</contour>
	</outline>
</glyph>
<glyph name="o" format="2">
	<unicode hex="006F"/>
	<advance width="563"/>
	<outline>
		<contour>
			<point x="178.75" y="230" type="curve" smooth="yes"/>
			<point x="178.75" y="121.25"/>
			<point x="223.5" y="70"/>
			<point x="281.25" y="70" type="curve" smooth="yes"/>
			<point x="339.5" y="70"/>
			<point x="383.75" y="117"/>
			<point x="383.75" y="230" type="curve" smooth="yes"/>
			<point x="383.75" y="338.75"/>
			<point x="339" y="390"/>
			<point x="281.25" y="390" type="curve" smooth="yes"/>
			<point x="223" y="390"/>
			<point x="178.75" y="343"/>
		</contour>
		<contour>
			<point x="31.25" y="230" type="curve" smooth="yes"/>
			<point x="31.25" y="371.75"/>
			<point x="115.5" y="473"/>
			<point x="281.25" y="473" type="curve" smooth="yes"/>
			<point x="448.5" y="473"/>
			<point x="531.25" y="372.25"/>
			<point x="531.25" y="230" type="curve" smooth="yes"/>
			<point x="531.25" y="88.25"/>
			<point x="447" y="-13"/>
			<point x="281.25" y="-13" type="curve" smooth="yes"/>
			<point x="114" y="-13"/>
			<point x="31.25" y="87.75"/>
		</contour>
	</outline>
	<anchor name="top" x="280.25" y="522.5"/>
</glyph>
<glyph name="p" format="2">
	<unicode hex="0070"/>
	<advance width="495"/>
	<outline>
		<contour>
			<point x="128.75" y="231.5" type="curve" smooth="yes"/>
			<point x="128.75" y="226" type="line" smooth="yes"/>
			<point x="128.75" y="123"/>
			<point x="179.75" y="55"/>
			<point x="248.75" y="55" type="curve" smooth="yes"/>
			<point x="341.75" y="55"/>
			<point x="379.75" y="123"/>
			<point x="379.75" y="231" type="curve" smooth="yes"/>
			<point x="379.75" y="306"/>
			<point x="360.75" y="405"/>
			<point x="248.75" y="405" type="curve" smooth="yes"/>
			<point x="165.75" y="405"/>
			<point x="128.75" y="315.5"/>
		</contour>
		<contour>
			<point x="48.75" y="-200" type="line"/>
			<point x="48.75" y="460" type="line"/>
			<point x="108.75" y="460" type="line"/>
			<point x="128" y="379.5" type="line"/>
			<point x="158.5" y="436"/>
			<point x="200.5" y="470"/>
			<point x="273.75" y="470" type="curve" smooth="yes"/>
			<point x="398.75" y="470"/>
			<point x="459.75" y="350"/>
			<point x="459.75" y="231" type="curve" smooth="yes"/>
			<point x="459.75" y="111"/>
			<point x="395.75" y="-10"/>
			<point x="269.75" y="-10" type="curve" smooth="yes"/>
			<point x="199.25" y="-10"/>
			<point x="157.75" y="20.25"/>
			<point x="128.75" y="71.75" type="curve"/>
			<point x="128.75" y="-200" type="line"/>
		</contour>
	</outline>
</glyph>
<glyph name="v" format="2">
	<unicode hex="0076"/>
	<advance width="437"/>
	<outline>
		<contour>
			<point x="156" y="0" type="line"/>
			<point x="15" y="460" type="line"/>
			<point x="95" y="460" type="line"/>
			<point x="215" y="65" type="line"/>
			<point x="342" y="460" type="line"/>
			<point x="422" y="460" type="line"/>
			<point x="266" y="0" type="line"/>
		</contour>
	</outline>
</glyph>
<glyph name="dieresis" format="2">
	<unicode hex="00A8"/>
	<advance width="329"/>
	<outline>
		<contour>
			<point x="117.5" y="520" type="line"/>
			<point x="52.5" y="520" type="line"/>
			<point x="52.5" y="600" type="line"/>
			<point x="117.5" y="600" type="line"/>
		</contour>
		<contour>
			<point x="276" y="520" type="line"/>
			<point x="211" y="520" type="line"/>
			<point x="211" y="600" type="line"/>
			<point x="276" y="600" type="line"/>
		</contour>
	</outline>
</glyph>
<glyph name="acute" format="2">
	<unicode hex="00B4"/>
	<advance width="328"/>
	<outline>
		<contour>
			<point x="193.5" y="497.5" type="line"/>
			<point x="55" y="497.5" type="line"/>
			<point x="120" y="700" type="line"/>
			<point x="274.5" y="700" type="line"/>
		</contour>
	</outline>
</glyph>
<glyph name="ordmasculine" format="2">
	<unicode hex="00BA"/>
	<advance width="325"/>
	<outline>
		<contour>
			<point x="20" y="482" type="curve" smooth="yes"/>
			<point x="20" y="555"/>
			<point x="53" y="648"/>
			<point x="162" y="648" type="curve" smooth="yes"/>
			<point x="273" y="648"/>
			<point x="305" y="550"/>
			<point x="305" y="485" type="curve" smooth="yes"/>
			<point x="305" y="418"/>
			<point x="272" y="321"/>
			<point x="163" y="321" type="curve" smooth="yes"/>
			<point x="68" y="321"/>
			<point x="20" y="395"/>
		</contour>
		<contour>
			<point x="85" y="484" type="curve" smooth="yes"/>
			<point x="85" y="467"/>
			<point x="85" y="379"/>
			<point x="162" y="379" type="curve" smooth="yes"/>
			<point x="240" y="379"/>
			<point x="240" y="461"/>
			<point x="240" y="487" type="curve" smooth="yes"/>
			<point x="240" y="502"/>
			<point x="240" y="590"/>
			<point x="162" y="590" type="curve" smooth="yes"/>
			<point x="88" y="590"/>
			<point x="85" y="514"/>
		</contour>
	</outline>
</glyph>
<glyph name="Aring" format="2">
	<unicode hex="00C5"/>
	<advance width="608"/>
	<outline>
		<contour>
			<point x="368" y="288.75" type="line"/>
			<point x="303.75" y="493.25" type="line"/>
			<point x="239.5" y="288.75" type="line"/>
		</contour>
		<contour>
			<point x="272.75" y="859" type="curve" smooth="yes"/>
			<point x="272.75" y="842"/>
			<point x="286.75" y="828"/>
			<point x="303.75" y="828" type="curve" smooth="yes"/>
			<point x="320.75" y="828"/>
			<point x="334.75" y="842"/>
			<point x="334.75" y="859" type="curve" smooth="yes"/>
			<point x="334.75" y="876"/>
			<point x="320.75" y="890"/>
			<point x="303.75" y="890" type="curve" smooth="yes"/>
			<point x="286.75" y="890"/>
			<point x="272.75" y="876"/>
		</contour>
		<contour>
			<point x="457" y="0" type="line"/>
			<point x="410.75" y="148.75" type="line"/>
			<point x="196.75" y="148.75" type="line"/>
			<point x="150.5" y="0" type="line"/>
			<point x="10" y="0" type="line"/>
			<point x="220.75" y="680" type="line"/>
			<point x="385.25" y="680" type="line"/>
			<point x="597.5" y="0" type="line"/>
		</contour>
		<contour>
			<point x="225.75" y="859" type="curve" smooth="yes"/>
			<point x="225.75" y="902"/>
			<point x="260.75" y="937"/>
			<point x="303.75" y="937" type="curve" smooth="yes"/>
			<point x="346.75" y="937"/>
			<point x="381.75" y="902"/>
			<point x="381.75" y="859" type="curve" smooth="yes"/>
			<point x="381.75" y="816"/>
			<point x="346.75" y="781"/>
			<point x="303.75" y="781" type="curve" smooth="yes"/>
			<point x="260.75" y="781"/>
			<point x="225.75" y="816"/>
		</contour>
	</outline>
</glyph>
<glyph name="Ccedilla" format="2">
	<unicode hex="00C7"/>
	<advance width="660"/>
	<outline>
		<contour>
			<point x="245.5" y="-193" type="curve"/>
			<point x="245.5" y="-164" type="line"/>
			<point x="258.5" y="-167"/>
			<point x="279.5" y="-170"/>
			<point x="299.5" y="-170" type="curve" smooth="yes"/>
			<point x="340.5" y="-170"/>
			<point x="358.5" y="-148"/>
			<point x="358.5" y="-118" type="curve" smooth="yes"/>
			<point x="358.5" y="-82"/>
			<point x="309.5" y="-70"/>
			<point x="279.5" y="-67" type="curve"/>
			<point x="307.25" y="-8.25" type="line"/>
			<point x="138" y="9.75"/>
			<point x="42.5" y="133.75"/>
			<point x="42.5" y="340" type="curve" smooth="yes"/>
			<point x="42.5" y="562.75"/>
			<point x="154.5" y="690"/>
			<point x="350.5" y="690" type="curve" smooth="yes"/>
			<point x="494.5" y="690"/>
			<point x="593.75" y="597"/>
			<point x="617.5" y="446.5" type="curve"/>
			<point x="492.5" y="446.5" type="line"/>
			<point x="476.5" y="523.75"/>
			<point x="423.25" y="565"/>
			<point x="350.5" y="565" type="curve" smooth="yes"/>
			<point x="247.75" y="565"/>
			<point x="183" y="477.25"/>
			<point x="183" y="340" type="curve" smooth="yes"/>
			<point x="183" y="202.75"/>
			<point x="247.75" y="115"/>
			<point x="350.5" y="115" type="curve" smooth="yes"/>
			<point x="418" y="115"/>
			<point x="475" y="154.5"/>
			<point x="488.75" y="214" type="curve"/>
			<point x="613.75" y="214" type="line"/>
			<point x="592.75" y="83.5"/>
			<point x="497" y="-3"/>
			<point x="366.75" y="-9.5" type="curve"/>
			<point x="348.5" y="-46" type="line"/>
			<point x="371.5" y="-54"/>
			<point x="415.5" y="-70"/>
			<point x="415.5" y="-123" type="curve" smooth="yes"/>
			<point x="415.5" y="-177"/>
			<point x="370.5" y="-209"/>
			<point x="315.5" y="-209" type="curve" smooth="yes"/>
			<point x="282.5" y="-209"/>
			<point x="259.5" y="-200"/>
		</contour>
	</outline>
</glyph>
<glyph name="Ntilde" format="2">
	<unicode hex="00D1"/>
	<advance width="690"/>
	<outline>
		<contour>
			<point x="203" y="385" type="curve" smooth="yes"/>
			<point x="203" y="0" type="line"/>
			<point x="62.5" y="0" type="line"/>
			<point x="62.5" y="680" type="line"/>
			<point x="218.5" y="680" type="line"/>
			<point x="489.75" y="228.25" type="line"/>
			<point x="487" y="253.75"/>
			<point x="487" y="277.25"/>
			<point x="487" y="295" type="curve" smooth="yes"/>
			<point x="487" y="680" type="line"/>
			<point x="627.5" y="680" type="line"/>
			<point x="627.5" y="0" type="line"/>
			<point x="471.5" y="0" type="line"/>
			<point x="200.25" y="451.75" type="line"/>
			<point x="203" y="426.25"/>
			<point x="203" y="402.75"/>
		</contour>
		<contour>
			<point x="279" y="760" type="curve"/>
			<point x="229" y="760" type="line"/>
			<point x="243" y="847"/>
			<point x="279" y="880"/>
			<point name=".hr01" x="319" y="880" type="curve" smooth="yes"/>
			<point x="344" y="880"/>
			<point x="366" y="870"/>
			<point x="388" y="859" type="curve"/>
			<point x="404" y="850"/>
			<point x="425" y="840"/>
			<point name=".hr02" x="445" y="840" type="curve" smooth="yes"/>
			<point x="465" y="840"/>
			<point x="480" y="852"/>
			<point x="485" y="880" type="curve"/>
			<point name=".hr03" x="535" y="880" type="line"/>
			<point x="521" y="793"/>
			<point x="485" y="760"/>
			<point name=".hr04" x="445" y="760" type="curve" smooth="yes"/>
			<point x="420" y="760"/>
			<point x="399" y="769"/>
			<point x="378" y="780" type="curve" smooth="yes"/>
			<point x="361" y="789"/>
			<point x="339" y="800"/>
			<point name=".hr05" x="319" y="800" type="curve" smooth="yes"/>
			<point x="299" y="800"/>
			<point x="284" y="788"/>
		</contour>
	</outline>
</glyph>
<glyph name="ucircumflex" format="2">
	<unicode hex="00FB"/>
	<advance width="478"/>
	<outline>
		<contour>
			<point x="354" y="154" type="curve"/>
			<point x="354" y="460" type="line"/>
			<point x="433" y="460" type="line"/>
			<point x="433" y="0" type="line"/>
			<point x="374" y="0" type="line"/>
			<point x="357" y="83" type="line"/>
			<point x="323" y="36"/>
			<point x="275" y="-10"/>
			<point x="200" y="-10" type="curve" smooth="yes"/>
			<point x="51" y="-10"/>
			<point x="45" y="98"/>
			<point x="45" y="165" type="curve" smooth="yes"/>
			<point x="45" y="460" type="line"/>
			<point x="125" y="460" type="line"/>
			<point x="125" y="165" type="line" smooth="yes"/>
			<point x="125" y="121"/>
			<point x="134" y="55"/>
			<point x="222" y="55" type="curve" smooth="yes"/>
			<point x="266" y="55"/>
			<point x="330" y="90"/>
		</contour>
		<contour>
			<point x="239" y="621.5" type="line"/>
			<point x="152" y="520" type="line"/>
			<point x="76.5" y="520" type="line"/>
			<point x="181.5" y="695" type="line"/>
			<point x="296.5" y="695" type="line"/>
			<point x="401.5" y="520" type="line"/>
			<point x="326" y="520" type="line"/>
		</contour>
	</outline>
</glyph>
<glyph name="ydieresis" format="2">
	<unicode hex="00FF"/>
	<advance width="460"/>
	<outline>
		<contour>
			<point x="30" y="460" type="curve"/>
			<point x="110" y="460" type="line"/>
			<point x="137" y="398"/>
			<point x="216" y="219"/>
			<point x="239" y="98" type="curve"/>
			<point x="354" y="460" type="line"/>
			<point x="430" y="460" type="line"/>
			<point x="258" y="-49" type="line" smooth="yes"/>
			<point x="252" y="-67"/>
			<point x="225" y="-200"/>
			<point x="150" y="-200" type="curve" smooth="yes"/>
			<point x="108" y="-200"/>
			<point x="89" y="-198"/>
			<point x="58" y="-190" type="curve"/>
			<point x="58" y="-120" type="line"/>
			<point x="78" y="-129"/>
			<point x="94" y="-135"/>
			<point x="116" y="-135" type="curve" smooth="yes"/>
			<point x="122" y="-135" type="line" smooth="yes"/>
			<point x="163" y="-135"/>
			<point x="187" y="-54"/>
			<point x="198" y="-12" type="curve"/>
			<point x="172" y="145"/>
			<point x="70" y="374"/>
		</contour>
		<contour>
			<point x="191" y="520" type="line"/>
			<point x="111" y="520" type="line"/>
			<point x="111" y="600" type="line"/>
			<point x="191" y="600" type="line"/>
		</contour>
		<contour>
			<point x="348" y="520" type="line"/>
			<point x="268" y="520" type="line"/>
			<point x="268" y="600" type="line"/>
			<point x="348" y="600" type="line"/>
		</contour>
	</outline>
</glyph>
<glyph name="Abreve" format="2">
	<unicode hex="0102"/>
	<advance width="570"/>
	<outline>
		<contour>
			<point x="343" y="288.75" type="line"/>
			<point x="278.75" y="493.25" type="line"/>
			<point x="214.5" y="288.75" type="line"/>
		</contour>
		<contour>
			<point x="432" y="0" type="line"/>
			<point x="385.75" y="148.75" type="line"/>
			<point x="171.75" y="148.75" type="line"/>
			<point x="125.5" y="0" type="line"/>
			<point x="-15" y="0" type="line"/>
			<point x="195.75" y="680" type="line"/>
			<point x="360.25" y="680" type="line"/>
			<point x="572.5" y="0" type="line"/>
		</contour>
		<contour>
			<point x="130" y="890" type="curve"/>
			<point x="210" y="890" type="line"/>
			<point x="210" y="830"/>
			<point x="250" y="810"/>
			<point x="285" y="810" type="curve" smooth="yes"/>
			<point x="320" y="810"/>
			<point x="360" y="830"/>
			<point x="360" y="890" type="curve"/>
			<point x="440" y="890" type="line"/>
			<point x="440" y="790"/>
			<point x="365" y="750"/>
			<point x="285" y="750" type="curve" smooth="yes"/>
			<point x="205" y="750"/>
			<point x="130" y="790"/>
		</contour>
	</outline>
</glyph>
<glyph name="Cacute" format="2">
	<unicode hex="0106"/>
	<advance width="660"/>
	<outline>
		<contour>
			<point x="350.5" y="565" type="curve" smooth="yes"/>
			<point x="247.75" y="565"/>
			<point x="183" y="477.25"/>
			<point x="183" y="340" type="curve" smooth="yes"/>
			<point x="183" y="202.75"/>
			<point x="247.75" y="115"/>
			<point x="350.5" y="115" type="curve" smooth="yes"/>
			<point x="418" y="115"/>
			<point x="475" y="154.5"/>
			<point x="488.75" y="214" type="curve"/>
			<point x="613.75" y="214" type="line"/>
			<point x="591.5" y="78.25"/>
			<point x="488.75" y="-10"/>
			<point x="350.5" y="-10" type="curve" smooth="yes"/>
			<point x="154.5" y="-10"/>
			<point x="42.5" y="117.25"/>
			<point x="42.5" y="340" type="curve" smooth="yes"/>
			<point x="42.5" y="562.75"/>
			<point x="154.5" y="690"/>
			<point x="350.5" y="690" type="curve" smooth="yes"/>
			<point x="494.5" y="690"/>
			<point x="593.75" y="597"/>
			<point x="617.5" y="446.5" type="curve"/>
			<point x="492.5" y="446.5" type="line"/>
			<point x="476.5" y="523.75"/>
			<point x="423.25" y="565"/>
		</contour>
		<contour>
			<point x="490.75" y="912.5" type="line"/>
			<point x="411.75" y="710" type="line"/>
			<point x="273.25" y="710" type="line"/>
			<point x="338.25" y="912.5" type="line"/>
		</contour>
	</outline>
</glyph>
<glyph name="Ccircumflex" format="2">
	<unicode hex="0108"/>
	<advance width="660"/>
	<outline>
		<contour>
			<point x="350.5" y="565" type="curve" smooth="yes"/>
			<point x="247.75" y="565"/>
			<point x="183" y="477.25"/>
			<point x="183" y="340" type="curve" smooth="yes"/>
			<point x="183" y="202.75"/>
			<point x="247.75" y="115"/>
			<point x="350.5" y="115" type="curve" smooth="yes"/>
			<point x="418" y="115"/>
			<point x="475" y="154.5"/>
			<point x="488.75" y="214" type="curve"/>
			<point x="613.75" y="214" type="line"/>
			<point x="591.5" y="78.25"/>
			<point x="488.75" y="-10"/>
			<point x="350.5" y="-10" type="curve" smooth="yes"/>
			<point x="154.5" y="-10"/>
			<point x="42.5" y="117.25"/>
			<point x="42.5" y="340" type="curve" smooth="yes"/>
			<point x="42.5" y="562.75"/>
			<point x="154.5" y="690"/>
			<point x="350.5" y="690" type="curve" smooth="yes"/>
			<point x="494.5" y="690"/>
			<point x="593.75" y="597"/>
			<point x="617.5" y="446.5" type="curve"/>
			<point x="492.5" y="446.5" type="line"/>
			<point x="476.5" y="523.75"/>
			<point x="423.25" y="565"/>
		</contour>
		<contour>
			<point x="342.5" y="841.5" type="line"/>
			<point x="255.5" y="740" type="line"/>
			<point x="180" y="740" type="line"/>
			<point x="285" y="915" type="line"/>
			<point x="400" y="915" type="line"/>
			<point x="505" y="740" type="line"/>
			<point x="429.5" y="740" type="line"/>
		</contour>
	</outline>
</glyph>
<glyph name="ccircumflex" format="2">
	<unicode hex="0109"/>
	<advance width="510"/>
	<outline>
		<contour>
			<point x="50" y="230" type="curve" smooth="yes"/>
			<point x="50" y="348"/>
			<point x="95" y="470"/>
			<point x="259" y="470" type="curve" smooth="yes"/>
			<point x="378" y="470"/>
			<point x="437" y="405"/>
			<point x="459" y="320" type="curve"/>
			<point x="370" y="320" type="line"/>
			<point x="367" y="335"/>
			<point x="338" y="402"/>
			<point x="259" y="402" type="curve" smooth="yes"/>
			<point x="168" y="402"/>
			<point x="134" y="335"/>
			<point x="134" y="230" type="curve" smooth="yes"/>
			<point x="134" y="147"/>
			<point x="160" y="58"/>
			<point x="259" y="58" type="curve" smooth="yes"/>
			<point x="336" y="58"/>
			<point x="365" y="118"/>
			<point x="372" y="150" type="curve"/>
			<point x="460" y="150" type="line"/>
			<point x="440" y="79"/>
			<point x="387" y="-10"/>
			<point x="259" y="-10" type="curve" smooth="yes"/>
			<point x="94" y="-10"/>
			<point x="50" y="122"/>
		</contour>
		<contour>
			<point x="255" y="621.5" type="line"/>
			<point x="168" y="520" type="line"/>
			<point x="92.5" y="520" type="line"/>
			<point x="197.5" y="695" type="line"/>
			<point x="312.5" y="695" type="line"/>
			<point x="417.5" y="520" type="line"/>
			<point x="342" y="520" type="line"/>
		</contour>
	</outline>
</glyph>
<glyph name="Cdotaccent" format="2">
	<unicode hex="010A"/>
	<advance width="660"/>
	<outline>
		<contour>
			<point x="350.5" y="565" type="curve" smooth="yes"/>
			<point x="247.75" y="565"/>
			<point x="183" y="477.25"/>
			<point x="183" y="340" type="curve" smooth="yes"/>
			<point x="183" y="202.75"/>
			<point x="247.75" y="115"/>
			<point x="350.5" y="115" type="curve" smooth="yes"/>
			<point x="418" y="115"/>
			<point x="475" y="154.5"/>
			<point x="488.75" y="214" type="curve"/>
			<point x="613.75" y="214" type="line"/>
			<point x="591.5" y="78.25"/>
			<point x="488.75" y="-10"/>
			<point x="350.5" y="-10" type="curve" smooth="yes"/>
			<point x="154.5" y="-10"/>
			<point x="42.5" y="117.25"/>
			<point x="42.5" y="340" type="curve" smooth="yes"/>
			<point x="42.5" y="562.75"/>
			<point x="154.5" y="690"/>
			<point x="350.5" y="690" type="curve" smooth="yes"/>
			<point x="494.5" y="690"/>
			<point x="593.75" y="597"/>
			<point x="617.5" y="446.5" type="curve"/>
			<point x="492.5" y="446.5" type="line"/>
			<point x="476.5" y="523.75"/>
			<point x="423.25" y="565"/>
		</contour>
		<contour>
			<point x="412.5" y="865" type="line"/>
			<point x="412.5" y="740" type="line"/>
			<point x="272.5" y="740" type="line"/>
			<point x="272.5" y="865" type="line"/>
		</contour>
	</outline>
</glyph>
<glyph name="cdotaccent" format="2">
	<unicode hex="010B"/>
	<advance width="510"/>
	<outline>
		<contour>
			<point x="362.5" y="560" type="line"/>
			<point x="222.5" y="560" type="line"/>
			<point x="222.5" y="685" type="line"/>
			<point x="362.5" y="685" type="line"/>
		</contour>
		<contour>
			<point x="50" y="230" type="curve" smooth="yes"/>
			<point x="50" y="348"/>
			<point x="95" y="470"/>
			<point x="259" y="470" type="curve" smooth="yes"/>
			<point x="378" y="470"/>
			<point x="437" y="405"/>
			<point x="459" y="320" type="curve"/>
			<point x="370" y="320" type="line"/>
			<point x="367" y="335"/>
			<point x="338" y="402"/>
			<point x="259" y="402" type="curve" smooth="yes"/>
			<point x="168" y="402"/>
			<point x="134" y="335"/>
			<point x="134" y="230" type="curve" smooth="yes"/>
			<point x="134" y="147"/>
			<point x="160" y="58"/>
			<point x="259" y="58" type="curve" smooth="yes"/>
			<point x="336" y="58"/>
			<point x="365" y="118"/>
			<point x="372" y="150" type="curve"/>
			<point x="460" y="150" type="line"/>
			<point x="440" y="79"/>
			<point x="387" y="-10"/>
			<point x="259" y="-10" type="curve" smooth="yes"/>
			<point x="94" y="-10"/>
			<point x="50" y="122"/>
		</contour>
	</outline>
</glyph>
<glyph name="Ccaron" format="2">
	<unicode hex="010C"/>
	<advance width="660"/>
	<outline>
		<contour>
			<point x="350.5" y="565" type="curve" smooth="yes"/>
			<point x="247.75" y="565"/>
			<point x="183" y="477.25"/>
			<point x="183" y="340" type="curve" smooth="yes"/>
			<point x="183" y="202.75"/>
			<point x="247.75" y="115"/>
			<point x="350.5" y="115" type="curve" smooth="yes"/>
			<point x="418" y="115"/>
			<point x="475" y="154.5"/>
			<point x="488.75" y="214" type="curve"/>
			<point x="613.75" y="214" type="line"/>
			<point x="591.5" y="78.25"/>
			<point x="488.75" y="-10"/>
			<point x="350.5" y="-10" type="curve" smooth="yes"/>
			<point x="154.5" y="-10"/>
			<point x="42.5" y="117.25"/>
			<point x="42.5" y="340" type="curve" smooth="yes"/>
			<point x="42.5" y="562.75"/>
			<point x="154.5" y="690"/>
			<point x="350.5" y="690" type="curve" smooth="yes"/>
			<point x="494.5" y="690"/>
			<point x="593.75" y="597"/>
			<point x="617.5" y="446.5" type="curve"/>
			<point x="492.5" y="446.5" type="line"/>
			<point x="476.5" y="523.75"/>
			<point x="423.25" y="565"/>
		</contour>
		<contour>
			<point x="382.5" y="740" type="line"/>
			<point x="302.5" y="740" type="line"/>
			<point x="202.5" y="900" type="line"/>
			<point x="266.5" y="900" type="line"/>
			<point x="342.5" y="815" type="line"/>
			<point x="418.5" y="900" type="line"/>
			<point x="482.5" y="900" type="line"/>
		</contour>
	</outline>
</glyph>
<glyph name="Dcaron" format="2">
	<unicode hex="010E"/>
	<advance width="638"/>
	<outline>
		<contour>
			<point x="203" y="555" type="line"/>
			<point x="203" y="125" type="line"/>
			<point x="303" y="125" type="line" smooth="yes"/>
			<point x="395" y="125"/>
			<point x="454.75" y="214"/>
			<point x="454.75" y="340" type="curve" smooth="yes"/>
			<point x="454.75" y="493"/>
			<point x="397" y="555"/>
			<point x="303" y="555" type="curve" smooth="yes"/>
		</contour>
		<contour>
			<point x="62.5" y="680" type="line"/>
			<point x="303" y="680" type="line" smooth="yes"/>
			<point x="493" y="680"/>
			<point x="595" y="556.5"/>
			<point x="595" y="340" type="curve" smooth="yes"/>
			<point x="595" y="121.25"/>
			<point x="493.75" y="0"/>
			<point x="303" y="0" type="curve" smooth="yes"/>
			<point x="62.5" y="0" type="line"/>
		</contour>
		<contour>
			<point x="358.75" y="760" type="line"/>
			<point x="278.75" y="760" type="line"/>
			<point x="178.75" y="920" type="line"/>
			<point x="242.75" y="920" type="line"/>
			<point x="318.75" y="835" type="line"/>
			<point x="394.75" y="920" type="line"/>
			<point x="458.75" y="920" type="line"/>
		</contour>
	</outline>
</glyph>
<glyph name="Emacron" format="2">
	<unicode hex="0112"/>
	<advance width="510"/>
	<outline>
		<contour>
			<point x="420" y="287.5" type="line"/>
			<point x="203" y="287.5" type="line"/>
			<point x="203" y="117.5" type="line"/>
			<point x="460" y="117.5" type="line"/>
			<point x="460" y="0" type="line"/>
			<point x="62.5" y="0" type="line"/>
			<point x="62.5" y="680" type="line"/>
			<point x="460" y="680" type="line"/>
			<point x="460" y="562.5" type="line"/>
			<point x="203" y="562.5" type="line"/>
			<point x="203" y="405" type="line"/>
			<point x="420" y="405" type="line"/>
		</contour>
		<contour>
			<point name=".hr01" x="390" y="860" type="line"/>
			<point x="390" y="790" type="line"/>
			<point x="120" y="790" type="line"/>
			<point x="120" y="860" type="line"/>
		</contour>
	</outline>
</glyph>
<glyph name="Ebreve" format="2">
	<unicode hex="0114"/>
	<advance width="510"/>
	<outline>
		<contour>
			<point x="420" y="287.5" type="line"/>
			<point x="203" y="287.5" type="line"/>
			<point x="203" y="117.5" type="line"/>
			<point x="460" y="117.5" type="line"/>
			<point x="460" y="0" type="line"/>
			<point x="62.5" y="0" type="line"/>
			<point x="62.5" y="680" type="line"/>
			<point x="460" y="680" type="line"/>
			<point x="460" y="562.5" type="line"/>
			<point x="203" y="562.5" type="line"/>
			<point x="203" y="405" type="line"/>
			<point x="420" y="405" type="line"/>
		</contour>
		<contour>
			<point name=".hr01" x="100" y="880" type="curve"/>
			<point x="180" y="880" type="line"/>
			<point x="180" y="820"/>
			<point x="220" y="800"/>
			<point x="255" y="800" type="curve" smooth="yes"/>
			<point x="290" y="800"/>
			<point x="330" y="820"/>
			<point x="330" y="880" type="curve"/>
			<point x="410" y="880" type="line"/>
			<point x="410" y="780"/>
			<point x="335" y="740"/>
			<point x="255" y="740" type="curve" smooth="yes"/>
			<point x="175" y="740"/>
			<point x="100" y="780"/>
		</contour>
	</outline>
</glyph>
<glyph name="Edotaccent" format="2">
	<unicode hex="0116"/>
	<advance width="510"/>
	<outline>
		<contour>
			<point x="420" y="287.5" type="line"/>
			<point x="203" y="287.5" type="line"/>
			<point x="203" y="117.5" type="line"/>
			<point x="460" y="117.5" type="line"/>
			<point x="460" y="0" type="line"/>
			<point x="62.5" y="0" type="line"/>
			<point x="62.5" y="680" type="line"/>
			<point x="460" y="680" type="line"/>
			<point x="460" y="562.5" type="line"/>
			<point x="203" y="562.5" type="line"/>
			<point x="203" y="405" type="line"/>
			<point x="420" y="405" type="line"/>
		</contour>
		<contour>
			<point name=".hr01" x="325" y="865" type="line"/>
			<point x="325" y="740" type="line"/>
			<point x="185" y="740" type="line"/>
			<point x="185" y="865" type="line"/>
		</contour>
	</outline>
</glyph>
<glyph name="edotaccent" format="2">
	<unicode hex="0117"/>
	<advance width="518"/>
	<outline>
		<contour>
			<point x="139" y="278" type="curve"/>
			<point x="379" y="278" type="line"/>
			<point x="379" y="278"/>
			<point x="371" y="402"/>
			<point x="259" y="402" type="curve" smooth="yes"/>
			<point x="147" y="402"/>
			<point x="139" y="278"/>
		</contour>
		<contour>
			<point x="50" y="240" type="curve" smooth="yes"/>
			<point x="50" y="360"/>
			<point x="119" y="470"/>
			<point x="259" y="470" type="curve" smooth="yes"/>
			<point x="399" y="470"/>
			<point x="468" y="360"/>
			<point x="468" y="240" type="curve" smooth="yes"/>
			<point x="468" y="210" type="line"/>
			<point x="134" y="210" type="line"/>
			<point x="134" y="140"/>
			<point x="179" y="58"/>
			<point x="259" y="58" type="curve" smooth="yes"/>
			<point x="329" y="58"/>
			<point x="365" y="98"/>
			<point x="375" y="142" type="curve"/>
			<point x="458" y="142" type="line"/>
			<point x="443" y="73"/>
			<point x="409" y="-10"/>
			<point x="259" y="-10" type="curve" smooth="yes"/>
			<point x="109" y="-10"/>
			<point x="50" y="120"/>
		</contour>
		<contour>
			<point x="367.5" y="685" type="line"/>
			<point x="367.5" y="560" type="line"/>
			<point x="227.5" y="560" type="line"/>
			<point x="227.5" y="685" type="line"/>
		</contour>
	</outline>
</glyph>
<glyph name="Ecaron" format="2">
	<unicode hex="011A"/>
	<advance width="510"/>
	<outline>
		<contour>
			<point x="420" y="287.5" type="line"/>
			<point x="203" y="287.5" type="line"/>
			<point x="203" y="117.5" type="line"/>
			<point x="460" y="117.5" type="line"/>
			<point x="460" y="0" type="line"/>
			<point x="62.5" y="0" type="line"/>
			<point x="62.5" y="680" type="line"/>
			<point x="460" y="680" type="line"/>
			<point x="460" y="562.5" type="line"/>
			<point x="203" y="562.5" type="line"/>
			<point x="203" y="405" type="line"/>
			<point x="420" y="405" type="line"/>
		</contour>
		<contour>
			<point x="295" y="740" type="line"/>
			<point x="215" y="740" type="line"/>
			<point x="115" y="900" type="line"/>
			<point x="179" y="900" type="line"/>
			<point x="255" y="815" type="line"/>
			<point x="331" y="900" type="line"/>
			<point x="395" y="900" type="line"/>
		</contour>
	</outline>
</glyph>
<glyph name="Gcircumflex" format="2">
	<unicode hex="011C"/>
	<advance width="662"/>
	<outline>
		<contour>
			<point x="350.5" y="565" type="curve" smooth="yes"/>
			<point x="247.75" y="565"/>
			<point x="183" y="477.25"/>
			<point x="183" y="340" type="curve" smooth="yes"/>
			<point x="183" y="202.75"/>
			<point x="247.75" y="115"/>
			<point x="350.5" y="115" type="curve" smooth="yes"/>
			<point x="411" y="115"/>
			<point x="464.75" y="147.25"/>
			<point x="491.5" y="196.75" type="curve"/>
			<point x="491.5" y="242.5" type="line"/>
			<point x="357.25" y="242.5" type="line"/>
			<point x="357.25" y="337.5" type="line"/>
			<point x="609.5" y="337.5" type="line"/>
			<point x="609.5" y="0" type="line"/>
			<point x="491.5" y="0" type="line"/>
			<point x="491.5" y="45.5" type="line"/>
			<point x="461.25" y="14"/>
			<point x="401.25" y="-10"/>
			<point x="350.5" y="-10" type="curve" smooth="yes"/>
			<point x="154.5" y="-10"/>
			<point x="42.5" y="117.25"/>
			<point x="42.5" y="340" type="curve" smooth="yes"/>
			<point x="42.5" y="562.75"/>
			<point x="154.5" y="690"/>
			<point x="350.5" y="690" type="curve" smooth="yes"/>
			<point x="494.5" y="690"/>
			<point x="593.75" y="597"/>
			<point x="617.5" y="446.5" type="curve"/>
			<point x="492.5" y="446.5" type="line"/>
			<point x="476.5" y="523.75"/>
			<point x="423.25" y="565"/>
		</contour>
		<contour>
			<point x="329.5" y="841.5" type="line"/>
			<point x="242.5" y="740" type="line"/>
			<point x="167" y="740" type="line"/>
			<point x="272" y="915" type="line"/>
			<point x="387" y="915" type="line"/>
			<point x="492" y="740" type="line"/>
			<point x="416.5" y="740" type="line"/>
		</contour>
	</outline>
</glyph>
<glyph name="gcircumflex" format="2">
	<unicode hex="011D"/>
	<advance width="492"/>
	<outline>
		<contour>
			<point x="115" y="230" type="curve" smooth="yes"/>
			<point x="115" y="159"/>
			<point x="141" y="65"/>
			<point x="246" y="65" type="curve" smooth="yes"/>
			<point x="331" y="65"/>
			<point x="367" y="143"/>
			<point x="367" y="210" type="curve" smooth="yes"/>
			<point x="367" y="245" type="line" smooth="yes"/>
			<point x="367" y="347"/>
			<point x="311" y="405"/>
			<point x="246" y="405" type="curve" smooth="yes"/>
			<point x="156" y="405"/>
			<point x="115" y="337"/>
		</contour>
		<contour>
			<point x="35" y="230" type="curve" smooth="yes"/>
			<point x="35" y="355"/>
			<point x="96" y="470"/>
			<point x="226" y="470" type="curve" smooth="yes"/>
			<point x="284" y="470"/>
			<point x="344" y="439"/>
			<point x="367" y="388" type="curve"/>
			<point x="387" y="459" type="line"/>
			<point x="447" y="459" type="line"/>
			<point x="447" y="27" type="line" smooth="yes"/>
			<point x="447" y="-146"/>
			<point x="362" y="-200"/>
			<point x="244" y="-200" type="curve" smooth="yes"/>
			<point x="114" y="-200"/>
			<point x="62" y="-106"/>
			<point x="52" y="-54" type="curve"/>
			<point x="135" y="-54" type="line"/>
			<point x="153" y="-113"/>
			<point x="206" y="-134"/>
			<point x="244" y="-134" type="curve" smooth="yes"/>
			<point x="316" y="-134"/>
			<point x="367" y="-91"/>
			<point x="367" y="27" type="curve" smooth="yes"/>
			<point x="367" y="89" type="line"/>
			<point x="339" y="33"/>
			<point x="286" y="-1"/>
			<point x="227" y="-1" type="curve" smooth="yes"/>
			<point x="56" y="-1"/>
			<point x="35" y="144"/>
		</contour>
		<contour>
			<point x="241" y="621.5" type="line"/>
			<point x="154" y="520" type="line"/>
			<point x="78.5" y="520" type="line"/>
			<point x="183.5" y="695" type="line"/>
			<point x="298.5" y="695" type="line"/>
			<point x="403.5" y="520" type="line"/>
			<point x="328" y="520" type="line"/>
		</contour>
	</outline>
</glyph>
<glyph name="Gbreve" format="2">
	<unicode hex="011E"/>
	<advance width="662"/>
	<outline>
		<contour>
			<point x="350.5" y="565" type="curve" smooth="yes"/>
			<point x="247.75" y="565"/>
			<point x="183" y="477.25"/>
			<point x="183" y="340" type="curve" smooth="yes"/>
			<point x="183" y="202.75"/>
			<point x="247.75" y="115"/>
			<point x="350.5" y="115" type="curve" smooth="yes"/>
			<point x="411" y="115"/>
			<point x="464.75" y="147.25"/>
			<point x="491.5" y="196.75" type="curve"/>
			<point x="491.5" y="242.5" type="line"/>
			<point x="357.25" y="242.5" type="line"/>
			<point x="357.25" y="337.5" type="line"/>
			<point x="609.5" y="337.5" type="line"/>
			<point x="609.5" y="0" type="line"/>
			<point x="491.5" y="0" type="line"/>
			<point x="491.5" y="45.5" type="line"/>
			<point x="461.25" y="14"/>
			<point x="401.25" y="-10"/>
			<point x="350.5" y="-10" type="curve" smooth="yes"/>
			<point x="154.5" y="-10"/>
			<point x="42.5" y="117.25"/>
			<point x="42.5" y="340" type="curve" smooth="yes"/>
			<point x="42.5" y="562.75"/>
			<point x="154.5" y="690"/>
			<point x="350.5" y="690" type="curve" smooth="yes"/>
			<point x="494.5" y="690"/>
			<point x="593.75" y="597"/>
			<point x="617.5" y="446.5" type="curve"/>
			<point x="492.5" y="446.5" type="line"/>
			<point x="476.5" y="523.75"/>
			<point x="423.25" y="565"/>
		</contour>
		<contour>
			<point x="174.5" y="880" type="curve"/>
			<point name=".hr01" x="254.5" y="880" type="line"/>
			<point x="254.5" y="820"/>
			<point x="294.5" y="800"/>
			<point x="329.5" y="800" type="curve" smooth="yes"/>
			<point x="364.5" y="800"/>
			<point x="404.5" y="820"/>
			<point x="404.5" y="880" type="curve"/>
			<point x="484.5" y="880" type="line"/>
			<point x="484.5" y="780"/>
			<point x="409.5" y="740"/>
			<point x="329.5" y="740" type="curve" smooth="yes"/>
			<point x="249.5" y="740"/>
			<point x="174.5" y="780"/>
		</contour>
	</outline>
</glyph>
<glyph name="Gdotaccent" format="2">
	<unicode hex="0120"/>
	<advance width="662"/>
	<outline>
		<contour>
			<point x="350.5" y="565" type="curve" smooth="yes"/>
			<point x="247.75" y="565"/>
			<point x="183" y="477.25"/>
			<point x="183" y="340" type="curve" smooth="yes"/>
			<point x="183" y="202.75"/>
			<point x="247.75" y="115"/>
			<point x="350.5" y="115" type="curve" smooth="yes"/>
			<point x="411" y="115"/>
			<point x="464.75" y="147.25"/>
			<point x="491.5" y="196.75" type="curve"/>
			<point x="491.5" y="242.5" type="line"/>
			<point x="357.25" y="242.5" type="line"/>
			<point x="357.25" y="337.5" type="line"/>
			<point x="609.5" y="337.5" type="line"/>
			<point x="609.5" y="0" type="line"/>
			<point x="491.5" y="0" type="line"/>
			<point x="491.5" y="45.5" type="line"/>
			<point x="461.25" y="14"/>
			<point x="401.25" y="-10"/>
			<point x="350.5" y="-10" type="curve" smooth="yes"/>
			<point x="154.5" y="-10"/>
			<point x="42.5" y="117.25"/>
			<point x="42.5" y="340" type="curve" smooth="yes"/>
			<point x="42.5" y="562.75"/>
			<point x="154.5" y="690"/>
			<point x="350.5" y="690" type="curve" smooth="yes"/>
			<point x="494.5" y="690"/>
			<point x="593.75" y="597"/>
			<point x="617.5" y="446.5" type="curve"/>
			<point x="492.5" y="446.5" type="line"/>
			<point x="476.5" y="523.75"/>
			<point x="423.25" y="565"/>
		</contour>
		<contour>
			<point x="399.5" y="865" type="line"/>
			<point x="399.5" y="740" type="line"/>
			<point x="259.5" y="740" type="line"/>
			<point x="259.5" y="865" type="line"/>
		</contour>
	</outline>
</glyph>
<glyph name="uni0122" format="2">
	<unicode hex="0122"/>
	<advance width="662"/>
	<outline>
		<contour>
			<point x="350.5" y="565" type="curve" smooth="yes"/>
			<point x="247.75" y="565"/>
			<point x="183" y="477.25"/>
			<point x="183" y="340" type="curve" smooth="yes"/>
			<point x="183" y="202.75"/>
			<point x="247.75" y="115"/>
			<point x="350.5" y="115" type="curve" smooth="yes"/>
			<point x="411" y="115"/>
			<point x="464.75" y="147.25"/>
			<point x="491.5" y="196.75" type="curve"/>
			<point x="491.5" y="242.5" type="line"/>
			<point x="357.25" y="242.5" type="line"/>
			<point x="357.25" y="337.5" type="line"/>
			<point x="609.5" y="337.5" type="line"/>
			<point x="609.5" y="0" type="line"/>
			<point x="491.5" y="0" type="line"/>
			<point x="491.5" y="45.5" type="line"/>
			<point x="461.25" y="14"/>
			<point x="401.25" y="-10"/>
			<point x="350.5" y="-10" type="curve" smooth="yes"/>
			<point x="154.5" y="-10"/>
			<point x="42.5" y="117.25"/>
			<point x="42.5" y="340" type="curve" smooth="yes"/>
			<point x="42.5" y="562.75"/>
			<point x="154.5" y="690"/>
			<point x="350.5" y="690" type="curve" smooth="yes"/>
			<point x="494.5" y="690"/>
			<point x="593.75" y="597"/>
			<point x="617.5" y="446.5" type="curve"/>
			<point x="492.5" y="446.5" type="line"/>
			<point x="476.5" y="523.75"/>
			<point x="423.25" y="565"/>
		</contour>
		<contour>
			<point x="313.5" y="-140" type="line"/>
			<point x="291.5" y="-140" type="line"/>
			<point x="291.5" y="-60" type="line"/>
			<point x="371.5" y="-60" type="line"/>
			<point x="371.5" y="-140" type="line"/>
			<point x="325.5" y="-270" type="line"/>
			<point x="291.5" y="-270" type="line"/>
		</contour>
	</outline>
</glyph>
<glyph name="Hcircumflex" format="2">
	<unicode hex="0124"/>
	<advance width="646"/>
	<outline>
		<contour>
			<point x="583" y="680" type="line"/>
			<point x="583" y="0" type="line"/>
			<point x="442.5" y="0" type="line"/>
			<point x="442.5" y="277" type="line"/>
			<point x="203" y="277" type="line"/>
			<point x="203" y="0" type="line"/>
			<point x="62.5" y="0" type="line"/>
			<point x="62.5" y="680" type="line"/>
			<point x="203" y="680" type="line"/>
			<point x="203" y="402" type="line"/>
			<point x="442.5" y="402" type="line"/>
			<point x="442.5" y="680" type="line"/>
		</contour>
		<contour>
			<point x="322.75" y="861.5" type="line"/>
			<point x="235.75" y="760" type="line"/>
			<point x="160.25" y="760" type="line"/>
			<point x="265.25" y="935" type="line"/>
			<point x="380.25" y="935" type="line"/>
			<point x="485.25" y="760" type="line"/>
			<point x="409.75" y="760" type="line"/>
		</contour>
	</outline>
</glyph>
<glyph name="hbar" format="2">
	<unicode hex="0127"/>
	<advance width="478"/>
	<outline>
		<contour>
			<point x="45" y="530" type="line"/>
			<point x="15" y="530" type="line"/>
			<point x="15" y="610" type="line"/>
			<point x="45" y="610" type="line"/>
			<point name=".hr01" x="45" y="700" type="line"/>
			<point x="125" y="700" type="line"/>
			<point name=".hr02" x="125" y="610" type="line"/>
			<point x="305" y="610" type="line"/>
			<point x="305" y="530" type="line"/>
			<point x="125" y="530" type="line"/>
			<point x="125" y="380" type="line"/>
			<point x="163" y="422"/>
			<point x="230" y="470"/>
			<point x="295" y="470" type="curve" smooth="yes"/>
			<point x="413" y="470"/>
			<point x="433" y="384"/>
			<point x="433" y="304" type="curve" smooth="yes"/>
			<point x="433" y="0" type="line"/>
			<point x="353" y="0" type="line"/>
			<point x="353" y="271" type="line" smooth="yes"/>
			<point x="353" y="341"/>
			<point x="353" y="390"/>
			<point x="293" y="390" type="curve" smooth="yes"/>
			<point x="226" y="390"/>
			<point x="183" y="364"/>
			<point x="126" y="310" type="curve"/>
			<point x="126" y="207"/>
			<point x="125" y="103"/>
			<point x="125" y="0" type="curve"/>
			<point x="45" y="0" type="line"/>
		</contour>
	</outline>
</glyph>
<glyph name="Itilde" format="2">
	<unicode hex="0128"/>
	<advance width="266"/>
	<outline>
		<contour>
			<point x="203" y="0" type="line"/>
			<point x="62.5" y="0" type="line"/>
			<point x="62.5" y="680" type="line"/>
			<point x="203" y="680" type="line"/>
		</contour>
		<contour>
			<point x="29.75" y="760" type="curve"/>
			<point x="-20.25" y="760" type="line"/>
			<point x="-6.25" y="847"/>
			<point name=".hr01" x="29.75" y="880"/>
			<point x="69.75" y="880" type="curve" smooth="yes"/>
			<point x="94.75" y="880"/>
			<point x="116.75" y="870"/>
			<point x="138.75" y="859" type="curve"/>
			<point x="154.75" y="850"/>
			<point name=".hr02" x="175.75" y="840"/>
			<point x="195.75" y="840" type="curve" smooth="yes"/>
			<point x="215.75" y="840"/>
			<point x="230.75" y="852"/>
			<point name=".hr03" x="235.75" y="880" type="curve"/>
			<point x="285.75" y="880" type="line"/>
			<point x="271.75" y="793"/>
			<point name=".hr04" x="235.75" y="760"/>
			<point x="195.75" y="760" type="curve" smooth="yes"/>
			<point x="170.75" y="760"/>
			<point x="149.75" y="769"/>
			<point x="128.75" y="780" type="curve" smooth="yes"/>
			<point x="111.75" y="789"/>
			<point name=".hr05" x="89.75" y="800"/>
			<point x="69.75" y="800" type="curve" smooth="yes"/>
			<point x="49.75" y="800"/>
			<point x="34.75" y="788"/>
		</contour>
	</outline>
</glyph>
<glyph name="itilde" format="2">
	<unicode hex="0129"/>
	<advance width="280"/>
	<outline>
		<contour>
			<point x="37" y="540" type="curve"/>
			<point x="-13" y="540" type="line"/>
			<point x="1" y="627"/>
			<point name=".hr01" x="37" y="660"/>
			<point x="77" y="660" type="curve" smooth="yes"/>
			<point x="102" y="660"/>
			<point x="124" y="650"/>
			<point x="146" y="639" type="curve"/>
			<point x="162" y="630"/>
			<point name=".hr02" x="183" y="620"/>
			<point x="203" y="620" type="curve" smooth="yes"/>
			<point x="223" y="620"/>
			<point x="238" y="632"/>
			<point name=".hr03" x="243" y="660" type="curve"/>
			<point x="293" y="660" type="line"/>
			<point x="279" y="573"/>
			<point name=".hr04" x="243" y="540"/>
			<point x="203" y="540" type="curve" smooth="yes"/>
			<point x="178" y="540"/>
			<point x="157" y="549"/>
			<point x="136" y="560" type="curve" smooth="yes"/>
			<point x="119" y="569"/>
			<point name=".hr05" x="97" y="580"/>
			<point x="77" y="580" type="curve" smooth="yes"/>
			<point x="57" y="580"/>
			<point x="42" y="568"/>
		</contour>
		<contour>
			<point name=".hr06" x="240" y="0" type="line"/>
			<point x="100" y="0" type="line"/>
			<point x="100" y="460" type="line"/>
			<point x="240" y="460" type="line"/>
		</contour>
	</outline>
</glyph>
<glyph name="imacron" format="2">
	<unicode hex="012B"/>
	<advance width="280"/>
	<outline>
		<contour>
			<point x="275" y="570" type="line"/>
			<point x="5" y="570" type="line"/>
			<point x="5" y="640" type="line"/>
			<point x="275" y="640" type="line"/>
		</contour>
		<contour>
			<point x="240" y="0" type="line"/>
			<point x="100" y="0" type="line"/>
			<point x="100" y="460" type="line"/>
			<point x="240" y="460" type="line"/>
		</contour>
	</outline>
</glyph>
<glyph name="Ibreve" format="2">
	<unicode hex="012C"/>
	<advance width="266"/>
	<outline>
		<contour>
			<point x="203" y="0" type="line"/>
			<point x="62.5" y="0" type="line"/>
			<point x="62.5" y="680" type="line"/>
			<point x="203" y="680" type="line"/>
		</contour>
		<contour>
			<point x="-22.25" y="880" type="curve"/>
			<point x="57.75" y="880" type="line"/>
			<point x="57.75" y="820"/>
			<point x="97.75" y="800"/>
			<point x="132.75" y="800" type="curve" smooth="yes"/>
			<point x="167.75" y="800"/>
			<point x="207.75" y="820"/>
			<point x="207.75" y="880" type="curve"/>
			<point x="287.75" y="880" type="line"/>
			<point x="287.75" y="780"/>
			<point x="212.75" y="740"/>
			<point x="132.75" y="740" type="curve" smooth="yes"/>
			<point x="52.75" y="740"/>
			<point x="-22.25" y="780"/>
		</contour>
	</outline>
</glyph>
<glyph name="ibreve" format="2">
	<unicode hex="012D"/>
	<advance width="280"/>
	<outline>
		<contour>
			<point x="-15" y="660" type="curve"/>
			<point x="65" y="660" type="line"/>
			<point x="65" y="600"/>
			<point x="105" y="580"/>
			<point x="140" y="580" type="curve" smooth="yes"/>
			<point x="175" y="580"/>
			<point x="215" y="600"/>
			<point x="215" y="660" type="curve"/>
			<point x="295" y="660" type="line"/>
			<point x="295" y="560"/>
			<point x="220" y="520"/>
			<point x="140" y="520" type="curve" smooth="yes"/>
			<point x="60" y="520"/>
			<point x="-15" y="560"/>
		</contour>
		<contour>
			<point x="240" y="0" type="line"/>
			<point name=".hr01" x="100" y="0" type="line"/>
			<point x="100" y="460" type="line"/>
			<point x="240" y="460" type="line"/>
		</contour>
	</outline>
</glyph>
<glyph name="Iogonek" format="2">
	<unicode hex="012E"/>
	<advance width="266"/>
	<outline>
		<contour>
			<point x="37.5" y="-128.75" type="curve" smooth="yes"/>
			<point x="37.5" y="-76.5"/>
			<point x="70" y="-32.75"/>
			<point x="107.25" y="0" type="curve"/>
			<point name=".hr01" x="62.5" y="0" type="line"/>
			<point x="62.5" y="680" type="line"/>
			<point x="203" y="680" type="line"/>
			<point x="203" y="0" type="line"/>
			<point x="202.25" y="0" type="line"/>
			<point x="159.25" y="-38"/>
			<point name=".hr02" x="148.25" y="-64.5"/>
			<point x="148.25" y="-89.75" type="curve" smooth="yes"/>
			<point x="148.25" y="-111.25"/>
			<point x="162" y="-122.5"/>
			<point x="181.75" y="-122.5" type="curve" smooth="yes"/>
			<point x="192" y="-122.5"/>
			<point name=".hr03" x="203.5" y="-116"/>
			<point x="212.75" y="-108.25" type="curve"/>
			<point x="227.25" y="-183.75" type="line"/>
			<point x="207.25" y="-198.25"/>
			<point x="171.25" y="-210"/>
			<point x="131.25" y="-210" type="curve" smooth="yes"/>
			<point x="72.75" y="-210"/>
			<point name=".hr04" x="37.5" y="-181.25"/>
		</contour>
	</outline>
</glyph>
<glyph name="Idotaccent" format="2">
	<unicode hex="0130"/>
	<advance width="266"/>
	<outline>
		<contour>
			<point x="203" y="0" type="line"/>
			<point x="62.5" y="0" type="line"/>
			<point x="62.5" y="680" type="line"/>
			<point x="203" y="680" type="line"/>
		</contour>
		<contour>
			<point x="202.75" y="740" type="line"/>
			<point x="62.75" y="740" type="line"/>
			<point x="62.75" y="865" type="line"/>
			<point x="202.75" y="865" type="line"/>
		</contour>
	</outline>
</glyph>
<glyph name="dotlessi" format="2">
	<unicode hex="0131"/>
	<advance width="310"/>
	<outline>
		<contour>
			<point x="225" y="0" type="line"/>
			<point x="85" y="0" type="line"/>
			<point x="85" y="460" type="line"/>
			<point x="225" y="460" type="line"/>
		</contour>
	</outline>
	<anchor name="top" x="155" y="520"/>
</glyph>
<glyph name="Jcircumflex" format="2">
	<unicode hex="0134"/>
	<advance width="286"/>
	<outline>
		<contour>
			<point x="111.5" y="0" type="curve" smooth="yes"/>
			<point x="50" y="0" type="line"/>
			<point x="50" y="125" type="line"/>
			<point x="76" y="125" type="line" smooth="yes"/>
			<point x="116" y="125"/>
			<point x="148" y="153.5"/>
			<point x="148" y="217.5" type="curve" smooth="yes"/>
			<point x="148" y="680" type="line"/>
			<point x="288.5" y="680" type="line"/>
			<point x="288.5" y="224" type="line" smooth="yes"/>
			<point x="288.5" y="97.5"/>
			<point x="254" y="0"/>
		</contour>
		<contour>
			<point x="193" y="851.5" type="line"/>
			<point x="106" y="750" type="line"/>
			<point x="30.5" y="750" type="line"/>
			<point x="135.5" y="925" type="line"/>
			<point x="250.5" y="925" type="line"/>
			<point x="355.5" y="750" type="line"/>
			<point x="280" y="750" type="line"/>
		</contour>
	</outline>
</glyph>
<glyph name="jcircumflex" format="2">
	<unicode hex="0135"/>
	<advance width="220"/>
	<outline>
		<contour>
			<point x="-103" y="-90" type="curve"/>
			<point x="-24" y="-90" type="line"/>
			<point x="-8" y="-114"/>
			<point x="7" y="-120"/>
			<point x="30" y="-120" type="curve" smooth="yes"/>
			<point x="55" y="-120"/>
			<point x="70" y="-103"/>
			<point x="70" y="-55" type="curve" smooth="yes"/>
			<point x="70" y="460" type="line"/>
			<point x="150" y="460" type="line"/>
			<point x="150" y="-31" type="line" smooth="yes"/>
			<point x="150" y="-139"/>
			<point x="93" y="-200"/>
			<point x="28" y="-200" type="curve" smooth="yes"/>
			<point x="-36" y="-200"/>
			<point x="-87" y="-149"/>
		</contour>
		<contour>
			<point x="110" y="621.5" type="line"/>
			<point x="23" y="520" type="line"/>
			<point x="-52.5" y="520" type="line"/>
			<point x="52.5" y="695" type="line"/>
			<point x="167.5" y="695" type="line"/>
			<point x="272.5" y="520" type="line"/>
			<point x="197" y="520" type="line"/>
		</contour>
	</outline>
</glyph>
<glyph name="uni0136" format="2">
	<unicode hex="0136"/>
	<advance width="657"/>
	<outline>
		<contour>
			<point x="203" y="253.25" type="line"/>
			<point x="203" y="0" type="line"/>
			<point x="62.5" y="0" type="line"/>
			<point x="62.5" y="680" type="line"/>
			<point x="203" y="680" type="line"/>
			<point x="203" y="369.25" type="line"/>
			<point x="273.75" y="386.25" type="line"/>
			<point x="450" y="680" type="line"/>
			<point x="606.5" y="680" type="line"/>
			<point x="406.5" y="350" type="line"/>
			<point x="646.5" y="0" type="line"/>
			<point x="475" y="0" type="line"/>
			<point x="288.5" y="277.75" type="line"/>
		</contour>
		<contour>
			<point x="310.25" y="-140" type="line"/>
			<point x="288.25" y="-140" type="line"/>
			<point x="288.25" y="-60" type="line"/>
			<point x="368.25" y="-60" type="line"/>
			<point x="368.25" y="-140" type="line"/>
			<point x="322.25" y="-270" type="line"/>
			<point x="288.25" y="-270" type="line"/>
		</contour>
	</outline>
</glyph>
<glyph name="Lacute" format="2">
	<unicode hex="0139"/>
	<advance width="523"/>
	<outline>
		<contour>
			<point x="203" y="680" type="line"/>
			<point x="203" y="125" type="line"/>
			<point x="487.75" y="125" type="line"/>
			<point x="487.75" y="0" type="line"/>
			<point x="62.5" y="0" type="line"/>
			<point x="62.5" y="680" type="line"/>
		</contour>
		<contour>
			<point x="255.75" y="912.5" type="line"/>
			<point x="176.75" y="710" type="line"/>
			<point x="38.25" y="710" type="line"/>
			<point x="103.25" y="912.5" type="line"/>
		</contour>
	</outline>
</glyph>
<glyph name="Lslash" format="2">
	<unicode hex="0141"/>
	<advance width="610"/>
	<outline>
		<contour>
			<point x="111" y="170" type="line"/>
			<point x="20" y="170" type="line"/>
			<point x="170" y="425" type="line"/>
			<point x="170" y="700" type="line"/>
			<point x="260" y="700" type="line"/>
			<point x="260" y="579" type="line"/>
			<point x="319" y="679" type="line"/>
			<point x="348" y="679"/>
			<point x="378" y="679"/>
			<point x="407" y="679" type="curve"/>
			<point x="260" y="426" type="line"/>
			<point x="260" y="80" type="line"/>
			<point x="580" y="80" type="line"/>
			<point x="580" y="0" type="line"/>
			<point x="170" y="0" type="line"/>
			<point x="170" y="271" type="line"/>
		</contour>
	</outline>
</glyph>
<glyph name="uni0145" format="2">
	<unicode hex="0145"/>
	<advance width="600"/>
	<outline>
		<contour>
			<point x="105.5" y="385" type="curve" smooth="yes"/>
			<point x="105.5" y="0" type="line"/>
			<point x="-35" y="0" type="line"/>
			<point x="-35" y="680" type="line"/>
			<point x="121" y="680" type="line"/>
			<point x="392.25" y="228.25" type="line"/>
			<point x="389.5" y="253.75"/>
			<point x="389.5" y="277.25"/>
			<point x="389.5" y="295" type="curve" smooth="yes"/>
			<point x="389.5" y="680" type="line"/>
			<point x="530" y="680" type="line"/>
			<point x="530" y="0" type="line"/>
			<point x="374" y="0" type="line"/>
			<point x="102.75" y="451.75" type="line"/>
			<point x="105.5" y="426.25"/>
			<point x="105.5" y="402.75"/>
		</contour>
		<contour>
			<point x="282" y="-140" type="line"/>
			<point x="260" y="-140" type="line"/>
			<point x="260" y="-60" type="line"/>
			<point x="340" y="-60" type="line"/>
			<point x="340" y="-140" type="line"/>
			<point x="294" y="-270" type="line"/>
			<point x="260" y="-270" type="line"/>
		</contour>
	</outline>
</glyph>
<glyph name="Omacron" format="2">
	<unicode hex="014C"/>
	<advance width="701"/>
	<outline>
		<contour>
			<point x="350.5" y="565" type="curve" smooth="yes"/>
			<point x="247.75" y="565"/>
			<point x="183" y="477.25"/>
			<point x="183" y="340" type="curve" smooth="yes"/>
			<point x="183" y="202.75"/>
			<point x="247.75" y="115"/>
			<point x="350.5" y="115" type="curve" smooth="yes"/>
			<point x="453.25" y="115"/>
			<point x="518" y="202.75"/>
			<point x="518" y="340" type="curve" smooth="yes"/>
			<point x="518" y="477.25"/>
			<point x="453.25" y="565"/>
		</contour>
		<contour>
			<point x="350.5" y="-10" type="curve" smooth="yes"/>
			<point x="154.5" y="-10"/>
			<point x="42.5" y="117.25"/>
			<point x="42.5" y="340" type="curve" smooth="yes"/>
			<point x="42.5" y="562.75"/>
			<point x="154.5" y="690"/>
			<point x="350.5" y="690" type="curve" smooth="yes"/>
			<point x="546.5" y="690"/>
			<point x="658.5" y="562.75"/>
			<point x="658.5" y="340" type="curve" smooth="yes"/>
			<point x="658.5" y="117.25"/>
			<point x="546.5" y="-10"/>
		</contour>
		<contour>
			<point x="487" y="860" type="line"/>
			<point x="487" y="790" type="line"/>
			<point x="217" y="790" type="line"/>
			<point x="217" y="860" type="line"/>
		</contour>
	</outline>
</glyph>
<glyph name="Obreve" format="2">
	<unicode hex="014E"/>
	<advance width="701"/>
	<outline>
		<contour>
			<point x="350.5" y="565" type="curve" smooth="yes"/>
			<point x="247.75" y="565"/>
			<point x="183" y="477.25"/>
			<point x="183" y="340" type="curve" smooth="yes"/>
			<point x="183" y="202.75"/>
			<point x="247.75" y="115"/>
			<point x="350.5" y="115" type="curve" smooth="yes"/>
			<point x="453.25" y="115"/>
			<point x="518" y="202.75"/>
			<point x="518" y="340" type="curve" smooth="yes"/>
			<point x="518" y="477.25"/>
			<point x="453.25" y="565"/>
		</contour>
		<contour>
			<point x="350.5" y="-10" type="curve" smooth="yes"/>
			<point x="154.5" y="-10"/>
			<point x="42.5" y="117.25"/>
			<point x="42.5" y="340" type="curve" smooth="yes"/>
			<point x="42.5" y="562.75"/>
			<point x="154.5" y="690"/>
			<point x="350.5" y="690" type="curve" smooth="yes"/>
			<point x="546.5" y="690"/>
			<point x="658.5" y="562.75"/>
			<point x="658.5" y="340" type="curve" smooth="yes"/>
			<point x="658.5" y="117.25"/>
			<point x="546.5" y="-10"/>
		</contour>
		<contour>
			<point x="197" y="880" type="curve"/>
			<point x="277" y="880" type="line"/>
			<point x="277" y="820"/>
			<point x="317" y="800"/>
			<point x="352" y="800" type="curve" smooth="yes"/>
			<point x="387" y="800"/>
			<point x="427" y="820"/>
			<point x="427" y="880" type="curve"/>
			<point x="507" y="880" type="line"/>
			<point x="507" y="780"/>
			<point x="432" y="740"/>
			<point x="352" y="740" type="curve" smooth="yes"/>
			<point x="272" y="740"/>
			<point x="197" y="780"/>
		</contour>
	</outline>
</glyph>
<glyph name="Ohungarumlaut" format="2">
	<unicode hex="0150"/>
	<advance width="701"/>
	<outline>
		<contour>
			<point x="350.5" y="565" type="curve" smooth="yes"/>
			<point x="247.75" y="565"/>
			<point x="183" y="477.25"/>
			<point x="183" y="340" type="curve" smooth="yes"/>
			<point x="183" y="202.75"/>
			<point x="247.75" y="115"/>
			<point x="350.5" y="115" type="curve" smooth="yes"/>
			<point x="453.25" y="115"/>
			<point x="518" y="202.75"/>
			<point x="518" y="340" type="curve" smooth="yes"/>
			<point x="518" y="477.25"/>
			<point x="453.25" y="565"/>
		</contour>
		<contour>
			<point x="350.5" y="-10" type="curve" smooth="yes"/>
			<point x="154.5" y="-10"/>
			<point x="42.5" y="117.25"/>
			<point x="42.5" y="340" type="curve" smooth="yes"/>
			<point x="42.5" y="562.75"/>
			<point x="154.5" y="690"/>
			<point x="350.5" y="690" type="curve" smooth="yes"/>
			<point x="546.5" y="690"/>
			<point x="658.5" y="562.75"/>
			<point x="658.5" y="340" type="curve" smooth="yes"/>
			<point x="658.5" y="117.25"/>
			<point x="546.5" y="-10"/>
		</contour>
		<contour>
			<point x="358.5" y="910" type="line"/>
			<point x="297.5" y="730" type="line"/>
			<point x="233.5" y="730" type="line"/>
			<point x="278.5" y="910" type="line"/>
		</contour>
		<contour>
			<point x="468.5" y="910" type="line"/>
			<point x="392.5" y="730" type="line"/>
			<point x="328.5" y="730" type="line"/>
			<point x="388.5" y="910" type="line"/>
		</contour>
	</outline>
</glyph>
<glyph name="rcaron" format="2">
	<unicode hex="0159"/>
	<advance width="370"/>
	<outline>
		<contour>
			<point x="149" y="530" type="line"/>
			<point x="29" y="710" type="line"/>
			<point x="93" y="710" type="line"/>
			<point x="189" y="583" type="line"/>
			<point x="285" y="710" type="line"/>
			<point x="349" y="710" type="line"/>
			<point x="229" y="530" type="line"/>
		</contour>
		<contour>
			<point x="125" y="0" type="line"/>
			<point x="45" y="0" type="line"/>
			<point x="45" y="460" type="line"/>
			<point x="125" y="460" type="line"/>
			<point x="125" y="370" type="line"/>
			<point x="148" y="421"/>
			<point x="212" y="470"/>
			<point x="272" y="470" type="curve" smooth="yes"/>
			<point x="295" y="470"/>
			<point x="317" y="466"/>
			<point x="335" y="460" type="curve"/>
			<point x="335" y="359" type="line"/>
			<point x="312" y="379"/>
			<point x="278" y="390"/>
			<point x="246" y="390" type="curve" smooth="yes"/>
			<point x="172" y="390"/>
			<point x="134" y="293"/>
			<point x="125" y="233" type="curve"/>
		</contour>
	</outline>
</glyph>
<glyph name="Sacute" format="2">
	<unicode hex="015A"/>
	<advance width="582"/>
	<outline>
		<contour>
			<point x="322" y="750" type="line"/>
			<point x="258" y="750" type="line"/>
			<point x="308" y="910" type="line"/>
			<point x="388" y="910" type="line"/>
		</contour>
		<contour>
			<point x="36" y="215.5" type="curve"/>
			<point x="184" y="215.5" type="line"/>
			<point x="184" y="157.75"/>
			<point x="223.25" y="115"/>
			<point x="292.25" y="115" type="curve" smooth="yes"/>
			<point x="362" y="115"/>
			<point x="399" y="146.5"/>
			<point x="399" y="189.75" type="curve" smooth="yes"/>
			<point x="399" y="228.5"/>
			<point x="377.75" y="255.75"/>
			<point x="338.75" y="271" type="curve"/>
			<point x="152.5" y="361.25" type="line" smooth="yes"/>
			<point x="93.25" y="389"/>
			<point name=".hr01" x="54.25" y="436"/>
			<point x="54.25" y="501.25" type="curve" smooth="yes"/>
			<point x="54.25" y="615.75"/>
			<point x="143.25" y="690"/>
			<point x="295.25" y="690" type="curve" smooth="yes"/>
			<point x="439.5" y="690"/>
			<point x="545" y="595.5"/>
			<point x="545" y="486" type="curve"/>
			<point x="397" y="486" type="line"/>
			<point x="397" y="529.75"/>
			<point x="359.75" y="565"/>
			<point x="284.75" y="565" type="curve" smooth="yes"/>
			<point x="230.75" y="565"/>
			<point x="202.25" y="545.25"/>
			<point x="202.25" y="502" type="curve" smooth="yes"/>
			<point x="202.25" y="474.25"/>
			<point x="218.75" y="453.75"/>
			<point x="257.75" y="437.5" type="curve"/>
			<point x="436.75" y="353" type="line" smooth="yes"/>
			<point x="509.25" y="319.75"/>
			<point x="547" y="269.25"/>
			<point x="547" y="186.75" type="curve" smooth="yes"/>
			<point x="547" y="66.5"/>
			<point x="455.5" y="-10"/>
			<point x="287.75" y="-10" type="curve" smooth="yes"/>
			<point x="138.25" y="-10"/>
			<point name=".hr02" x="36" y="85"/>
		</contour>
	</outline>
</glyph>
<glyph name="Scircumflex" format="2">
	<unicode hex="015C"/>
	<advance width="582"/>
	<outline>
		<contour>
			<point x="36" y="215.5" type="curve"/>
			<point x="184" y="215.5" type="line"/>
			<point x="184" y="157.75"/>
			<point x="223.25" y="115"/>
			<point x="292.25" y="115" type="curve" smooth="yes"/>
			<point x="362" y="115"/>
			<point x="399" y="146.5"/>
			<point x="399" y="189.75" type="curve" smooth="yes"/>
			<point x="399" y="228.5"/>
			<point x="377.75" y="255.75"/>
			<point x="338.75" y="271" type="curve"/>
			<point x="152.5" y="361.25" type="line" smooth="yes"/>
			<point x="93.25" y="389"/>
			<point name=".hr01" x="54.25" y="436"/>
			<point x="54.25" y="501.25" type="curve" smooth="yes"/>
			<point x="54.25" y="615.75"/>
			<point x="143.25" y="690"/>
			<point x="295.25" y="690" type="curve" smooth="yes"/>
			<point x="439.5" y="690"/>
			<point x="545" y="595.5"/>
			<point x="545" y="486" type="curve"/>
			<point x="397" y="486" type="line"/>
			<point x="397" y="529.75"/>
			<point x="359.75" y="565"/>
			<point x="284.75" y="565" type="curve" smooth="yes"/>
			<point x="230.75" y="565"/>
			<point x="202.25" y="545.25"/>
			<point x="202.25" y="502" type="curve" smooth="yes"/>
			<point x="202.25" y="474.25"/>
			<point x="218.75" y="453.75"/>
			<point x="257.75" y="437.5" type="curve"/>
			<point x="436.75" y="353" type="line" smooth="yes"/>
			<point x="509.25" y="319.75"/>
			<point x="547" y="269.25"/>
			<point x="547" y="186.75" type="curve" smooth="yes"/>
			<point x="547" y="66.5"/>
			<point x="455.5" y="-10"/>
			<point x="287.75" y="-10" type="curve" smooth="yes"/>
			<point x="138.25" y="-10"/>
			<point name=".hr02" x="36" y="85"/>
		</contour>
		<contour>
			<point x="290" y="851.5" type="line"/>
			<point x="203" y="750" type="line"/>
			<point name=".hr03" x="127.5" y="750" type="line"/>
			<point x="232.5" y="925" type="line"/>
			<point x="347.5" y="925" type="line"/>
			<point x="452.5" y="750" type="line"/>
			<point x="377" y="750" type="line"/>
		</contour>
	</outline>
</glyph>
<glyph name="scircumflex" format="2">
	<unicode hex="015D"/>
	<advance width="452"/>
	<outline>
		<contour>
			<point x="35" y="136" type="curve"/>
			<point x="114" y="136" type="line"/>
			<point x="114" y="62"/>
			<point x="192" y="55"/>
			<point x="237" y="55" type="curve" smooth="yes"/>
			<point x="261" y="55"/>
			<point x="335" y="67"/>
			<point x="335" y="130" type="curve" smooth="yes"/>
			<point x="335" y="236"/>
			<point name=".hr01" x="55" y="185"/>
			<point x="55" y="340" type="curve" smooth="yes"/>
			<point x="55" y="407"/>
			<point x="105" y="470"/>
			<point x="215" y="470" type="curve" smooth="yes"/>
			<point x="307" y="470"/>
			<point x="397" y="414"/>
			<point x="397" y="336" type="curve"/>
			<point x="316" y="336" type="line"/>
			<point x="304" y="378"/>
			<point x="265" y="405"/>
			<point x="215" y="405" type="curve" smooth="yes"/>
			<point x="170" y="405"/>
			<point x="135" y="385"/>
			<point x="135" y="340" type="curve" smooth="yes"/>
			<point x="135" y="263"/>
			<point x="417" y="288"/>
			<point x="417" y="130" type="curve" smooth="yes"/>
			<point x="417" y="10"/>
			<point x="314" y="-10"/>
			<point x="237" y="-10" type="curve" smooth="yes"/>
			<point x="133" y="-10"/>
			<point name=".hr02" x="35" y="52"/>
		</contour>
		<contour>
			<point x="210" y="621.5" type="line"/>
			<point x="123" y="520" type="line"/>
			<point x="47.5" y="520" type="line"/>
			<point x="152.5" y="695" type="line"/>
			<point x="267.5" y="695" type="line"/>
			<point x="372.5" y="520" type="line"/>
			<point x="297" y="520" type="line"/>
		</contour>
	</outline>
</glyph>
<glyph name="Scedilla" format="2">
	<unicode hex="015E"/>
	<advance width="582"/>
	<outline>
		<contour>
			<point x="206" y="-193" type="curve"/>
			<point x="206" y="-164" type="line"/>
			<point x="219" y="-167"/>
			<point x="240" y="-170"/>
			<point x="260" y="-170" type="curve" smooth="yes"/>
			<point x="301" y="-170"/>
			<point x="319" y="-148"/>
			<point x="319" y="-118" type="curve" smooth="yes"/>
			<point x="319" y="-82"/>
			<point x="270" y="-70"/>
			<point x="240" y="-67" type="curve"/>
			<point name=".hr01" x="267" y="-9" type="line"/>
			<point x="152" y="6"/>
			<point x="51" y="87"/>
			<point x="51" y="194" type="curve"/>
			<point x="65" y="194"/>
			<point x="80" y="193"/>
			<point x="95" y="193" type="curve" smooth="yes"/>
			<point x="139" y="193" type="line"/>
			<point x="139" y="86"/>
			<point x="246" y="79"/>
			<point x="303" y="79" type="curve" smooth="yes"/>
			<point x="333" y="79"/>
			<point x="440" y="99"/>
			<point x="440" y="205" type="curve" smooth="yes"/>
			<point x="440" y="368"/>
			<point name=".hr02" x="69" y="290"/>
			<point x="69" y="527" type="curve" smooth="yes"/>
			<point x="69" y="620"/>
			<point x="140" y="709"/>
			<point x="299" y="709" type="curve" smooth="yes"/>
			<point x="408" y="709"/>
			<point x="489" y="643"/>
			<point x="518" y="573" type="curve" smooth="yes"/>
			<point x="525" y="556"/>
			<point x="530" y="538"/>
			<point x="530" y="521" type="curve"/>
			<point x="440" y="521" type="line"/>
			<point x="421" y="583"/>
			<point x="370" y="619"/>
			<point x="300" y="619" type="curve" smooth="yes"/>
			<point x="220" y="619"/>
			<point x="161" y="591"/>
			<point x="161" y="527" type="curve" smooth="yes"/>
			<point x="161" y="410"/>
			<point x="532" y="448"/>
			<point x="532" y="205" type="curve" smooth="yes"/>
			<point x="532" y="33"/>
			<point x="420" y="-5"/>
			<point x="327" y="-10" type="curve"/>
			<point x="309" y="-46" type="line"/>
			<point x="332" y="-54"/>
			<point x="376" y="-70"/>
			<point x="376" y="-123" type="curve" smooth="yes"/>
			<point x="376" y="-177"/>
			<point x="331" y="-209"/>
			<point x="276" y="-209" type="curve" smooth="yes"/>
			<point x="243" y="-209"/>
			<point x="220" y="-200"/>
		</contour>
	</outline>
</glyph>
<glyph name="uni0162" format="2">
	<unicode hex="0162"/>
	<advance width="480"/>
	<outline>
		<contour>
			<point x="310.25" y="555" type="line"/>
			<point x="310.25" y="0" type="line"/>
			<point x="169.75" y="0" type="line"/>
			<point x="169.75" y="555" type="line"/>
			<point x="10" y="555" type="line"/>
			<point x="10" y="680" type="line"/>
			<point x="470" y="680" type="line"/>
			<point x="470" y="555" type="line"/>
		</contour>
		<contour>
			<point x="222" y="-140" type="line"/>
			<point name=".hr01" x="200" y="-140" type="line"/>
			<point x="200" y="-60" type="line"/>
			<point x="280" y="-60" type="line"/>
			<point x="280" y="-140" type="line"/>
			<point x="234" y="-270" type="line"/>
			<point x="200" y="-270" type="line"/>
		</contour>
	</outline>
</glyph>
<glyph name="Tcaron" format="2">
	<unicode hex="0164"/>
	<advance width="480"/>
	<outline>
		<contour>
			<point x="310.25" y="555" type="line"/>
			<point x="310.25" y="0" type="line"/>
			<point x="169.75" y="0" type="line"/>
			<point x="169.75" y="555" type="line"/>
			<point x="10" y="555" type="line"/>
			<point x="10" y="680" type="line"/>
			<point x="470" y="680" type="line"/>
			<point x="470" y="555" type="line"/>
		</contour>
		<contour>
			<point x="280" y="740" type="line"/>
			<point x="200" y="740" type="line"/>
			<point x="100" y="900" type="line"/>
			<point x="164" y="900" type="line"/>
			<point x="240" y="815" type="line"/>
			<point x="316" y="900" type="line"/>
			<point x="380" y="900" type="line"/>
		</contour>
	</outline>
</glyph>
<glyph name="Utilde" format="2">
	<unicode hex="0168"/>
	<advance width="620"/>
	<outline>
		<contour>
			<point x="50" y="260" type="curve" smooth="yes"/>
			<point x="50" y="680" type="line"/>
			<point x="190" y="680" type="line"/>
			<point x="190" y="295" type="line" smooth="yes"/>
			<point x="190" y="178.25"/>
			<point x="225" y="122.5"/>
			<point x="310" y="122.5" type="curve" smooth="yes"/>
			<point x="395" y="122.5"/>
			<point x="430" y="178.25"/>
			<point x="430" y="295" type="curve" smooth="yes"/>
			<point x="430" y="680" type="line"/>
			<point x="570" y="680" type="line"/>
			<point x="570" y="260" type="line" smooth="yes"/>
			<point x="570" y="82"/>
			<point x="475" y="-10"/>
			<point x="310" y="-10" type="curve" smooth="yes"/>
			<point x="145" y="-10"/>
			<point x="50" y="82"/>
		</contour>
		<contour>
			<point x="207" y="760" type="curve"/>
			<point x="157" y="760" type="line"/>
			<point x="171" y="847"/>
			<point x="207" y="880"/>
			<point name=".hr01" x="247" y="880" type="curve" smooth="yes"/>
			<point x="272" y="880"/>
			<point x="294" y="870"/>
			<point x="316" y="859" type="curve"/>
			<point x="332" y="850"/>
			<point x="353" y="840"/>
			<point name=".hr02" x="373" y="840" type="curve" smooth="yes"/>
			<point x="393" y="840"/>
			<point x="408" y="852"/>
			<point x="413" y="880" type="curve"/>
			<point name=".hr03" x="463" y="880" type="line"/>
			<point x="449" y="793"/>
			<point x="413" y="760"/>
			<point name=".hr04" x="373" y="760" type="curve" smooth="yes"/>
			<point x="348" y="760"/>
			<point x="327" y="769"/>
			<point x="306" y="780" type="curve" smooth="yes"/>
			<point x="289" y="789"/>
			<point x="267" y="800"/>
			<point name=".hr05" x="247" y="800" type="curve" smooth="yes"/>
			<point x="227" y="800"/>
			<point x="212" y="788"/>
		</contour>
	</outline>
</glyph>
<glyph name="Umacron" format="2">
	<unicode hex="016A"/>
	<advance width="560"/>
	<outline>
		<contour>
			<point x="415" y="750" type="line"/>
			<point x="145" y="750" type="line"/>
			<point x="145" y="820" type="line"/>
			<point x="415" y="820" type="line"/>
		</contour>
		<contour>
			<point name=".hr01" x="20" y="260" type="curve" smooth="yes"/>
			<point x="20" y="680" type="line"/>
			<point x="160" y="680" type="line"/>
			<point x="160" y="295" type="line" smooth="yes"/>
			<point x="160" y="178.25"/>
			<point x="195" y="122.5"/>
			<point x="280" y="122.5" type="curve" smooth="yes"/>
			<point x="365" y="122.5"/>
			<point x="400" y="178.25"/>
			<point x="400" y="295" type="curve" smooth="yes"/>
			<point x="400" y="680" type="line"/>
			<point x="540" y="680" type="line"/>
			<point x="540" y="260" type="line" smooth="yes"/>
			<point x="540" y="82"/>
			<point x="445" y="-10"/>
			<point x="280" y="-10" type="curve" smooth="yes"/>
			<point x="115" y="-10"/>
			<point x="20" y="82"/>
		</contour>
	</outline>
</glyph>
<glyph name="umacron" format="2">
	<unicode hex="016B"/>
	<advance width="478"/>
	<outline>
		<contour>
			<point x="354" y="154" type="curve"/>
			<point x="354" y="460" type="line"/>
			<point x="433" y="460" type="line"/>
			<point x="433" y="0" type="line"/>
			<point name=".hr01" x="374" y="0" type="line"/>
			<point x="357" y="83" type="line"/>
			<point x="323" y="36"/>
			<point x="275" y="-10"/>
			<point x="200" y="-10" type="curve" smooth="yes"/>
			<point x="51" y="-10"/>
			<point name=".hr02" x="45" y="98"/>
			<point x="45" y="165" type="curve" smooth="yes"/>
			<point x="45" y="460" type="line"/>
			<point x="125" y="460" type="line"/>
			<point x="125" y="165" type="line" smooth="yes"/>
			<point x="125" y="121"/>
			<point x="134" y="55"/>
			<point x="222" y="55" type="curve" smooth="yes"/>
			<point x="266" y="55"/>
			<point x="330" y="90"/>
		</contour>
		<contour>
			<point x="374" y="640" type="line"/>
			<point name=".hr03" x="374" y="570" type="line"/>
			<point x="104" y="570" type="line"/>
			<point x="104" y="640" type="line"/>
		</contour>
	</outline>
</glyph>
<glyph name="Ubreve" format="2">
	<unicode hex="016C"/>
	<advance width="560"/>
	<outline>
		<contour>
			<point x="125" y="890" type="curve"/>
			<point x="205" y="890" type="line"/>
			<point x="205" y="830"/>
			<point x="245" y="810"/>
			<point x="280" y="810" type="curve" smooth="yes"/>
			<point x="315" y="810"/>
			<point x="355" y="830"/>
			<point x="355" y="890" type="curve"/>
			<point x="435" y="890" type="line"/>
			<point x="435" y="790"/>
			<point x="360" y="750"/>
			<point x="280" y="750" type="curve" smooth="yes"/>
			<point x="200" y="750"/>
			<point x="125" y="790"/>
		</contour>
		<contour>
			<point x="20" y="260" type="curve" smooth="yes"/>
			<point name=".hr01" x="20" y="680" type="line"/>
			<point x="160" y="680" type="line"/>
			<point x="160" y="295" type="line" smooth="yes"/>
			<point x="160" y="178.25"/>
			<point x="195" y="122.5"/>
			<point x="280" y="122.5" type="curve" smooth="yes"/>
			<point x="365" y="122.5"/>
			<point x="400" y="178.25"/>
			<point x="400" y="295" type="curve" smooth="yes"/>
			<point x="400" y="680" type="line"/>
			<point x="540" y="680" type="line"/>
			<point x="540" y="260" type="line" smooth="yes"/>
			<point x="540" y="82"/>
			<point x="445" y="-10"/>
			<point x="280" y="-10" type="curve" smooth="yes"/>
			<point x="115" y="-10"/>
			<point x="20" y="82"/>
		</contour>
	</outline>
</glyph>
<glyph name="Uring" format="2">
	<unicode hex="016E"/>
	<advance width="560"/>
	<outline>
		<contour>
			<point x="240" y="819" type="curve" smooth="yes"/>
			<point x="240" y="802"/>
			<point x="254" y="788"/>
			<point x="271" y="788" type="curve" smooth="yes"/>
			<point x="288" y="788"/>
			<point x="302" y="802"/>
			<point x="302" y="819" type="curve" smooth="yes"/>
			<point x="302" y="836"/>
			<point x="288" y="850"/>
			<point x="271" y="850" type="curve" smooth="yes"/>
			<point x="254" y="850"/>
			<point x="240" y="836"/>
		</contour>
		<contour>
			<point x="20" y="260" type="curve" smooth="yes"/>
			<point x="20" y="680" type="line"/>
			<point x="160" y="680" type="line"/>
			<point x="160" y="295" type="line" smooth="yes"/>
			<point x="160" y="178.25"/>
			<point x="195" y="122.5"/>
			<point x="280" y="122.5" type="curve" smooth="yes"/>
			<point x="365" y="122.5"/>
			<point x="400" y="178.25"/>
			<point x="400" y="295" type="curve" smooth="yes"/>
			<point x="400" y="680" type="line"/>
			<point x="540" y="680" type="line"/>
			<point x="540" y="260" type="line" smooth="yes"/>
			<point x="540" y="82"/>
			<point x="445" y="-10"/>
			<point x="280" y="-10" type="curve" smooth="yes"/>
			<point x="115" y="-10"/>
			<point x="20" y="82"/>
		</contour>
		<contour>
			<point x="193" y="819" type="curve" smooth="yes"/>
			<point x="193" y="862"/>
			<point x="228" y="897"/>
			<point x="271" y="897" type="curve" smooth="yes"/>
			<point x="314" y="897"/>
			<point x="349" y="862"/>
			<point x="349" y="819" type="curve" smooth="yes"/>
			<point x="349" y="776"/>
			<point x="314" y="741"/>
			<point x="271" y="741" type="curve" smooth="yes"/>
			<point x="228" y="741"/>
			<point x="193" y="776"/>
		</contour>
	</outline>
</glyph>
<glyph name="Uhungarumlaut" format="2">
	<unicode hex="0170"/>
	<advance width="620"/>
	<outline>
		<contour>
			<point x="50" y="260" type="curve" smooth="yes"/>
			<point x="50" y="680" type="line"/>
			<point x="190" y="680" type="line"/>
			<point x="190" y="295" type="line" smooth="yes"/>
			<point x="190" y="178.25"/>
			<point x="225" y="122.5"/>
			<point x="310" y="122.5" type="curve" smooth="yes"/>
			<point x="395" y="122.5"/>
			<point x="430" y="178.25"/>
			<point x="430" y="295" type="curve" smooth="yes"/>
			<point x="430" y="680" type="line"/>
			<point x="570" y="680" type="line"/>
			<point x="570" y="260" type="line" smooth="yes"/>
			<point x="570" y="82"/>
			<point x="475" y="-10"/>
			<point x="310" y="-10" type="curve" smooth="yes"/>
			<point x="145" y="-10"/>
			<point x="50" y="82"/>
		</contour>
		<contour>
			<point x="352" y="730" type="line"/>
			<point x="288" y="730" type="line"/>
			<point x="348" y="910" type="line"/>
			<point x="428" y="910" type="line"/>
		</contour>
		<contour>
			<point x="257" y="730" type="line"/>
			<point x="193" y="730" type="line"/>
			<point x="238" y="910" type="line"/>
			<point x="318" y="910" type="line"/>
		</contour>
	</outline>
</glyph>
<glyph name="Zcaron" format="2">
	<unicode hex="017D"/>
	<advance width="510"/>
	<outline>
		<contour>
			<point x="460" y="0" type="line"/>
			<point x="50" y="0" type="line"/>
			<point x="50" y="80" type="line"/>
			<point x="370" y="620" type="line"/>
			<point x="50" y="620" type="line"/>
			<point x="50" y="700" type="line"/>
			<point x="460" y="700" type="line"/>
			<point x="460" y="620" type="line"/>
			<point x="140" y="80" type="line"/>
			<point x="460" y="80" type="line"/>
		</contour>
		<contour>
			<point x="215" y="760" type="line"/>
			<point x="95" y="940" type="line"/>
			<point x="159" y="940" type="line"/>
			<point x="255" y="813" type="line"/>
			<point x="351" y="940" type="line"/>
			<point x="415" y="940" type="line"/>
			<point x="295" y="760" type="line"/>
		</contour>
	</outline>
</glyph>
<glyph name="uni01C4" format="2">
	<unicode hex="01C4"/>
	<advance width="1170"/>
	<outline>
		<contour>
			<point x="328" y="620" type="curve" smooth="yes"/>
			<point x="140" y="620" type="line"/>
			<point x="140" y="80" type="line"/>
			<point x="328" y="80" type="line" smooth="yes"/>
			<point x="478" y="80"/>
			<point x="520" y="241"/>
			<point x="520" y="350" type="curve" smooth="yes"/>
			<point x="520" y="498"/>
			<point x="477" y="620"/>
		</contour>
		<contour>
			<point x="328" y="0" type="curve" smooth="yes"/>
			<point x="50" y="0" type="line"/>
			<point x="50" y="700" type="line"/>
			<point x="328" y="700" type="line" smooth="yes"/>
			<point x="518" y="700"/>
			<point x="610" y="550"/>
			<point x="610" y="350" type="curve" smooth="yes"/>
			<point x="610" y="147"/>
			<point x="519" y="0"/>
		</contour>
		<contour>
			<point x="1120" y="80" type="line"/>
			<point x="1120" y="0" type="line"/>
			<point x="710" y="0" type="line"/>
			<point x="710" y="80" type="line"/>
			<point x="1030" y="620" type="line"/>
			<point x="710" y="620" type="line"/>
			<point x="710" y="700" type="line"/>
			<point x="1120" y="700" type="line"/>
			<point x="1120" y="620" type="line"/>
			<point x="800" y="80" type="line"/>
		</contour>
		<contour>
			<point x="955" y="770" type="line"/>
			<point x="875" y="770" type="line"/>
			<point x="755" y="950" type="line"/>
			<point x="819" y="950" type="line"/>
			<point x="915" y="823" type="line"/>
			<point x="1011" y="950" type="line"/>
			<point x="1075" y="950" type="line"/>
		</contour>
	</outline>
</glyph>
<glyph name="uni01CA" format="2">
	<unicode hex="01CA"/>
	<advance width="886"/>
	<outline>
		<contour>
			<point x="105.5" y="385" type="curve" smooth="yes"/>
			<point x="105.5" y="0" type="line"/>
			<point x="-35" y="0" type="line"/>
			<point x="-35" y="680" type="line"/>
			<point x="121" y="680" type="line"/>
			<point x="392.25" y="228.25" type="line"/>
			<point x="389.5" y="253.75"/>
			<point x="389.5" y="277.25"/>
			<point x="389.5" y="295" type="curve" smooth="yes"/>
			<point x="389.5" y="680" type="line"/>
			<point x="530" y="680" type="line"/>
			<point x="530" y="0" type="line"/>
			<point x="374" y="0" type="line"/>
			<point x="102.75" y="451.75" type="line"/>
			<point x="105.5" y="426.25"/>
			<point x="105.5" y="402.75"/>
		</contour>
		<contour>
			<point x="711.5" y="0" type="curve" smooth="yes"/>
			<point x="650" y="0" type="line"/>
			<point x="650" y="125" type="line"/>
			<point x="676" y="125" type="line" smooth="yes"/>
			<point x="716" y="125"/>
			<point x="748" y="153.5"/>
			<point x="748" y="217.5" type="curve" smooth="yes"/>
			<point x="748" y="680" type="line"/>
			<point x="888.5" y="680" type="line"/>
			<point x="888.5" y="224" type="line" smooth="yes"/>
			<point x="888.5" y="97.5"/>
			<point x="854" y="0"/>
		</contour>
	</outline>
</glyph>
<glyph name="uni01CB" format="2">
	<unicode hex="01CB"/>
	<advance width="830"/>
	<outline>
		<contour>
			<point x="532" y="-100" type="curve"/>
			<point x="597" y="-100" type="line"/>
			<point x="600" y="-132"/>
			<point x="621" y="-140"/>
			<point x="636" y="-140" type="curve" smooth="yes"/>
			<point x="660" y="-140"/>
			<point x="680" y="-136"/>
			<point x="680" y="-80" type="curve" smooth="yes"/>
			<point x="680" y="460" type="line"/>
			<point x="760" y="460" type="line"/>
			<point x="760" y="-60" type="line" smooth="yes"/>
			<point x="760" y="-181"/>
			<point x="704" y="-200"/>
			<point x="640" y="-200" type="curve" smooth="yes"/>
			<point x="584" y="-200"/>
			<point x="536" y="-162"/>
		</contour>
		<contour>
			<point x="105.5" y="385" type="curve" smooth="yes"/>
			<point x="105.5" y="0" type="line"/>
			<point x="-35" y="0" type="line"/>
			<point x="-35" y="680" type="line"/>
			<point x="121" y="680" type="line"/>
			<point x="392.25" y="228.25" type="line"/>
			<point x="389.5" y="253.75"/>
			<point x="389.5" y="277.25"/>
			<point x="389.5" y="295" type="curve" smooth="yes"/>
			<point x="389.5" y="680" type="line"/>
			<point x="530" y="680" type="line"/>
			<point x="530" y="0" type="line"/>
			<point x="374" y="0" type="line"/>
			<point x="102.75" y="451.75" type="line"/>
			<point x="105.5" y="426.25"/>
			<point x="105.5" y="402.75"/>
		</contour>
		<contour>
			<point x="760" y="640" type="line"/>
			<point x="760" y="560" type="line"/>
			<point name=".hr01" x="680" y="560" type="line"/>
			<point x="680" y="640" type="line"/>
		</contour>
	</outline>
</glyph>
<glyph name="uni01CF" format="2">
	<unicode hex="01CF"/>
	<advance width="266"/>
	<outline>
		<contour>
			<point x="203" y="680" type="line"/>
			<point x="203" y="0" type="line"/>
			<point x="62.5" y="0" type="line"/>
			<point x="62.5" y="680" type="line"/>
		</contour>
		<contour>
			<point x="172.75" y="740" type="line"/>
			<point x="92.75" y="740" type="line"/>
			<point x="-7.25" y="900" type="line"/>
			<point x="56.75" y="900" type="line"/>
			<point x="132.75" y="815" type="line"/>
			<point x="208.75" y="900" type="line"/>
			<point x="272.75" y="900" type="line"/>
		</contour>
	</outline>
</glyph>
<glyph name="uni01D1" format="2">
	<unicode hex="01D1"/>
	<advance width="701"/>
	<outline>
		<contour>
			<point x="350.5" y="565" type="curve" smooth="yes"/>
			<point x="247.75" y="565"/>
			<point x="183" y="477.25"/>
			<point x="183" y="340" type="curve" smooth="yes"/>
			<point x="183" y="202.75"/>
			<point x="247.75" y="115"/>
			<point x="350.5" y="115" type="curve" smooth="yes"/>
			<point x="453.25" y="115"/>
			<point x="518" y="202.75"/>
			<point x="518" y="340" type="curve" smooth="yes"/>
			<point x="518" y="477.25"/>
			<point x="453.25" y="565"/>
		</contour>
		<contour>
			<point x="350.5" y="-10" type="curve" smooth="yes"/>
			<point x="154.5" y="-10"/>
			<point x="42.5" y="117.25"/>
			<point x="42.5" y="340" type="curve" smooth="yes"/>
			<point x="42.5" y="562.75"/>
			<point x="154.5" y="690"/>
			<point x="350.5" y="690" type="curve" smooth="yes"/>
			<point x="546.5" y="690"/>
			<point x="658.5" y="562.75"/>
			<point x="658.5" y="340" type="curve" smooth="yes"/>
			<point x="658.5" y="117.25"/>
			<point x="546.5" y="-10"/>
		</contour>
		<contour>
			<point x="392" y="740" type="line"/>
			<point x="312" y="740" type="line"/>
			<point x="212" y="900" type="line"/>
			<point x="276" y="900" type="line"/>
			<point x="352" y="815" type="line"/>
			<point x="428" y="900" type="line"/>
			<point x="492" y="900" type="line"/>
		</contour>
	</outline>
</glyph>
<glyph name="uni01D3" format="2">
	<unicode hex="01D3"/>
	<advance width="560"/>
	<outline>
		<contour>
			<point x="20" y="260" type="curve" smooth="yes"/>
			<point x="20" y="680" type="line"/>
			<point x="160" y="680" type="line"/>
			<point x="160" y="295" type="line" smooth="yes"/>
			<point x="160" y="178.25"/>
			<point x="195" y="122.5"/>
			<point x="280" y="122.5" type="curve" smooth="yes"/>
			<point x="365" y="122.5"/>
			<point x="400" y="178.25"/>
			<point x="400" y="295" type="curve" smooth="yes"/>
			<point x="400" y="680" type="line"/>
			<point x="540" y="680" type="line"/>
			<point x="540" y="260" type="line" smooth="yes"/>
			<point x="540" y="82"/>
			<point x="445" y="-10"/>
			<point x="280" y="-10" type="curve" smooth="yes"/>
			<point x="115" y="-10"/>
			<point x="20" y="82"/>
		</contour>
		<contour>
			<point x="320" y="750" type="line"/>
			<point x="240" y="750" type="line"/>
			<point x="140" y="910" type="line"/>
			<point x="204" y="910" type="line"/>
			<point x="280" y="825" type="line"/>
			<point x="356" y="910" type="line"/>
			<point x="420" y="910" type="line"/>
		</contour>
	</outline>
</glyph>
<glyph name="uni01D5" format="2">
	<unicode hex="01D5"/>
	<advance width="560"/>
	<outline>
		<contour>
			<point x="415" y="910" type="line"/>
			<point x="145" y="910" type="line"/>
			<point x="145" y="975" type="line"/>
			<point x="415" y="975" type="line"/>
		</contour>
		<contour>
			<point x="241" y="770" type="line"/>
			<point x="161" y="770" type="line"/>
			<point x="161" y="850" type="line"/>
			<point x="241" y="850" type="line"/>
		</contour>
		<contour>
			<point x="398" y="770" type="line"/>
			<point x="318" y="770" type="line"/>
			<point x="318" y="850" type="line"/>
			<point x="398" y="850" type="line"/>
		</contour>
		<contour>
			<point x="49" y="224" type="curve" smooth="yes"/>
			<point x="49" y="700" type="line"/>
			<point x="139" y="700" type="line"/>
			<point x="139" y="274" type="line" smooth="yes"/>
			<point x="139" y="180"/>
			<point x="178" y="80"/>
			<point x="289" y="80" type="curve" smooth="yes"/>
			<point x="378" y="80"/>
			<point x="419" y="147"/>
			<point x="419" y="274" type="curve" smooth="yes"/>
			<point x="419" y="700" type="line"/>
			<point x="509" y="700" type="line"/>
			<point x="509" y="224" type="line" smooth="yes"/>
			<point x="509" y="100"/>
			<point x="464" y="-10"/>
			<point x="289" y="-10" type="curve" smooth="yes"/>
			<point x="91" y="-10"/>
			<point x="49" y="106"/>
		</contour>
	</outline>
</glyph>
<glyph name="uni01DB" format="2">
	<unicode hex="01DB"/>
	<advance width="560"/>
	<outline>
		<contour>
			<point x="248" y="910" type="line"/>
			<point x="182" y="1090" type="line"/>
			<point x="262" y="1090" type="line"/>
			<point x="312" y="910" type="line"/>
		</contour>
		<contour>
			<point x="241" y="770" type="line"/>
			<point x="161" y="770" type="line"/>
			<point x="161" y="850" type="line"/>
			<point x="241" y="850" type="line"/>
		</contour>
		<contour>
			<point x="398" y="770" type="line"/>
			<point x="318" y="770" type="line"/>
			<point x="318" y="850" type="line"/>
			<point x="398" y="850" type="line"/>
		</contour>
		<contour>
			<point x="49" y="224" type="curve" smooth="yes"/>
			<point x="49" y="700" type="line"/>
			<point x="139" y="700" type="line"/>
			<point x="139" y="274" type="line" smooth="yes"/>
			<point x="139" y="180"/>
			<point x="178" y="80"/>
			<point x="289" y="80" type="curve" smooth="yes"/>
			<point x="378" y="80"/>
			<point x="419" y="147"/>
			<point x="419" y="274" type="curve" smooth="yes"/>
			<point x="419" y="700" type="line"/>
			<point x="509" y="700" type="line"/>
			<point x="509" y="224" type="line" smooth="yes"/>
			<point x="509" y="100"/>
			<point x="464" y="-10"/>
			<point x="289" y="-10" type="curve" smooth="yes"/>
			<point x="91" y="-10"/>
			<point x="49" y="106"/>
		</contour>
	</outline>
</glyph>
<glyph name="uni01DC" format="2">
	<unicode hex="01DC"/>
	<advance width="478"/>
	<outline>
		<contour>
			<point x="207" y="670" type="line"/>
			<point x="141" y="850" type="line"/>
			<point x="221" y="850" type="line"/>
			<point x="271" y="670" type="line"/>
		</contour>
		<contour>
			<point x="200" y="530" type="line"/>
			<point x="120" y="530" type="line"/>
			<point x="120" y="610" type="line"/>
			<point x="200" y="610" type="line"/>
		</contour>
		<contour>
			<point x="357" y="530" type="line"/>
			<point x="277" y="530" type="line"/>
			<point x="277" y="610" type="line"/>
			<point x="357" y="610" type="line"/>
		</contour>
		<contour>
			<point name=".hr01" x="44" y="160" type="curve" smooth="yes"/>
			<point x="44" y="460" type="line"/>
			<point x="124" y="460" type="line"/>
			<point x="124" y="190" type="line" smooth="yes"/>
			<point x="124" y="137"/>
			<point x="124" y="94"/>
			<point x="144" y="72" type="curve" smooth="yes"/>
			<point x="154" y="61"/>
			<point x="169" y="55"/>
			<point x="192" y="55" type="curve" smooth="yes"/>
			<point x="256" y="55"/>
			<point x="352" y="116"/>
			<point x="352" y="230" type="curve" smooth="yes"/>
			<point x="352" y="307"/>
			<point x="352" y="383"/>
			<point x="352" y="460" type="curve"/>
			<point x="433" y="460" type="line"/>
			<point x="433" y="0" type="line"/>
			<point x="353" y="0" type="line"/>
			<point x="353" y="90" type="line"/>
			<point x="314" y="43"/>
			<point x="232" y="-10"/>
			<point x="166" y="-10" type="curve" smooth="yes"/>
			<point x="49" y="-10"/>
			<point x="44" y="78"/>
		</contour>
	</outline>
</glyph>
<glyph name="uni01DE" format="2">
	<unicode hex="01DE"/>
	<advance width="608"/>
	<outline>
		<contour>
			<point x="368" y="288.75" type="line"/>
			<point x="303.75" y="493.25" type="line"/>
			<point x="239.5" y="288.75" type="line"/>
		</contour>
		<contour>
			<point x="457" y="0" type="line"/>
			<point x="410.75" y="148.75" type="line"/>
			<point x="196.75" y="148.75" type="line"/>
			<point x="150.5" y="0" type="line"/>
			<point x="10" y="0" type="line"/>
			<point x="220.75" y="680" type="line"/>
			<point x="385.25" y="680" type="line"/>
			<point x="597.5" y="0" type="line"/>
		</contour>
		<contour>
			<point x="307.5" y="860" type="line"/>
			<point x="367.5" y="842.5" type="line"/>
			<point x="348.75" y="887.5" type="line"/>
			<point x="483.75" y="875" type="line"/>
			<point x="478.75" y="740" type="line"/>
			<point x="343.75" y="752.5" type="line"/>
			<point x="323.75" y="790" type="line"/>
			<point x="263.75" y="777.5" type="line"/>
			<point x="258.75" y="740" type="line"/>
			<point x="123.75" y="752.5" type="line"/>
			<point x="105" y="887.5" type="line"/>
			<point x="240" y="905" type="line"/>
		</contour>
	</outline>
</glyph>
<glyph name="uni01E8" format="2">
	<unicode hex="01E8"/>
	<advance width="657"/>
	<outline>
		<contour>
			<point x="203" y="253.25" type="line"/>
			<point x="203" y="0" type="line"/>
			<point x="62.5" y="0" type="line"/>
			<point x="62.5" y="680" type="line"/>
			<point x="203" y="680" type="line"/>
			<point x="203" y="369.25" type="line"/>
			<point x="273.75" y="386.25" type="line"/>
			<point x="450" y="680" type="line"/>
			<point x="606.5" y="680" type="line"/>
			<point x="406.5" y="350" type="line"/>
			<point x="646.5" y="0" type="line"/>
			<point x="475" y="0" type="line"/>
			<point x="288.5" y="277.75" type="line"/>
		</contour>
		<contour>
			<point x="368.25" y="760" type="line"/>
			<point x="288.25" y="760" type="line"/>
			<point x="188.25" y="920" type="line"/>
			<point x="252.25" y="920" type="line"/>
			<point x="328.25" y="835" type="line"/>
			<point x="404.25" y="920" type="line"/>
			<point x="468.25" y="920" type="line"/>
		</contour>
	</outline>
</glyph>
<glyph name="uni01F2" format="2">
	<unicode hex="01F2"/>
	<advance width="1088"/>
	<outline>
		<contour>
			<point x="203" y="555" type="line"/>
			<point x="203" y="125" type="line"/>
			<point x="303" y="125" type="line" smooth="yes"/>
			<point x="395" y="125"/>
			<point x="454.75" y="214"/>
			<point x="454.75" y="340" type="curve" smooth="yes"/>
			<point x="454.75" y="493"/>
			<point x="397" y="555"/>
			<point x="303" y="555" type="curve" smooth="yes"/>
		</contour>
		<contour>
			<point x="62.5" y="680" type="line"/>
			<point x="303" y="680" type="line" smooth="yes"/>
			<point x="493" y="680"/>
			<point x="595" y="556.5"/>
			<point x="595" y="340" type="curve" smooth="yes"/>
			<point x="595" y="121.25"/>
			<point x="493.75" y="0"/>
			<point x="303" y="0" type="curve" smooth="yes"/>
			<point x="62.5" y="0" type="line"/>
		</contour>
		<contour>
			<point name=".hr01" x="1047.5" y="65" type="line"/>
			<point x="1047.5" y="0" type="line"/>
			<point x="677.5" y="0" type="line"/>
			<point x="677.5" y="65" type="line"/>
			<point x="947.5" y="395" type="line"/>
			<point x="677.5" y="395" type="line"/>
			<point x="677.5" y="460" type="line"/>
			<point x="1047.5" y="460" type="line"/>
			<point x="1047.5" y="395" type="line"/>
			<point x="787.5" y="65" type="line"/>
		</contour>
	</outline>
</glyph>
<glyph name="uni01F4" format="2">
	<unicode hex="01F4"/>
	<advance width="707"/>
	<outline>
		<contour>
			<point x="365" y="750" type="line"/>
			<point x="351" y="750" type="line"/>
			<point x="401" y="930" type="line"/>
			<point x="431" y="930" type="line"/>
		</contour>
		<contour>
			<point x="358" y="670" type="curve" smooth="yes"/>
			<point x="199" y="670"/>
			<point x="102" y="544"/>
			<point x="102" y="340" type="curve" smooth="yes"/>
			<point x="102" y="136"/>
			<point x="199" y="10"/>
			<point x="358" y="10" type="curve" smooth="yes"/>
			<point x="453" y="10"/>
			<point x="548" y="73"/>
			<point x="595" y="151" type="curve"/>
			<point x="595" y="280" type="line"/>
			<point x="388" y="280" type="line"/>
			<point x="388" y="300" type="line"/>
			<point x="617" y="300" type="line"/>
			<point x="617" y="0" type="line"/>
			<point x="595" y="0" type="line"/>
			<point x="595" y="113" type="line"/>
			<point x="549" y="44"/>
			<point x="450" y="-10"/>
			<point x="358" y="-10" type="curve" smooth="yes"/>
			<point x="189" y="-10"/>
			<point x="80" y="127"/>
			<point x="80" y="340" type="curve" smooth="yes"/>
			<point x="80" y="553"/>
			<point x="189" y="690"/>
			<point x="358" y="690" type="curve" smooth="yes"/>
			<point x="496" y="690"/>
			<point x="593" y="606"/>
			<point x="625" y="454" type="curve"/>
			<point x="605" y="454" type="line"/>
			<point x="574" y="589"/>
			<point x="484" y="670"/>
		</contour>
	</outline>
</glyph>
<glyph name="uni01F5" format="2">
	<unicode hex="01F5"/>
	<advance width="492"/>
	<outline>
		<contour>
			<point x="115" y="230" type="curve" smooth="yes"/>
			<point x="115" y="159"/>
			<point x="141" y="65"/>
			<point x="246" y="65" type="curve" smooth="yes"/>
			<point x="331" y="65"/>
			<point x="367" y="143"/>
			<point x="367" y="210" type="curve" smooth="yes"/>
			<point x="367" y="245" type="line" smooth="yes"/>
			<point x="367" y="347"/>
			<point x="311" y="405"/>
			<point x="246" y="405" type="curve" smooth="yes"/>
			<point x="156" y="405"/>
			<point x="115" y="337"/>
		</contour>
		<contour>
			<point x="35" y="230" type="curve" smooth="yes"/>
			<point x="35" y="355"/>
			<point x="96" y="470"/>
			<point x="226" y="470" type="curve" smooth="yes"/>
			<point x="284" y="470"/>
			<point x="344" y="439"/>
			<point x="367" y="388" type="curve"/>
			<point x="387" y="459" type="line"/>
			<point x="447" y="459" type="line"/>
			<point x="447" y="27" type="line" smooth="yes"/>
			<point x="447" y="-146"/>
			<point x="362" y="-200"/>
			<point x="244" y="-200" type="curve" smooth="yes"/>
			<point x="114" y="-200"/>
			<point x="62" y="-106"/>
			<point x="52" y="-54" type="curve"/>
			<point x="135" y="-54" type="line"/>
			<point x="153" y="-113"/>
			<point x="206" y="-134"/>
			<point x="244" y="-134" type="curve" smooth="yes"/>
			<point x="316" y="-134"/>
			<point x="367" y="-91"/>
			<point x="367" y="27" type="curve" smooth="yes"/>
			<point x="367" y="89" type="line"/>
			<point x="339" y="33"/>
			<point x="286" y="-1"/>
			<point x="227" y="-1" type="curve" smooth="yes"/>
			<point x="56" y="-1"/>
			<point x="35" y="144"/>
		</contour>
		<contour>
			<point x="339" y="680" type="line"/>
			<point x="273" y="520" type="line"/>
			<point x="209" y="520" type="line"/>
			<point x="259" y="680" type="line"/>
		</contour>
	</outline>
</glyph>
<glyph name="uni0200" format="2">
	<unicode hex="0200"/>
	<advance width="560"/>
	<outline>
		<contour>
			<point x="349" y="372" type="line"/>
			<point x="279" y="610" type="line"/>
			<point x="209" y="372" type="line"/>
		</contour>
		<contour>
			<point x="189" y="282" type="line"/>
			<point x="109" y="0" type="line"/>
			<point x="19" y="0" type="line"/>
			<point x="229" y="700" type="line"/>
			<point x="329" y="700" type="line"/>
			<point x="539" y="0" type="line"/>
			<point x="449" y="0" type="line"/>
			<point x="369" y="282" type="line"/>
		</contour>
		<contour>
			<point x="264" y="770" type="line"/>
			<point x="200" y="770" type="line"/>
			<point x="124" y="950" type="line"/>
			<point x="204" y="950" type="line"/>
		</contour>
		<contour>
			<point x="359" y="770" type="line"/>
			<point x="295" y="770" type="line"/>
			<point x="234" y="950" type="line"/>
			<point x="314" y="950" type="line"/>
		</contour>
	</outline>
</glyph>
<glyph name="uni0201" format="2">
	<unicode hex="0201"/>
	<advance width="503"/>
	<outline>
		<contour>
			<point x="109" y="136" type="curve" smooth="yes"/>
			<point x="109" y="69"/>
			<point x="162" y="55"/>
			<point x="188" y="55" type="curve" smooth="yes"/>
			<point x="233" y="55"/>
			<point x="306" y="97"/>
			<point x="326" y="141" type="curve"/>
			<point x="325" y="246" type="line"/>
			<point x="303" y="241"/>
			<point x="269" y="238"/>
			<point x="222" y="226" type="curve" smooth="yes"/>
			<point x="168" y="213"/>
			<point x="109" y="198"/>
		</contour>
		<contour>
			<point x="29" y="128" type="curve" smooth="yes"/>
			<point x="29" y="213"/>
			<point x="98" y="257"/>
			<point x="187" y="274" type="curve" smooth="yes"/>
			<point x="244" y="285"/>
			<point x="278" y="286"/>
			<point x="326" y="294" type="curve"/>
			<point x="326" y="320" type="line" smooth="yes"/>
			<point x="326" y="373"/>
			<point x="268" y="395"/>
			<point x="226" y="395" type="curve" smooth="yes"/>
			<point x="170" y="395"/>
			<point x="124" y="369"/>
			<point x="119" y="320" type="curve"/>
			<point x="54" y="320" type="line"/>
			<point x="64" y="432"/>
			<point x="164" y="460"/>
			<point x="227" y="460" type="curve" smooth="yes"/>
			<point x="324" y="460"/>
			<point x="406" y="418"/>
			<point x="406" y="285" type="curve" smooth="yes"/>
			<point x="406" y="86" type="line" smooth="yes"/>
			<point x="406" y="73"/>
			<point x="415" y="55"/>
			<point x="457" y="55" type="curve"/>
			<point x="457" y="-10" type="line"/>
			<point x="361" y="-10"/>
			<point x="334" y="23"/>
			<point x="326" y="74" type="curve"/>
			<point x="294" y="37"/>
			<point x="251" y="-10"/>
			<point x="176" y="-10" type="curve" smooth="yes"/>
			<point x="92" y="-10"/>
			<point x="29" y="43"/>
		</contour>
		<contour>
			<point x="212" y="530" type="line"/>
			<point x="148" y="530" type="line"/>
			<point x="72" y="710" type="line"/>
			<point x="152" y="710" type="line"/>
		</contour>
		<contour>
			<point x="307" y="530" type="line"/>
			<point x="243" y="530" type="line"/>
			<point x="182" y="710" type="line"/>
			<point x="262" y="710" type="line"/>
		</contour>
	</outline>
</glyph>
<glyph name="uni0202" format="2">
	<unicode hex="0202"/>
	<advance width="570"/>
	<outline>
		<contour>
			<point x="343" y="288.75" type="line"/>
			<point x="278.75" y="493.25" type="line"/>
			<point x="214.5" y="288.75" type="line"/>
		</contour>
		<contour>
			<point x="432" y="0" type="line"/>
			<point x="385.75" y="148.75" type="line"/>
			<point x="171.75" y="148.75" type="line"/>
			<point x="125.5" y="0" type="line"/>
			<point x="-15" y="0" type="line"/>
			<point x="195.75" y="680" type="line"/>
			<point x="360.25" y="680" type="line"/>
			<point x="572.5" y="0" type="line"/>
		</contour>
		<contour>
			<point x="205" y="720" type="curve"/>
			<point x="125" y="720" type="line"/>
			<point x="125" y="820"/>
			<point x="200" y="860"/>
			<point x="280" y="860" type="curve" smooth="yes"/>
			<point x="360" y="860"/>
			<point x="435" y="820"/>
			<point x="435" y="720" type="curve"/>
			<point x="355" y="720" type="line"/>
			<point x="355" y="780"/>
			<point x="315" y="800"/>
			<point x="280" y="800" type="curve" smooth="yes"/>
			<point x="245" y="800"/>
			<point x="205" y="780"/>
		</contour>
	</outline>
</glyph>
<glyph name="uni0204" format="2">
	<unicode hex="0204"/>
	<advance width="510"/>
	<outline>
		<contour>
			<point x="420" y="287.5" type="line"/>
			<point x="203" y="287.5" type="line"/>
			<point x="203" y="117.5" type="line"/>
			<point x="460" y="117.5" type="line"/>
			<point x="460" y="0" type="line"/>
			<point x="62.5" y="0" type="line"/>
			<point x="62.5" y="680" type="line"/>
			<point x="460" y="680" type="line"/>
			<point x="460" y="562.5" type="line"/>
			<point x="203" y="562.5" type="line"/>
			<point x="203" y="405" type="line"/>
			<point x="420" y="405" type="line"/>
		</contour>
		<contour>
			<point x="278" y="730" type="line"/>
			<point x="214" y="730" type="line"/>
			<point x="138" y="910" type="line"/>
			<point x="218" y="910" type="line"/>
		</contour>
		<contour>
			<point x="373" y="730" type="line"/>
			<point x="309" y="730" type="line"/>
			<point x="248" y="910" type="line"/>
			<point x="328" y="910" type="line"/>
		</contour>
	</outline>
</glyph>
<glyph name="uni0208" format="2">
	<unicode hex="0208"/>
	<advance width="266"/>
	<outline>
		<contour>
			<point x="203" y="0" type="line"/>
			<point x="62.5" y="0" type="line"/>
			<point x="62.5" y="680" type="line"/>
			<point x="203" y="680" type="line"/>
		</contour>
		<contour>
			<point x="186.75" y="730" type="line"/>
			<point x="125.75" y="910" type="line"/>
			<point x="205.75" y="910" type="line"/>
			<point x="250.75" y="730" type="line"/>
		</contour>
		<contour>
			<point x="91.75" y="730" type="line"/>
			<point x="15.75" y="910" type="line"/>
			<point x="95.75" y="910" type="line"/>
			<point x="155.75" y="730" type="line"/>
		</contour>
	</outline>
</glyph>
<glyph name="uni0209" format="2">
	<unicode hex="0209"/>
	<advance width="280"/>
	<outline>
		<contour>
			<point x="155" y="530" type="line"/>
			<point x="94" y="710" type="line"/>
			<point x="174" y="710" type="line"/>
			<point x="219" y="530" type="line"/>
		</contour>
		<contour>
			<point x="60" y="530" type="line"/>
			<point x="-16" y="710" type="line"/>
			<point x="64" y="710" type="line"/>
			<point x="124" y="530" type="line"/>
		</contour>
		<contour>
			<point x="179" y="0" type="line"/>
			<point x="99" y="0" type="line"/>
			<point x="99" y="460" type="line"/>
			<point x="179" y="460" type="line"/>
		</contour>
	</outline>
</glyph>
<glyph name="uni020A" format="2">
	<unicode hex="020A"/>
	<advance width="266"/>
	<outline>
		<contour>
			<point x="203" y="0" type="line"/>
			<point x="62.5" y="0" type="line"/>
			<point x="62.5" y="680" type="line"/>
			<point x="203" y="680" type="line"/>
		</contour>
		<contour>
			<point x="57.75" y="740" type="curve"/>
			<point x="-22.25" y="740" type="line"/>
			<point x="-22.25" y="840"/>
			<point x="52.75" y="880"/>
			<point x="132.75" y="880" type="curve" smooth="yes"/>
			<point x="212.75" y="880"/>
			<point x="287.75" y="840"/>
			<point x="287.75" y="740" type="curve"/>
			<point x="207.75" y="740" type="line"/>
			<point x="207.75" y="800"/>
			<point x="167.75" y="820"/>
			<point x="132.75" y="820" type="curve" smooth="yes"/>
			<point x="97.75" y="820"/>
			<point x="57.75" y="800"/>
		</contour>
	</outline>
</glyph>
<glyph name="uni020C" format="2">
	<unicode hex="020C"/>
	<advance width="701"/>
	<outline>
		<contour>
			<point x="350.5" y="565" type="curve" smooth="yes"/>
			<point x="247.75" y="565"/>
			<point x="183" y="477.25"/>
			<point x="183" y="340" type="curve" smooth="yes"/>
			<point x="183" y="202.75"/>
			<point x="247.75" y="115"/>
			<point x="350.5" y="115" type="curve" smooth="yes"/>
			<point x="453.25" y="115"/>
			<point x="518" y="202.75"/>
			<point x="518" y="340" type="curve" smooth="yes"/>
			<point x="518" y="477.25"/>
			<point x="453.25" y="565"/>
		</contour>
		<contour>
			<point x="350.5" y="-10" type="curve" smooth="yes"/>
			<point x="154.5" y="-10"/>
			<point x="42.5" y="117.25"/>
			<point x="42.5" y="340" type="curve" smooth="yes"/>
			<point x="42.5" y="562.75"/>
			<point x="154.5" y="690"/>
			<point x="350.5" y="690" type="curve" smooth="yes"/>
			<point x="546.5" y="690"/>
			<point x="658.5" y="562.75"/>
			<point x="658.5" y="340" type="curve" smooth="yes"/>
			<point x="658.5" y="117.25"/>
			<point x="546.5" y="-10"/>
		</contour>
		<contour>
			<point x="373.5" y="730" type="line"/>
			<point x="309.5" y="730" type="line"/>
			<point x="233.5" y="910" type="line"/>
			<point x="313.5" y="910" type="line"/>
		</contour>
		<contour>
			<point x="468.5" y="730" type="line"/>
			<point x="404.5" y="730" type="line"/>
			<point x="343.5" y="910" type="line"/>
			<point x="423.5" y="910" type="line"/>
		</contour>
	</outline>
</glyph>
<glyph name="uni020E" format="2">
	<unicode hex="020E"/>
	<advance width="701"/>
	<outline>
		<contour>
			<point x="350.5" y="565" type="curve" smooth="yes"/>
			<point x="247.75" y="565"/>
			<point x="183" y="477.25"/>
			<point x="183" y="340" type="curve" smooth="yes"/>
			<point x="183" y="202.75"/>
			<point x="247.75" y="115"/>
			<point x="350.5" y="115" type="curve" smooth="yes"/>
			<point x="453.25" y="115"/>
			<point x="518" y="202.75"/>
			<point x="518" y="340" type="curve" smooth="yes"/>
			<point x="518" y="477.25"/>
			<point x="453.25" y="565"/>
		</contour>
		<contour>
			<point x="350.5" y="-10" type="curve" smooth="yes"/>
			<point x="154.5" y="-10"/>
			<point x="42.5" y="117.25"/>
			<point x="42.5" y="340" type="curve" smooth="yes"/>
			<point x="42.5" y="562.75"/>
			<point x="154.5" y="690"/>
			<point x="350.5" y="690" type="curve" smooth="yes"/>
			<point x="546.5" y="690"/>
			<point x="658.5" y="562.75"/>
			<point x="658.5" y="340" type="curve" smooth="yes"/>
			<point x="658.5" y="117.25"/>
			<point x="546.5" y="-10"/>
		</contour>
		<contour>
			<point x="277" y="740" type="curve"/>
			<point x="197" y="740" type="line"/>
			<point x="197" y="840"/>
			<point x="272" y="880"/>
			<point x="352" y="880" type="curve" smooth="yes"/>
			<point x="432" y="880"/>
			<point x="507" y="840"/>
			<point x="507" y="740" type="curve"/>
			<point x="427" y="740" type="line"/>
			<point x="427" y="800"/>
			<point x="387" y="820"/>
			<point x="352" y="820" type="curve" smooth="yes"/>
			<point x="317" y="820"/>
			<point x="277" y="800"/>
		</contour>
	</outline>
</glyph>
<glyph name="uni0214" format="2">
	<unicode hex="0214"/>
	<advance width="620"/>
	<outline>
		<contour>
			<point x="50" y="260" type="curve" smooth="yes"/>
			<point x="50" y="680" type="line"/>
			<point x="190" y="680" type="line"/>
			<point x="190" y="295" type="line" smooth="yes"/>
			<point x="190" y="178.25"/>
			<point x="225" y="122.5"/>
			<point x="310" y="122.5" type="curve" smooth="yes"/>
			<point x="395" y="122.5"/>
			<point x="430" y="178.25"/>
			<point x="430" y="295" type="curve" smooth="yes"/>
			<point x="430" y="680" type="line"/>
			<point x="570" y="680" type="line"/>
			<point x="570" y="260" type="line" smooth="yes"/>
			<point x="570" y="82"/>
			<point x="475" y="-10"/>
			<point x="310" y="-10" type="curve" smooth="yes"/>
			<point x="145" y="-10"/>
			<point x="50" y="82"/>
		</contour>
		<contour>
			<point x="364" y="730" type="line"/>
			<point x="303" y="910" type="line"/>
			<point x="383" y="910" type="line"/>
			<point x="428" y="730" type="line"/>
		</contour>
		<contour>
			<point x="269" y="730" type="line"/>
			<point x="193" y="910" type="line"/>
			<point x="273" y="910" type="line"/>
			<point x="333" y="730" type="line"/>
		</contour>
	</outline>
</glyph>
<glyph name="uni0216" format="2">
	<unicode hex="0216"/>
	<advance width="560"/>
	<outline>
		<contour>
			<point x="200" y="720" type="curve"/>
			<point x="120" y="720" type="line"/>
			<point x="120" y="820"/>
			<point x="195" y="860"/>
			<point x="275" y="860" type="curve" smooth="yes"/>
			<point x="355" y="860"/>
			<point x="430" y="820"/>
			<point x="430" y="720" type="curve"/>
			<point x="350" y="720" type="line"/>
			<point x="350" y="780"/>
			<point x="310" y="800"/>
			<point x="275" y="800" type="curve" smooth="yes"/>
			<point x="240" y="800"/>
			<point x="200" y="780"/>
		</contour>
		<contour>
			<point x="20" y="260" type="curve" smooth="yes"/>
			<point name=".hr01" x="20" y="680" type="line"/>
			<point x="160" y="680" type="line"/>
			<point x="160" y="295" type="line" smooth="yes"/>
			<point x="160" y="178.25"/>
			<point x="195" y="122.5"/>
			<point x="280" y="122.5" type="curve" smooth="yes"/>
			<point x="365" y="122.5"/>
			<point x="400" y="178.25"/>
			<point x="400" y="295" type="curve" smooth="yes"/>
			<point x="400" y="680" type="line"/>
			<point x="540" y="680" type="line"/>
			<point x="540" y="260" type="line" smooth="yes"/>
			<point x="540" y="82"/>
			<point x="445" y="-10"/>
			<point x="280" y="-10" type="curve" smooth="yes"/>
			<point x="115" y="-10"/>
			<point x="20" y="82"/>
		</contour>
	</outline>
</glyph>
<glyph name="uni0218" format="2">
	<unicode hex="0218"/>
	<advance width="582"/>
	<outline>
		<contour>
			<point x="264" y="-151" type="line"/>
			<point x="264" y="-71" type="line"/>
			<point x="344" y="-71" type="line"/>
			<point x="344" y="-151" type="line"/>
			<point x="298" y="-281" type="line"/>
			<point x="264" y="-281" type="line"/>
			<point x="286" y="-151" type="line"/>
		</contour>
		<contour>
			<point x="36" y="215.5" type="curve"/>
			<point x="184" y="215.5" type="line"/>
			<point x="184" y="157.75"/>
			<point x="223.25" y="115"/>
			<point x="292.25" y="115" type="curve" smooth="yes"/>
			<point x="362" y="115"/>
			<point x="399" y="146.5"/>
			<point x="399" y="189.75" type="curve" smooth="yes"/>
			<point x="399" y="228.5"/>
			<point x="377.75" y="255.75"/>
			<point x="338.75" y="271" type="curve"/>
			<point x="152.5" y="361.25" type="line" smooth="yes"/>
			<point x="93.25" y="389"/>
			<point name=".hr01" x="54.25" y="436"/>
			<point x="54.25" y="501.25" type="curve" smooth="yes"/>
			<point x="54.25" y="615.75"/>
			<point x="143.25" y="690"/>
			<point x="295.25" y="690" type="curve" smooth="yes"/>
			<point x="439.5" y="690"/>
			<point x="545" y="595.5"/>
			<point x="545" y="486" type="curve"/>
			<point x="397" y="486" type="line"/>
			<point x="397" y="529.75"/>
			<point x="359.75" y="565"/>
			<point x="284.75" y="565" type="curve" smooth="yes"/>
			<point x="230.75" y="565"/>
			<point x="202.25" y="545.25"/>
			<point x="202.25" y="502" type="curve" smooth="yes"/>
			<point x="202.25" y="474.25"/>
			<point x="218.75" y="453.75"/>
			<point x="257.75" y="437.5" type="curve"/>
			<point x="436.75" y="353" type="line" smooth="yes"/>
			<point x="509.25" y="319.75"/>
			<point x="547" y="269.25"/>
			<point x="547" y="186.75" type="curve" smooth="yes"/>
			<point x="547" y="66.5"/>
			<point x="455.5" y="-10"/>
			<point x="287.75" y="-10" type="curve" smooth="yes"/>
			<point x="138.25" y="-10"/>
			<point name=".hr02" x="36" y="85"/>
		</contour>
	</outline>
</glyph>
<glyph name="uni0226" format="2">
	<unicode hex="0226"/>
	<advance width="570"/>
	<outline>
		<contour>
			<point x="343" y="288.75" type="line"/>
			<point x="278.75" y="493.25" type="line"/>
			<point x="214.5" y="288.75" type="line"/>
		</contour>
		<contour>
			<point x="432" y="0" type="line"/>
			<point x="385.75" y="148.75" type="line"/>
			<point x="171.75" y="148.75" type="line"/>
			<point x="125.5" y="0" type="line"/>
			<point x="-15" y="0" type="line"/>
			<point x="195.75" y="680" type="line"/>
			<point x="360.25" y="680" type="line"/>
			<point x="572.5" y="0" type="line"/>
		</contour>
		<contour>
			<point x="382.5" y="875" type="line"/>
			<point x="382.5" y="750" type="line"/>
			<point x="242.5" y="750" type="line"/>
			<point x="242.5" y="875" type="line"/>
		</contour>
	</outline>
</glyph>
<glyph name="uni022A" format="2">
	<unicode hex="022A"/>
	<advance width="660"/>
	<outline>
		<contour>
			<point x="463" y="910" type="line"/>
			<point x="193" y="910" type="line"/>
			<point x="193" y="990" type="line"/>
			<point x="463" y="990" type="line"/>
		</contour>
		<contour>
			<point x="289" y="770" type="line"/>
			<point x="209" y="770" type="line"/>
			<point x="209" y="850" type="line"/>
			<point x="289" y="850" type="line"/>
		</contour>
		<contour>
			<point x="446" y="770" type="line"/>
			<point x="366" y="770" type="line"/>
			<point x="366" y="850" type="line"/>
			<point x="446" y="850" type="line"/>
		</contour>
		<contour>
			<point x="49" y="350" type="curve" smooth="yes"/>
			<point x="49" y="560"/>
			<point x="145" y="710"/>
			<point x="327" y="710" type="curve" smooth="yes"/>
			<point x="518" y="710"/>
			<point x="609" y="555"/>
			<point x="609" y="350" type="curve" smooth="yes"/>
			<point x="609" y="141"/>
			<point x="520" y="-10"/>
			<point x="333" y="-10" type="curve" smooth="yes"/>
			<point x="140" y="-10"/>
			<point x="49" y="138"/>
		</contour>
		<contour>
			<point x="139" y="350" type="curve" smooth="yes"/>
			<point x="139" y="200"/>
			<point x="186" y="70"/>
			<point x="327" y="70" type="curve" smooth="yes"/>
			<point x="476" y="70"/>
			<point x="519" y="236"/>
			<point x="519" y="350" type="curve" smooth="yes"/>
			<point x="519" y="503"/>
			<point x="476" y="630"/>
			<point x="327" y="630" type="curve" smooth="yes"/>
			<point x="188" y="630"/>
			<point x="139" y="502"/>
		</contour>
	</outline>
</glyph>
<glyph name="uni02C4" format="2">
	<unicode hex="02C4"/>
	<advance width="514"/>
	<outline>
		<contour>
			<point x="86" y="530" type="line"/>
			<point x="16" y="530" type="line"/>
			<point x="216" y="964" type="line"/>
			<point x="286" y="964" type="line"/>
			<point x="486" y="530" type="line"/>
			<point x="414" y="530" type="line"/>
			<point x="250" y="888" type="line"/>
		</contour>
	</outline>
</glyph>
<glyph name="circumflex" format="2">
	<unicode hex="02C6"/>
	<advance width="340"/>
	<outline>
		<contour>
			<point x="170" y="626.5" type="line"/>
			<point x="83" y="520" type="line"/>
			<point x="7.5" y="520" type="line"/>
			<point x="112.5" y="700" type="line"/>
			<point x="227.5" y="700" type="line"/>
			<point x="332.5" y="520" type="line"/>
			<point x="257" y="520" type="line"/>
		</contour>
	</outline>
</glyph>
<glyph name="dotaccent" format="2">
	<unicode hex="02D9"/>
	<advance width="255"/>
	<outline>
		<contour>
			<point x="197.5" y="520" type="line"/>
			<point x="57.5" y="520" type="line"/>
			<point x="57.5" y="645" type="line"/>
			<point x="197.5" y="645" type="line"/>
		</contour>
	</outline>
</glyph>
<glyph name="ogonek" format="2">
	<unicode hex="02DB"/>
	<advance width="300"/>
	<outline>
		<contour>
			<point x="55" y="-128.75" type="curve" smooth="yes"/>
			<point x="55" y="-76.5"/>
			<point x="87.5" y="-32.75"/>
			<point x="124.75" y="0" type="curve"/>
			<point x="219.75" y="0" type="line"/>
			<point x="176.75" y="-38"/>
			<point x="165.75" y="-64.5"/>
			<point x="165.75" y="-89.75" type="curve" smooth="yes"/>
			<point x="165.75" y="-111.25"/>
			<point x="179.5" y="-122.5"/>
			<point x="199.25" y="-122.5" type="curve" smooth="yes"/>
			<point x="209.5" y="-122.5"/>
			<point x="221" y="-116"/>
			<point x="230.25" y="-108.25" type="curve"/>
			<point x="244.75" y="-183.75" type="line"/>
			<point x="224.75" y="-198.25"/>
			<point x="188.75" y="-210"/>
			<point x="148.75" y="-210" type="curve" smooth="yes"/>
			<point x="90.25" y="-210"/>
			<point x="55" y="-181.25"/>
		</contour>
	</outline>
</glyph>
<glyph name="hungarumlaut" format="2">
	<unicode hex="02DD"/>
	<advance width="350"/>
	<outline>
		<contour>
			<point x="234" y="520" type="line"/>
			<point x="170" y="520" type="line"/>
			<point x="220" y="680" type="line"/>
			<point x="300" y="680" type="line"/>
		</contour>
		<contour>
			<point x="114" y="520" type="line"/>
			<point x="50" y="520" type="line"/>
			<point x="100" y="680" type="line"/>
			<point x="180" y="680" type="line"/>
		</contour>
	</outline>
</glyph>
<glyph name="gravecomb" format="2">
	<unicode hex="0300"/>
	<outline>
		<contour>
			<point x="-311.5" y="520" type="line"/>
			<point x="-403" y="710" type="line"/>
			<point x="-235" y="710" type="line"/>
			<point x="-185" y="520" type="line"/>
		</contour>
	</outline>
	<anchor name="top" x="-247" y="520"/>
</glyph>
<glyph name="acutecomb" format="2">
	<unicode hex="0301"/>
	<outline>
		<contour>
			<point x="-143" y="520" type="line"/>
			<point x="-269.5" y="520" type="line"/>
			<point x="-219.5" y="715" type="line"/>
			<point x="-51.5" y="715" type="line"/>
		</contour>
	</outline>
	<anchor name="top" x="-209.25" y="520"/>
</glyph>
<glyph name="uni0304" format="2">
	<unicode hex="0304"/>
	<outline>
		<contour>
			<point x="-50" y="520" type="line"/>
			<point x="-320" y="520" type="line"/>
			<point x="-320" y="637.5" type="line"/>
			<point x="-50" y="637.5" type="line"/>
		</contour>
	</outline>
	<anchor name="top" x="-177.75" y="520"/>
</glyph>
<glyph name="uni0306" format="2">
	<unicode hex="0306"/>
	<outline>
		<contour>
			<point x="-360" y="660" type="curve"/>
			<point x="-280" y="660" type="line"/>
			<point x="-280" y="600"/>
			<point x="-240" y="580"/>
			<point x="-205" y="580" type="curve" smooth="yes"/>
			<point x="-170" y="580"/>
			<point x="-130" y="600"/>
			<point x="-130" y="660" type="curve"/>
			<point x="-50" y="660" type="line"/>
			<point x="-50" y="560"/>
			<point x="-125" y="520"/>
			<point x="-205" y="520" type="curve" smooth="yes"/>
			<point x="-285" y="520"/>
			<point x="-360" y="560"/>
		</contour>
	</outline>
</glyph>
<glyph name="uni0307" format="2">
	<unicode hex="0307"/>
	<outline>
		<contour>
			<point x="-57.5" y="520" type="line"/>
			<point x="-197.5" y="520" type="line"/>
			<point x="-197.5" y="645" type="line"/>
			<point x="-57.5" y="645" type="line"/>
		</contour>
	</outline>
</glyph>
<glyph name="uni0308" format="2">
	<unicode hex="0308"/>
	<outline>
		<contour>
			<point x="-283.25" y="520" type="line"/>
			<point x="-415.75" y="520" type="line"/>
			<point x="-415.75" y="667.5" type="line"/>
			<point x="-283.25" y="667.5" type="line"/>
		</contour>
		<contour>
			<point x="-64.75" y="520" type="line"/>
			<point x="-197.25" y="520" type="line"/>
			<point x="-197.25" y="667.5" type="line"/>
			<point x="-64.75" y="667.5" type="line"/>
		</contour>
	</outline>
	<anchor name="top" x="-240.5" y="520"/>
</glyph>
<glyph name="uni0400" format="2">
	<unicode hex="0400"/>
	<advance width="510"/>
	<outline>
		<contour>
			<point x="420" y="287.5" type="line"/>
			<point x="203" y="287.5" type="line"/>
			<point x="203" y="117.5" type="line"/>
			<point x="460" y="117.5" type="line"/>
			<point x="460" y="0" type="line"/>
			<point x="62.5" y="0" type="line"/>
			<point x="62.5" y="680" type="line"/>
			<point x="460" y="680" type="line"/>
			<point x="460" y="562.5" type="line"/>
			<point x="203" y="562.5" type="line"/>
			<point x="203" y="405" type="line"/>
			<point x="420" y="405" type="line"/>
		</contour>
		<contour>
			<point x="287" y="740" type="line"/>
			<point x="223" y="740" type="line"/>
			<point x="157" y="900" type="line"/>
			<point x="237" y="900" type="line"/>
		</contour>
	</outline>
</glyph>
<glyph name="uni0402" format="2">
	<unicode hex="0402"/>
	<advance width="1290"/>
	<outline>
		<contour>
			<point x="967.25" y="-90" type="curve"/>
			<point x="1046.25" y="-90" type="line"/>
			<point x="1062.25" y="-114"/>
			<point x="1077.25" y="-120"/>
			<point x="1100.25" y="-120" type="curve" smooth="yes"/>
			<point x="1125.25" y="-120"/>
			<point x="1140.25" y="-103"/>
			<point x="1140.25" y="-55" type="curve" smooth="yes"/>
			<point x="1140.25" y="460" type="line"/>
			<point x="1220.25" y="460" type="line"/>
			<point x="1220.25" y="-31" type="line" smooth="yes"/>
			<point x="1220.25" y="-139"/>
			<point x="1163.25" y="-200"/>
			<point x="1098.25" y="-200" type="curve" smooth="yes"/>
			<point x="1034.25" y="-200"/>
			<point x="983.25" y="-149"/>
		</contour>
		<contour>
			<point x="310.25" y="555" type="line"/>
			<point x="310.25" y="0" type="line"/>
			<point x="169.75" y="0" type="line"/>
			<point x="169.75" y="555" type="line"/>
			<point x="10" y="555" type="line"/>
			<point x="10" y="680" type="line"/>
			<point x="470" y="680" type="line"/>
			<point x="470" y="555" type="line"/>
		</contour>
		<contour>
			<point x="846.5" y="470" type="curve" smooth="yes"/>
			<point x="979.75" y="470"/>
			<point x="999" y="373.25"/>
			<point x="999" y="300" type="curve" smooth="yes"/>
			<point x="999" y="0" type="line"/>
			<point x="859" y="0" type="line"/>
			<point x="859" y="270" type="line" smooth="yes"/>
			<point x="859" y="323.75"/>
			<point x="838.75" y="387.25"/>
			<point x="782.75" y="387.25" type="curve" smooth="yes"/>
			<point x="720.25" y="387.25"/>
			<point x="680" y="326.5"/>
			<point x="680" y="232.5" type="curve" smooth="yes"/>
			<point x="680" y="0" type="line"/>
			<point x="540" y="0" type="line"/>
			<point x="540" y="700" type="line"/>
			<point name=".hr01" x="680" y="700" type="line"/>
			<point x="680" y="366.5" type="line"/>
			<point x="715.75" y="420.25"/>
			<point x="769.25" y="470"/>
		</contour>
	</outline>
</glyph>
<glyph name="uni040C" format="2">
	<unicode hex="040C"/>
	<advance width="657"/>
	<outline>
		<contour>
			<point x="203" y="253.25" type="line"/>
			<point x="203" y="0" type="line"/>
			<point x="62.5" y="0" type="line"/>
			<point x="62.5" y="680" type="line"/>
			<point x="203" y="680" type="line"/>
			<point x="203" y="369.25" type="line"/>
			<point x="273.75" y="386.25" type="line"/>
			<point x="450" y="680" type="line"/>
			<point x="606.5" y="680" type="line"/>
			<point x="406.5" y="350" type="line"/>
			<point x="646.5" y="0" type="line"/>
			<point x="475" y="0" type="line"/>
			<point x="288.5" y="277.75" type="line"/>
		</contour>
		<contour>
			<point x="437" y="932.5" type="line"/>
			<point x="358" y="730" type="line"/>
			<point x="219.5" y="730" type="line"/>
			<point x="284.5" y="932.5" type="line"/>
		</contour>
	</outline>
</glyph>
<glyph name="uni0413" format="2">
	<unicode hex="0413"/>
	<advance width="490"/>
	<outline>
		<contour>
			<point x="460" y="562.5" type="line"/>
			<point x="203" y="562.5" type="line"/>
			<point x="203" y="0" type="line"/>
			<point x="62.5" y="0" type="line"/>
			<point x="62.5" y="680" type="line"/>
			<point x="460" y="680" type="line"/>
		</contour>
	</outline>
</glyph>
<glyph name="uni042B" format="2">
	<unicode hex="042B"/>
	<advance width="816"/>
	<outline>
		<component base="uni042C"/>
		<contour>
			<point x="748.5" y="685" type="line"/>
			<point x="748.5" y="0" type="line"/>
			<point x="608" y="0" type="line"/>
			<point x="608" y="685" type="line"/>
		</contour>
	</outline>
</glyph>
<glyph name="uni042C" format="2">
	<unicode hex="042C"/>
	<advance width="595"/>
	<outline>
		<contour>
			<point x="158" y="0" type="line"/>
			<point x="158" y="125" type="line"/>
			<point x="293" y="125" type="line" smooth="yes"/>
			<point x="358.5" y="125"/>
			<point x="386" y="171"/>
			<point x="386" y="220" type="curve" smooth="yes"/>
			<point x="386" y="266.75"/>
			<point x="355.5" y="307"/>
			<point x="293" y="307" type="curve" smooth="yes"/>
			<point x="158" y="307" type="line"/>
			<point x="158" y="432" type="line"/>
			<point x="313" y="432" type="line" smooth="yes"/>
			<point x="474" y="432"/>
			<point x="528" y="336"/>
			<point x="528" y="220" type="curve" smooth="yes"/>
			<point x="528" y="107"/>
			<point x="461" y="0"/>
			<point x="313" y="0" type="curve" smooth="yes"/>
		</contour>
		<contour>
			<point x="50" y="0" type="line"/>
			<point x="50" y="680" type="line"/>
			<point x="190.5" y="680" type="line"/>
			<point x="190.5" y="0" type="line"/>
		</contour>
	</outline>
</glyph>
<glyph name="uni0432" format="2">
	<unicode hex="0432"/>
	<advance width="496"/>
	<outline>
		<contour>
			<point x="261" y="395" type="curve" smooth="yes"/>
			<point x="150" y="395" type="line"/>
			<point x="150" y="270" type="line"/>
			<point x="261" y="270" type="line" smooth="yes"/>
			<point x="307" y="270"/>
			<point x="346" y="279"/>
			<point x="346" y="330" type="curve" smooth="yes"/>
			<point x="346" y="367"/>
			<point x="309" y="395"/>
		</contour>
		<contour>
			<point x="281" y="205" type="curve" smooth="yes"/>
			<point x="150" y="205" type="line"/>
			<point x="150" y="65" type="line"/>
			<point x="281" y="65" type="line" smooth="yes"/>
			<point x="338" y="65"/>
			<point x="366" y="93"/>
			<point name=".hr01" x="366" y="138" type="curve" smooth="yes"/>
			<point x="366" y="171"/>
			<point x="336" y="205"/>
		</contour>
		<contour>
			<point x="281" y="0" type="curve" smooth="yes"/>
			<point x="70" y="0" type="line"/>
			<point x="70" y="460" type="line"/>
			<point x="261" y="460" type="line" smooth="yes"/>
			<point x="378" y="460"/>
			<point x="426" y="405"/>
			<point x="426" y="334" type="curve" smooth="yes"/>
			<point name=".hr02" x="426" y="307"/>
			<point x="413" y="277"/>
			<point x="378" y="249" type="curve"/>
			<point x="426" y="231"/>
			<point x="446" y="178"/>
			<point x="446" y="139" type="curve"/>
			<point name=".hr03" x="446" y="138" type="line"/>
			<point x="446" y="68"/>
			<point x="390" y="0"/>
		</contour>
	</outline>
</glyph>
<glyph name="uni043D" format="2">
	<unicode hex="043D"/>
	<advance width="518"/>
	<outline>
		<contour>
			<point x="150" y="0" type="line"/>
			<point x="70" y="0" type="line"/>
			<point x="70" y="460" type="line"/>
			<point x="150" y="460" type="line"/>
			<point x="150" y="273" type="line"/>
			<point x="368" y="273" type="line"/>
			<point x="368" y="460" type="line"/>
			<point x="448" y="460" type="line"/>
			<point x="448" y="0" type="line"/>
			<point x="368" y="0" type="line"/>
			<point x="368" y="205" type="line"/>
			<point x="150" y="205" type="line"/>
		</contour>
	</outline>
</glyph>
<glyph name="uni0440" format="2">
	<unicode hex="0440"/>
	<advance width="495"/>
	<outline>
		<contour>
			<point x="128.75" y="231.5" type="curve" smooth="yes"/>
			<point x="128.75" y="226" type="line" smooth="yes"/>
			<point x="128.75" y="123"/>
			<point x="179.75" y="55"/>
			<point x="248.75" y="55" type="curve" smooth="yes"/>
			<point x="341.75" y="55"/>
			<point x="379.75" y="123"/>
			<point x="379.75" y="231" type="curve" smooth="yes"/>
			<point x="379.75" y="306"/>
			<point x="360.75" y="405"/>
			<point x="248.75" y="405" type="curve" smooth="yes"/>
			<point x="165.75" y="405"/>
			<point x="128.75" y="315.5"/>
		</contour>
		<contour>
			<point x="63.75" y="-35.25" type="line"/>
			<point x="68" y="438.75" type="line"/>
			<point x="82.4787" y="454"/>
			<point x="124.818" y="462.5"/>
			<point x="150" y="462.5" type="curve"/>
			<point x="184.001" y="451.632"/>
			<point x="208.881" y="383.596"/>
			<point x="211.5" y="343.5" type="curve"/>
			<point x="235.5" y="354.75"/>
			<point x="248" y="350"/>
			<point x="272.75" y="350" type="curve" smooth="yes"/>
			<point x="350.75" y="350"/>
			<point x="382.75" y="267"/>
			<point x="377" y="189.5" type="curve"/>
			<point x="377" y="87.9745"/>
			<point x="329" y="-45.3982"/>
			<point x="234.5" y="-57.5" type="curve"/>
			<point name=".hr01" x="175.54" y="-57.5"/>
			<point x="135.541" y="-34.25"/>
			<point x="108.75" y="5.5" type="curve"/>
			<point x="108.75" y="-35.25" type="line"/>
		</contour>
	</outline>
</glyph>
<glyph name="uni0442" format="2">
	<unicode hex="0442"/>
	<advance width="434"/>
	<outline>
		<contour>
			<point x="177" y="392" type="line"/>
			<point x="30" y="392" type="line"/>
			<point x="30" y="460" type="line"/>
			<point x="404" y="460" type="line"/>
			<point x="404" y="392" type="line"/>
			<point x="257" y="392" type="line"/>
			<point x="257" y="0" type="line"/>
			<point x="177" y="0" type="line"/>
		</contour>
	</outline>
</glyph>
<glyph name="uni04D1" format="2">
	<unicode hex="04D1"/>
	<advance width="493"/>
	<outline>
		<contour>
			<point x="342" y="78" type="curve"/>
			<point x="342" y="272" type="line"/>
			<point x="215" y="246" type="line" smooth="yes"/>
			<point x="98" y="222"/>
			<point x="65" y="194"/>
			<point x="65" y="121" type="curve" smooth="yes"/>
			<point x="65" y="54"/>
			<point x="124" y="10"/>
			<point x="191" y="10" type="curve" smooth="yes"/>
			<point x="239" y="10"/>
			<point x="301" y="38"/>
		</contour>
		<contour>
			<point x="222" y="264" type="curve" smooth="yes"/>
			<point x="342" y="288" type="line"/>
			<point x="342" y="350" type="line" smooth="yes"/>
			<point x="342" y="416"/>
			<point x="300" y="450"/>
			<point x="217" y="450" type="curve" smooth="yes"/>
			<point x="147" y="450"/>
			<point x="96" y="402"/>
			<point x="90" y="330" type="curve"/>
			<point x="70" y="330" type="line"/>
			<point x="78" y="414"/>
			<point x="139" y="470"/>
			<point x="223" y="470" type="curve" smooth="yes"/>
			<point x="307" y="470"/>
			<point x="362" y="425"/>
			<point x="362" y="359" type="curve" smooth="yes"/>
			<point x="362" y="0" type="line"/>
			<point x="348" y="0" type="line"/>
			<point x="343" y="54" type="line"/>
			<point x="298" y="13"/>
			<point x="240" y="-10"/>
			<point x="182" y="-10" type="curve" smooth="yes"/>
			<point x="101" y="-10"/>
			<point x="45" y="44"/>
			<point x="45" y="123" type="curve" smooth="yes"/>
			<point x="45" y="205"/>
			<point x="84" y="237"/>
		</contour>
		<contour>
			<point x="95" y="660" type="curve"/>
			<point x="175" y="660" type="line"/>
			<point x="175" y="600"/>
			<point x="215" y="580"/>
			<point x="250" y="580" type="curve" smooth="yes"/>
			<point x="285" y="580"/>
			<point x="325" y="600"/>
			<point x="325" y="660" type="curve"/>
			<point name=".hr01" x="405" y="660" type="line"/>
			<point x="405" y="560"/>
			<point x="330" y="520"/>
			<point x="250" y="520" type="curve" smooth="yes"/>
			<point x="170" y="520"/>
			<point x="95" y="560"/>
		</contour>
	</outline>
</glyph>
<glyph name="uni04D2" format="2">
	<unicode hex="04D2"/>
	<advance width="570"/>
	<outline>
		<contour>
			<point x="343" y="288.75" type="line"/>
			<point x="278.75" y="493.25" type="line"/>
			<point x="214.5" y="288.75" type="line"/>
		</contour>
		<contour>
			<point x="432" y="0" type="line"/>
			<point x="385.75" y="148.75" type="line"/>
			<point x="171.75" y="148.75" type="line"/>
			<point x="125.5" y="0" type="line"/>
			<point x="-15" y="0" type="line"/>
			<point x="195.75" y="680" type="line"/>
			<point x="360.25" y="680" type="line"/>
			<point x="572.5" y="0" type="line"/>
		</contour>
		<contour>
			<point x="246" y="840" type="line"/>
			<point x="246" y="760" type="line"/>
			<point x="166" y="760" type="line"/>
			<point x="166" y="840" type="line"/>
		</contour>
		<contour>
			<point x="404" y="840" type="line"/>
			<point x="404" y="760" type="line"/>
			<point x="324" y="760" type="line"/>
			<point x="324" y="840" type="line"/>
		</contour>
	</outline>
</glyph>
<glyph name="uni04E2" format="2">
	<unicode hex="04E2"/>
	<advance width="630"/>
	<outline>
		<contour>
			<point x="450" y="770" type="line"/>
			<point x="180" y="770" type="line"/>
			<point x="180" y="835" type="line"/>
			<point x="450" y="835" type="line"/>
		</contour>
		<contour>
			<point x="170" y="0" type="line"/>
			<point x="50" y="0" type="line"/>
			<point x="50" y="700" type="line"/>
			<point x="140" y="700" type="line"/>
			<point x="140" y="210" type="line" smooth="yes"/>
			<point x="140" y="148"/>
			<point x="138" y="127"/>
			<point x="135" y="120" type="curve"/>
			<point x="460" y="700" type="line"/>
			<point x="580" y="700" type="line"/>
			<point x="580" y="0" type="line"/>
			<point x="490" y="0" type="line"/>
			<point x="490" y="490" type="line"/>
			<point x="491" y="514"/>
			<point x="490" y="520"/>
			<point x="495" y="580" type="curve"/>
		</contour>
	</outline>
</glyph>
<glyph name="uni04EF" format="2">
	<unicode hex="04EF"/>
	<advance width="460"/>
	<outline>
		<contour>
			<point x="345" y="530" type="line"/>
			<point x="75" y="530" type="line"/>
			<point x="75" y="610" type="line"/>
			<point x="345" y="610" type="line"/>
		</contour>
		<contour>
			<point x="198" y="-12" type="curve"/>
			<point name=".hr01" x="30" y="460" type="line"/>
			<point x="110" y="460" type="line"/>
			<point x="239" y="98" type="line"/>
			<point x="354" y="460" type="line"/>
			<point x="430" y="460" type="line"/>
			<point x="258" y="-49" type="line" smooth="yes"/>
			<point x="252" y="-67"/>
			<point x="225" y="-200"/>
			<point x="150" y="-200" type="curve" smooth="yes"/>
			<point x="108" y="-200"/>
			<point x="89" y="-198"/>
			<point x="58" y="-190" type="curve"/>
			<point x="58" y="-120" type="line"/>
			<point x="78" y="-129"/>
			<point x="94" y="-135"/>
			<point x="116" y="-135" type="curve" smooth="yes"/>
			<point x="122" y="-135" type="line" smooth="yes"/>
			<point x="163" y="-135"/>
			<point x="187" y="-54"/>
		</contour>
	</outline>
</glyph>
<glyph name="quotedblbase" format="2">
	<unicode hex="201E"/>
	<advance width="290"/>
	<outline>
		<contour>
			<point x="72" y="0" type="line"/>
			<point x="50" y="0" type="line"/>
			<point x="50" y="80" type="line"/>
			<point x="130" y="80" type="line"/>
			<point x="130" y="0" type="line"/>
			<point x="84" y="-130" type="line"/>
			<point x="50" y="-130" type="line"/>
		</contour>
		<contour>
			<point x="182" y="0" type="line"/>
			<point x="160" y="0" type="line"/>
			<point x="160" y="80" type="line"/>
			<point x="240" y="80" type="line"/>
			<point x="240" y="0" type="line"/>
			<point x="194" y="-130" type="line"/>
			<point x="160" y="-130" type="line"/>
		</contour>
	</outline>
</glyph>
<glyph name="caroncmb.cap" format="2">
	<outline>
		<contour>
			<point x="-180" y="700" type="line"/>
			<point x="-260" y="700" type="line"/>
			<point x="-360" y="860" type="line"/>
			<point x="-296" y="860" type="line"/>
			<point x="-220" y="775" type="line"/>
			<point x="-144" y="860" type="line"/>
			<point x="-80" y="860" type="line"/>
		</contour>
	</outline>
</glyph>
<glyph name="f.sc" format="2">
	<advance width="355"/>
	<outline>
		<contour>
			<point x="113" y="0" type="line"/>
			<point x="33" y="0" type="line"/>
			<point x="33" y="460" type="line"/>
			<point x="323" y="460" type="line"/>
			<point x="323" y="395" type="line"/>
			<point x="113" y="395" type="line"/>
			<point x="113" y="260" type="line"/>
			<point x="297" y="260" type="line"/>
			<point x="297" y="195" type="line"/>
			<point x="113" y="195" type="line"/>
		</contour>
	</outline>
</glyph>
<glyph name="m.sc" format="2">
	<advance width="514"/>
	<outline>
		<contour>
			<point x="113" y="0" type="line"/>
			<point x="33" y="0" type="line"/>
			<point x="33" y="153"/>
			<point x="33" y="307"/>
			<point x="33" y="460" type="curve"/>
			<point x="165" y="460" type="line"/>
			<point x="251" y="59" type="line"/>
			<point x="264" y="59" type="line"/>
			<point x="349" y="460" type="line"/>
			<point x="482" y="460" type="line"/>
			<point x="482" y="0" type="line"/>
			<point x="402" y="0" type="line"/>
			<point x="402" y="402" type="line"/>
			<point x="303" y="0" type="line"/>
			<point x="211" y="0" type="line"/>
			<point x="113" y="402" type="line"/>
		</contour>
	</outline>
</glyph>
<glyph name="nine.superior" format="2">
	<advance width="367"/>
	<outline>
		<contour>
			<point x="91" y="727" type="curve" smooth="yes"/>
			<point x="91" y="650"/>
			<point x="142" y="632"/>
			<point x="175" y="632" type="curve" smooth="yes"/>
			<point x="218" y="632"/>
			<point x="276" y="648"/>
			<point x="276" y="727" type="curve" smooth="yes"/>
			<point x="276" y="793"/>
			<point x="257" y="828"/>
			<point x="183" y="828" type="curve" smooth="yes"/>
			<point x="120" y="828"/>
			<point x="91" y="781"/>
		</contour>
		<contour>
			<point x="24" y="731" type="curve" smooth="yes"/>
			<point x="24" y="827"/>
			<point x="90" y="888"/>
			<point x="180" y="888" type="curve" smooth="yes"/>
			<point x="306" y="888"/>
			<point x="341" y="802"/>
			<point x="341" y="681" type="curve" smooth="yes"/>
			<point x="341" y="521"/>
			<point x="306" y="407"/>
			<point x="181" y="407" type="curve" smooth="yes"/>
			<point x="105" y="407"/>
			<point x="61" y="442"/>
			<point x="41" y="502" type="curve"/>
			<point x="63" y="502"/>
			<point x="85" y="503"/>
			<point x="107" y="503" type="curve"/>
			<point x="120" y="481"/>
			<point x="130" y="467"/>
			<point x="182" y="467" type="curve" smooth="yes"/>
			<point x="199" y="467"/>
			<point x="213" y="470"/>
			<point x="225" y="476" type="curve" smooth="yes"/>
			<point x="271" y="499"/>
			<point x="275" y="565"/>
			<point x="276" y="643" type="curve"/>
			<point x="274" y="643" type="line"/>
			<point x="256" y="604"/>
			<point x="219" y="576"/>
			<point x="171" y="576" type="curve" smooth="yes"/>
			<point x="90" y="576"/>
			<point x="24" y="631"/>
		</contour>
	</outline>
</glyph>
<glyph name="s.sc" format="2">
	<advance width="429"/>
	<outline>
		<contour>
			<point x="33" y="136" type="curve"/>
			<point x="113" y="136" type="line"/>
			<point x="113" y="74"/>
			<point x="166" y="55"/>
			<point x="223" y="55" type="curve" smooth="yes"/>
			<point x="271" y="55"/>
			<point x="335" y="72"/>
			<point x="335" y="131" type="curve" smooth="yes"/>
			<point x="335" y="235"/>
			<point name=".hr01" x="54" y="190"/>
			<point x="54" y="341" type="curve" smooth="yes"/>
			<point x="54" y="400"/>
			<point x="94" y="470"/>
			<point x="223" y="470" type="curve" smooth="yes"/>
			<point x="304" y="470"/>
			<point x="365" y="424"/>
			<point x="387" y="374" type="curve"/>
			<point x="393" y="362"/>
			<point x="396" y="349"/>
			<point x="396" y="337" type="curve"/>
			<point x="315" y="337" type="line"/>
			<point x="303" y="373"/>
			<point x="268" y="405"/>
			<point x="223" y="405" type="curve" smooth="yes"/>
			<point x="150" y="405"/>
			<point x="136" y="375"/>
			<point x="136" y="337" type="curve" smooth="yes"/>
			<point x="136" y="269"/>
			<point x="416" y="282"/>
			<point x="416" y="141" type="curve" smooth="yes"/>
			<point x="416" y="9"/>
			<point x="328" y="-10"/>
			<point x="224" y="-10" type="curve" smooth="yes"/>
			<point x="126" y="-10"/>
			<point name=".hr02" x="33" y="62"/>
		</contour>
	</outline>
</glyph>
<glyph name="seven.numr" format="2">
	<advance width="381"/>
	<outline>
		<contour>
			<point x="288" y="637" type="curve"/>
			<point x="33" y="637" type="line"/>
			<point x="33" y="697" type="line"/>
			<point x="348" y="697" type="line"/>
			<point x="348" y="644" type="line"/>
			<point x="300" y="583" type="line"/>
			<point x="238" y="498"/>
			<point x="188" y="397"/>
			<point x="188" y="230" type="curve"/>
			<point x="120" y="230" type="line"/>
			<point x="120" y="436"/>
			<point x="202" y="539"/>
		</contour>
	</outline>
</glyph>
<glyph name="two.dnom" format="2">
	<advance width="368"/>
	<outline>
		<contour>
			<point x="24" y="88" type="curve"/>
			<point x="24" y="179"/>
			<point x="87" y="244"/>
			<point x="181" y="244" type="curve" smooth="yes"/>
			<point x="308" y="244"/>
			<point x="344" y="191"/>
			<point x="344" y="112" type="curve" smooth="yes"/>
			<point x="344" y="7"/>
			<point x="186" y="-93"/>
			<point x="122" y="-162" type="curve"/>
			<point x="359" y="-162" type="line"/>
			<point x="359" y="-230" type="line"/>
			<point x="41" y="-230" type="line"/>
			<point x="41" y="-171" type="line"/>
			<point x="54" y="-155"/>
			<point x="68" y="-140"/>
			<point x="81" y="-126" type="curve" smooth="yes"/>
			<point x="175" y="-28"/>
			<point x="276" y="26"/>
			<point x="276" y="97" type="curve" smooth="yes"/>
			<point x="276" y="149"/>
			<point x="265" y="184"/>
			<point x="181" y="184" type="curve" smooth="yes"/>
			<point x="122" y="184"/>
			<point x="94" y="140"/>
			<point x="91" y="89" type="curve"/>
			<point x="69" y="89"/>
			<point x="46" y="88"/>
		</contour>
	</outline>
</glyph>
<glyph name="two.inferior" format="2">
	<advance width="368"/>
	<outline>
		<contour>
			<point x="24" y="-142" type="curve"/>
			<point x="24" y="-51"/>
			<point x="87" y="14"/>
			<point x="181" y="14" type="curve" smooth="yes"/>
			<point x="308" y="14"/>
			<point x="344" y="-39"/>
			<point x="344" y="-118" type="curve" smooth="yes"/>
			<point x="344" y="-223"/>
			<point x="186" y="-323"/>
			<point x="122" y="-392" type="curve"/>
			<point x="359" y="-392" type="line"/>
			<point x="359" y="-460" type="line"/>
			<point x="41" y="-460" type="line"/>
			<point x="41" y="-401" type="line"/>
			<point x="144" y="-274"/>
			<point x="276" y="-214"/>
			<point x="276" y="-133" type="curve" smooth="yes"/>
			<point x="276" y="-81"/>
			<point x="265" y="-46"/>
			<point x="181" y="-46" type="curve" smooth="yes"/>
			<point x="122" y="-46"/>
			<point x="94" y="-90"/>
			<point x="91" y="-141" type="curve"/>
			<point x="69" y="-141"/>
			<point x="46" y="-142"/>
		</contour>
	</outline>
</glyph>
<glyph name="uni0433.loclBGR" format="2">
	<advance width="445"/>
	<outline>
		<contour>
			<point x="45" y="119" type="curve" smooth="yes"/>
			<point x="45" y="208"/>
			<point x="124" y="231"/>
			<point x="195" y="261" type="curve" smooth="yes"/>
			<point x="264" y="290"/>
			<point x="310" y="299"/>
			<point x="310" y="348" type="curve" smooth="yes"/>
			<point x="310" y="378"/>
			<point x="285" y="405"/>
			<point x="228" y="405" type="curve" smooth="yes"/>
			<point x="183" y="405"/>
			<point name=".hr01" x="134" y="382"/>
			<point x="134" y="320" type="curve"/>
			<point x="55" y="320" type="line"/>
			<point x="55" y="420"/>
			<point x="141" y="470"/>
			<point x="230" y="470" type="curve" smooth="yes"/>
			<point x="334" y="470"/>
			<point x="390" y="418"/>
			<point x="390" y="352" type="curve" smooth="yes"/>
			<point x="390" y="250"/>
			<point x="300" y="245"/>
			<point x="224" y="212" type="curve" smooth="yes"/>
			<point x="165" y="186"/>
			<point name=".hr02" x="125" y="179"/>
			<point x="125" y="118" type="curve" smooth="yes"/>
			<point x="125" y="69"/>
			<point x="190" y="55"/>
			<point x="215" y="55" type="curve" smooth="yes"/>
			<point x="286" y="55"/>
			<point x="335" y="86"/>
			<point x="335" y="150" type="curve"/>
			<point x="410" y="150" type="line"/>
			<point x="410" y="38"/>
			<point x="320" y="-10"/>
			<point x="215" y="-10" type="curve" smooth="yes"/>
			<point x="138" y="-10"/>
			<point x="45" y="23"/>
		</contour>
	</outline>
</glyph>
<glyph name="uni043F.loclBGR" format="2">
	<advance width="571"/>
	<outline>
		<contour>
			<point x="358.25" y="470" type="curve" smooth="yes"/>
			<point x="491.5" y="470"/>
			<point x="510.75" y="373.25"/>
			<point x="510.75" y="300" type="curve" smooth="yes"/>
			<point x="510.75" y="0" type="line"/>
			<point x="370.75" y="0" type="line"/>
			<point x="370.75" y="270" type="line" smooth="yes"/>
			<point x="370.75" y="323.75"/>
			<point x="350.5" y="387.25"/>
			<point x="294.5" y="387.25" type="curve" smooth="yes"/>
			<point x="247.75" y="387.25"/>
			<point x="209" y="351.25"/>
			<point x="200" y="301.5" type="curve"/>
			<point x="200" y="0" type="line"/>
			<point x="60" y="0" type="line"/>
			<point x="60" y="460" type="line"/>
			<point x="184" y="460" type="line"/>
			<point x="196.75" y="373.5" type="line"/>
			<point x="232.5" y="425.5"/>
			<point x="284.75" y="470"/>
		</contour>
	</outline>
</glyph>
<glyph name="uni0442.loclBGR" format="2">
	<advance width="796"/>
	<outline>
		<contour>
			<point x="140" y="310" type="curve"/>
			<point x="140" y="0" type="line"/>
			<point x="60" y="0" type="line"/>
			<point x="60" y="460" type="line"/>
			<point x="120" y="460" type="line"/>
			<point x="136" y="379" type="line"/>
			<point x="170" y="425"/>
			<point x="216" y="470"/>
			<point x="288" y="470" type="curve" smooth="yes"/>
			<point x="382" y="470"/>
			<point x="417" y="424"/>
			<point x="430" y="374" type="curve"/>
			<point x="464" y="422"/>
			<point x="511" y="470"/>
			<point x="586" y="470" type="curve" smooth="yes"/>
			<point x="730" y="470"/>
			<point x="736" y="362"/>
			<point x="736" y="295" type="curve" smooth="yes"/>
			<point x="736" y="0" type="line"/>
			<point x="656" y="0" type="line"/>
			<point x="656" y="295" type="line" smooth="yes"/>
			<point x="656" y="339"/>
			<point x="647" y="405"/>
			<point x="564" y="405" type="curve" smooth="yes"/>
			<point x="522" y="405"/>
			<point x="462" y="372"/>
			<point x="438" y="309" type="curve"/>
			<point x="438" y="304"/>
			<point x="438" y="300"/>
			<point x="438" y="295" type="curve" smooth="yes"/>
			<point x="438" y="0" type="line"/>
			<point x="358" y="0" type="line"/>
			<point x="358" y="295" type="line" smooth="yes"/>
			<point x="358" y="339"/>
			<point x="349" y="405"/>
			<point x="266" y="405" type="curve" smooth="yes"/>
			<point x="224" y="405"/>
			<point x="164" y="372"/>
		</contour>
	</outline>
</glyph>
<glyph name="v.sc" format="2">
	<advance width="416"/>
	<outline>
		<contour>
			<point x="169" y="0" type="line"/>
			<point x="33" y="460" type="line"/>
			<point x="113" y="460" type="line"/>
			<point x="208" y="110" type="line"/>
			<point x="304" y="460" type="line"/>
			<point x="384" y="460" type="line"/>
			<point x="246" y="0" type="line"/>
		</contour>
	</outline>
</glyph>
<glyph name="zero.numr" format="2">
	<advance width="439"/>
	<outline>
		<contour>
			<point x="70" y="464" type="curve" smooth="yes"/>
			<point x="70" y="604"/>
			<point x="99" y="704"/>
			<point x="232" y="704" type="curve" smooth="yes"/>
			<point x="365" y="704"/>
			<point x="393" y="604"/>
			<point x="393" y="464" type="curve" smooth="yes"/>
			<point x="393" y="324"/>
			<point x="365" y="223"/>
			<point x="232" y="223" type="curve" smooth="yes"/>
			<point x="99" y="223"/>
			<point x="70" y="324"/>
		</contour>
		<contour>
			<point x="138" y="464" type="curve" smooth="yes"/>
			<point x="138" y="367"/>
			<point x="138" y="283"/>
			<point x="232" y="283" type="curve" smooth="yes"/>
			<point x="326" y="283"/>
			<point x="325" y="367"/>
			<point x="325" y="464" type="curve" smooth="yes"/>
			<point x="325" y="561"/>
			<point x="326" y="644"/>
			<point x="232" y="644" type="curve" smooth="yes"/>
			<point x="138" y="644"/>
			<point x="138" y="561"/>
		</contour>
	</outline>
</glyph>
